<svg width="104" height="313" viewBox="0 0 104 313" fill="none" xmlns="http://www.w3.org/2000/svg">
<path fill-rule="evenodd" clip-rule="evenodd" d="M11.8456 302.661C10.5694 304.144 9.53375 305.276 9.90149 307.65C10.6869 309.019 10.7896 311.687 12.315 311.711C21.6355 311.857 40.6668 303.749 47.5016 302.058L44.3715 287.469C39.4332 288.324 36.9755 289.378 33.2262 289.965C33.1438 289.875 33.0325 289.588 33.0175 289.66C33.0026 289.73 32.8603 289.43 32.8104 289.363C31.606 287.749 32.5316 288.357 31.2761 287.978C30.4378 287.725 28.465 287.949 27.5724 288.097C25.1008 295.773 14.9756 299.023 11.8456 302.661Z" fill="url(#paint0_linear_300_8)"/>
<path fill-rule="evenodd" clip-rule="evenodd" d="M76.4331 286.859L66.3019 286.128C65.1138 286.254 65.7631 285.992 65.0906 286.533L65.15 300.243C66.3495 300.891 94.9136 304.257 102.111 302.705C102.704 302.578 102.81 299.348 103.091 299.194C100.546 284.03 85.1621 295.462 84.5865 284.385C81.9641 284.049 78.3154 283.644 77.0605 285.693L76.4331 286.859Z" fill="url(#paint1_linear_300_8)"/>
<path d="M16.0906 143.3L16.0906 140.11L70.0906 136.61L70.0906 140.11L16.0906 143.3Z" fill="#020202"/>
<path fill-rule="evenodd" clip-rule="evenodd" d="M46.0905 65.1101L41.0905 82.1101L39.5905 66.6101L11 65.2359C11 65.2359 8.97336 120.788 12.0905 131.75C13.5906 139.11 16.0906 140.11 16.0906 140.11L70.0906 137.11C70.0906 137.11 73.4592 130.558 73.0906 125.11C72.5351 116.9 70 62.2359 70 62.2359L46.0905 65.1101Z" fill="url(#paint2_linear_300_8)"/>
<path d="M38 111.432L40 72.2359L42 69.7359L45 72.7359L49 111.432L43.9583 118.736L38 111.432Z" fill="#173475"/>
<path fill-rule="evenodd" clip-rule="evenodd" d="M11 65.2359C11 65.2359 16.3792 63.2359 15.3462 44.5308C14.1399 22.6864 23.2802 2.02202 43.5004 3.99148C63.7205 5.96098 64.0905 23.6101 64.0905 37.6101C63.1562 55.7371 71.1545 61.4627 70 62.7359C58.8897 74.9898 62.5906 96.0309 56 101.736C39.0061 116.446 35.2082 105.789 11 65.2359Z" fill="url(#paint3_linear_300_8)"/>
<path fill-rule="evenodd" clip-rule="evenodd" d="M23.1591 29.6821C25.3601 27.477 33.768 14.7869 41.1811 14.4568C47.4625 14.177 55.6548 28.0239 59.0906 28.1101C59.6745 28.1101 51.8741 8.13054 40.6089 8.65513C27.9152 9.24606 22.2956 30.5469 23.1591 29.6821Z" fill="#999999"/>
<path fill-rule="evenodd" clip-rule="evenodd" d="M23.1249 29.1347C21.216 42.4131 29.0059 56.3939 41.0416 55.8695C59.2514 55.0761 59.334 35.0972 59.0906 28.1101C58.7518 27.5132 46.5363 13.3673 40.7603 13.621C35.1846 13.866 27.3578 23.4838 24.3598 27.4506C23.5783 28.4846 23.1249 29.1347 23.1249 29.1347Z" fill="url(#paint4_linear_300_8)"/>
<path fill-rule="evenodd" clip-rule="evenodd" d="M46.6157 44.4121C42.0905 45.7359 40.4999 45.2359 35.9999 45.2359C35.9999 45.2359 37.5906 49.6101 42.0905 49.1101C45.5906 48.7212 46.6157 44.4121 46.6157 44.4121Z" fill="#EB4554"/>
<path fill-rule="evenodd" clip-rule="evenodd" d="M35.4664 28.9767C34.5906 26.6101 29.7644 27.014 28.0906 27.9767C26.5906 28.8395 26.0906 30.3395 26.0906 30.3395C26.0906 30.3395 28.0744 27.9432 31.0906 28.3395C34.4826 28.7852 34.2628 29.6782 35.4664 28.9767Z" fill="black"/>
<path fill-rule="evenodd" clip-rule="evenodd" d="M46.1275 28.4568C47.336 26.6146 51.9212 26.2675 53.6383 27.4123C55.1383 28.4123 55.2797 29.3807 55.2797 29.3807C55.2797 29.3807 53.8355 27.5491 50.6383 27.9123C47.4411 28.2756 47.2375 29.3416 46.1275 28.4568Z" fill="black"/>
<path fill-rule="evenodd" clip-rule="evenodd" d="M41.1021 41.0031L41.5642 33.9766L42.4546 40.4443L41.1021 41.0031Z" fill="#E5A87D"/>
<path fill-rule="evenodd" clip-rule="evenodd" d="M70.0906 133.11L95.5906 286.11L57.3306 294.598L0.590637 294.598L16.0906 136.11L70.0906 133.11Z" fill="url(#paint5_linear_300_8)"/>
<path fill-rule="evenodd" clip-rule="evenodd" d="M29.9478 173.11L27.0906 294.61H31.5906L29.9478 173.11Z" fill="#001544"/>
<path fill-rule="evenodd" clip-rule="evenodd" d="M56.0906 172.11L73.0906 291.11L69.0906 292.11L56.0906 172.11Z" fill="#001544"/>
<path fill-rule="evenodd" clip-rule="evenodd" d="M31.5907 31.1101C30.7622 31.1101 30.0906 32.0055 30.0906 33.1101C30.0906 34.2146 30.7622 35.1101 31.5907 35.1101C32.4192 35.1101 33.0906 34.2146 33.0906 33.1101C33.0906 32.0055 32.4192 31.1101 31.5907 31.1101Z" fill="black"/>
<path fill-rule="evenodd" clip-rule="evenodd" d="M50.5907 31.1101C49.7622 31.1101 49.0906 32.0055 49.0906 33.1101C49.0906 34.2146 49.7622 35.1101 50.5907 35.1101C51.4192 35.1101 52.0906 34.2146 52.0906 33.1101C52.0906 32.0055 51.4192 31.1101 50.5907 31.1101Z" fill="black"/>
<path d="M27.0786 108.329C27.0786 108.329 18 75.2359 10.9999 65.2359C2.49992 68.7359 4.49997 81.4223 4.49999 85C4.50003 94.5 11.75 111 14 114C20 122 23.7753 124.862 26.5 123.5C35.5 119 46.8333 106.333 54 95.5C52 95 48 93 46 92C45.6779 91.839 27.0786 108.329 27.0786 108.329Z" fill="url(#paint6_linear_300_8)"/>
<path d="M76.5 79.7359C75.7 71.7359 72.6667 62.2359 70 61.7359V76.2359C70 79.2359 71.5 102.236 72 105.736C72.4 108.536 79.5 120.5 83 125.5C85.6667 124.833 91.5 121.736 91.5 121.736C91.5 121.736 87 114 78.5 95.7359C78.6667 89.7359 77.3 87.7359 76.5 79.7359Z" fill="url(#paint7_linear_300_8)"/>
<path fill-rule="evenodd" clip-rule="evenodd" d="M88.0008 143.397L90.6649 143C90.8288 144.068 91.0243 145.322 89.8372 145.532L89.549 145.575C88.2791 145.702 88.1771 144.545 88.0008 143.397Z" fill="#E8B664"/>
<path fill-rule="evenodd" clip-rule="evenodd" d="M91.3306 143.162C74.447 146.146 57.5328 149.026 40.6655 152.092C39.072 152.247 37.4995 150.129 37.0671 147.676C36.6292 145.193 36.9545 142.441 39.1517 142.222C56.0427 139.251 72.6973 136.267 89.6003 133.349C91.3599 132.834 92.6415 134.606 93.2011 137.778C93.6676 140.423 93.0399 143.088 91.3306 143.162Z" fill="url(#paint8_linear_300_8)"/>
<path fill-rule="evenodd" clip-rule="evenodd" d="M90 122.5L88 123.5L84.5 125C84.5 125 84.8484 124.888 85.3449 125.603C85.9187 126.429 86.437 126.818 85.5293 128.567L83.4819 136.313C87.1763 137.225 86.1832 129.951 89.4852 132.668C91.3324 133.579 90.9533 139.722 92.7591 139.047C93.1252 138.91 92.9964 133.674 92.7591 131.667C92.7591 131.667 94.6063 139.959 95.9917 139.959C97.377 139.959 95.6443 132.176 95.3779 131.277C95.3779 131.277 98.1858 136.89 99.2242 136.411C100.212 135.955 97.2088 130.734 97.3719 130.635L100.148 133.579C101.071 134.491 100.973 130.921 98.2105 128.95C96.0441 127.404 94.7485 126.645 92.9949 125.603C92.2058 125.497 91.0124 124 90 122.5Z" fill="#EFAB96"/>
<path fill-rule="evenodd" clip-rule="evenodd" d="M79.5288 135.103L70.6655 136.666C69.1698 128.183 68.6977 125.162 67.1443 116.692C66.5141 113.257 67.3827 114.167 68.5666 112.524C69.5355 111.179 69.5077 109.851 69.064 107.404C67.3875 98.1572 64.5736 81.0609 62.5501 70.5394C63.6123 69.7223 66.812 69.2259 67.9812 69.6131L79.5288 135.103Z" fill="url(#paint9_linear_300_8)"/>
<path fill-rule="evenodd" clip-rule="evenodd" d="M64.7297 82.5055L65.2283 85.3333L55.3959 87.067L58.2427 103.212C60.709 102.846 61.1262 105.774 58.7643 106.17L64.3374 137.777L61.5281 138.277L55.9453 106.615L49.3258 107.782L48.8216 104.923L55.4144 103.76L52.5573 87.5567L30.3395 91.4737C27.5407 91.8293 27.0062 89.1137 29.8369 88.6232C29.8369 88.6232 51.2107 84.8569 52.056 84.7134C50.5194 75.9992 50.1297 73.7892 48.5932 65.0749C48.1455 63.0056 51.0105 62.2734 51.4397 64.6307L54.8972 84.2393L64.7297 82.5055Z" fill="#C78A2A"/>
<path fill-rule="evenodd" clip-rule="evenodd" d="M43.8844 105.719L44.403 108.657L36.8788 109.994L42.4586 141.639L39.7208 142.121L34.1411 110.477C31.9902 110.684 31.5806 107.781 33.6225 107.536C31.3708 94.766 29.0726 81.732 26.8209 68.9622C26.3707 66.7302 29.203 66.2209 29.5576 68.4736L36.3602 107.053L43.8844 105.719Z" fill="#C78A2A"/>
<path d="M48 93L50 94C51 94.5 52.5 95 52.5 95C52.5 95 53 94 54.1373 91.8699L54.9806 91.4194L55.5196 90.9689L56.4412 90.5183L57.8235 89.6174L58.7451 89.1669L59.6667 88.2659L60.1275 87.8154L60.5882 85.5629C60.5882 84.9623 60.5882 84.2114 60.1275 83.3104C59.6329 82.3434 58.7451 81.8088 58.2843 82.4095C58.2843 82.8599 59.2059 83.7609 59.2059 84.2114C59.2059 85.1124 59.0523 85.5629 58.7451 86.0134C58.7451 85.5629 58.7451 84.2114 58.2843 83.3104C57.5177 81.8114 56.4412 81.058 55.5196 81.058C54.598 81.058 56.4412 82.8599 56.902 84.2114C57.3628 85.5629 56.902 86.4639 56.902 86.4639L56.4412 85.1124C55.9804 82.86 53.6765 80.6075 53.2157 81.058C52.8899 81.3765 52.7549 81.959 54.1373 83.7609C54.7555 84.5668 55.0739 86.9446 55 87C53 88.5 52.3266 86.4639 51.9663 84.74C51.5864 82.9218 50.9271 81.2895 50.4663 81.74C49.7377 82.4523 49.9663 83.339 49.9663 84.24C49.9663 85.141 50.4663 86.4639 50.4663 88.2659C50.4663 88.9936 49.9902 89.1669 48.6078 88.7164C47.9896 88.5149 44 87.8154 44 89.1669C44 89.6174 46.738 89.5978 48.6078 90.9688C50.451 92.3203 48 93 48 93Z" fill="#F0B3A0"/>
<path fill-rule="evenodd" clip-rule="evenodd" d="M89.6878 133.312L86.9737 133.782L78.0346 83.0857L70.5932 84.3979C70.2822 82.6307 70.065 81.4308 70.065 81.4308C70.065 81.4308 75.305 80.5332 77.5157 80.1434C75.9786 71.4259 75.5794 69.1621 74.0423 60.4446C73.7193 58.4269 76.3137 57.994 76.7551 59.9665L80.2285 79.665C82.6736 79.3619 82.7015 82.0573 80.7473 82.6074L89.6878 133.312Z" fill="#C78A2A"/>
<path fill-rule="evenodd" clip-rule="evenodd" d="M54.9086 139.444L48.015 140.66L46.0777 129.521C45.9316 128.744 45.7492 128.455 46.0698 127.911C46.5558 127.087 47.4931 126.92 47.3863 125.706L42.936 100.492C43.6639 99.6441 46.9669 98.972 47.8579 99.6574C50.2366 112.914 52.5355 126.184 54.9086 139.444Z" fill="url(#paint10_linear_300_8)"/>
<path fill-rule="evenodd" clip-rule="evenodd" d="M40.889 152.075L43.8424 151.55C44.0775 152.883 44.2367 153.519 42.8718 153.746L42.5525 153.802C41.2506 154.113 41.1088 153.322 40.889 152.075Z" fill="#C78A2A"/>
<path fill-rule="evenodd" clip-rule="evenodd" d="M88.1598 143.735L91.1134 143.215C91.2708 144.108 91.4591 145.156 90.1424 145.416L89.8228 145.473C88.4163 145.668 88.3292 144.696 88.1598 143.735Z" fill="#C78A2A"/>
<path d="M53.5 93L57 97L55 87L54 86.5H52.5L53.5 93Z" fill="#C78A2A"/>
<defs>
<linearGradient id="paint0_linear_300_8" x1="29.4486" y1="309.09" x2="25.802" y2="288.409" gradientUnits="userSpaceOnUse">
<stop stop-color="#333333"/>
<stop offset="1"/>
</linearGradient>
<linearGradient id="paint1_linear_300_8" x1="84.0906" y1="303.11" x2="84.0906" y2="284.11" gradientUnits="userSpaceOnUse">
<stop/>
<stop offset="1"/>
</linearGradient>
<linearGradient id="paint2_linear_300_8" x1="33.0906" y1="148.11" x2="33.0906" y2="54.1101" gradientUnits="userSpaceOnUse">
<stop stop-color="#F5F5F5"/>
<stop offset="0.723958" stop-color="white"/>
</linearGradient>
<linearGradient id="paint3_linear_300_8" x1="30.453" y1="114.267" x2="49.7279" y2="4.95328" gradientUnits="userSpaceOnUse">
<stop stop-color="#EAECEC"/>
<stop offset="0.0001" stop-color="#EAECEC"/>
<stop offset="1" stop-color="white"/>
</linearGradient>
<linearGradient id="paint4_linear_300_8" x1="41" y1="56.7359" x2="41" y2="7.7359" gradientUnits="userSpaceOnUse">
<stop stop-color="#FBDEB3"/>
<stop offset="0.0001" stop-color="#FFDECC"/>
<stop offset="0.9999" stop-color="#E7AD8B"/>
<stop offset="1" stop-color="#EFAA93"/>
</linearGradient>
<linearGradient id="paint5_linear_300_8" x1="56" y1="294.736" x2="48.0906" y2="133.11" gradientUnits="userSpaceOnUse">
<stop stop-color="#173475"/>
<stop offset="0.0001" stop-color="#050D21"/>
<stop offset="0.633799" stop-color="#173475"/>
<stop offset="1" stop-color="#354568"/>
</linearGradient>
<linearGradient id="paint6_linear_300_8" x1="30" y1="85.2359" x2="2" y2="83.7359" gradientUnits="userSpaceOnUse">
<stop stop-color="#D9D9D9"/>
<stop offset="0.9999" stop-color="white"/>
<stop offset="1" stop-color="white"/>
</linearGradient>
<linearGradient id="paint7_linear_300_8" x1="85.0909" y1="61.7359" x2="85.0909" y2="128.236" gradientUnits="userSpaceOnUse">
<stop stop-color="#D9D9D9"/>
<stop offset="1" stop-color="white"/>
</linearGradient>
<linearGradient id="paint8_linear_300_8" x1="66.0007" y1="147.642" x2="64.2643" y2="137.794" gradientUnits="userSpaceOnUse">
<stop stop-color="#CF9460"/>
<stop offset="1" stop-color="#A46815"/>
</linearGradient>
<linearGradient id="paint9_linear_300_8" x1="63.9801" y1="98.7506" x2="79.2446" y2="96.059" gradientUnits="userSpaceOnUse">
<stop stop-color="#3E1206"/>
<stop offset="1" stop-color="#82220C"/>
</linearGradient>
<linearGradient id="paint10_linear_300_8" x1="44.1947" y1="118.994" x2="53.058" y2="117.431" gradientUnits="userSpaceOnUse">
<stop stop-color="#791503"/>
<stop offset="1" stop-color="#B16435"/>
</linearGradient>
</defs>
</svg>
