<svg width="121" height="169" viewBox="0 0 121 169" fill="none" xmlns="http://www.w3.org/2000/svg">
<path fill-rule="evenodd" clip-rule="evenodd" d="M52.7108 43.0044L51.8203 48.063L69.3806 51.1645L64.2964 80.0465L63.3648 85.3386L53.4115 141.88L58.4288 142.774L68.3994 86.1345L80.2214 88.2225L81.1219 83.1068L69.3474 81.0272L74.4501 52.0404L113.315 58.9147L114.134 53.7903C114.134 53.7903 76.8551 47.2108 75.3455 46.9542C78.0897 31.3651 78.7857 27.4116 81.5299 11.8225C82.3293 8.1207 77.2126 6.81087 76.446 11.028L70.2711 46.1059L52.7108 43.0044Z" fill="white"/>
<path fill-rule="evenodd" clip-rule="evenodd" d="M5.20271 151.513C35.356 156.852 65.5639 162.004 95.688 167.489C98.5339 167.766 101.342 163.976 102.115 159.589C102.897 155.146 102.316 150.223 98.3917 149.832C68.2251 144.517 38.4809 139.179 8.29295 133.959C5.15036 133.037 2.86151 136.207 1.86211 141.883C1.02899 146.614 2.15009 151.381 5.20271 151.513Z" fill="#FFFDFB"/>
<path fill-rule="evenodd" clip-rule="evenodd" d="M26.2803 137.096L42.1096 139.892C44.781 124.717 45.6241 119.312 48.3984 104.161C49.5239 98.0153 47.9726 99.6432 45.8582 96.7041C44.1278 94.299 44.1774 91.9231 44.9699 87.5449C47.9641 71.0038 52.9896 40.4199 56.6035 21.5979C54.7064 20.1363 48.9918 19.2482 46.9037 19.9409L26.2803 137.096Z" fill="white"/>
<path fill-rule="evenodd" clip-rule="evenodd" d="M89.9394 84.5309L89.0132 89.7878L102.451 92.1789L92.4857 148.789L97.3754 149.651L107.34 93.0425L108.267 87.7813C112.288 64.9371 116.393 41.6205 120.414 18.7764C121.218 14.7837 116.16 13.8726 115.526 17.9025L103.377 86.9177L89.9394 84.5309Z" fill="white"/>
<path fill-rule="evenodd" clip-rule="evenodd" d="M8.13677 133.892L12.9842 134.733L28.9489 44.0422L42.2389 46.3895C42.7943 43.2282 43.1822 41.0817 43.1822 41.0817C43.1822 41.0817 33.8238 39.4759 29.8755 38.7786C32.6207 23.1839 33.3336 19.1341 36.0789 3.5393C36.6558 -0.0703077 32.0223 -0.844696 31.2339 2.68403L25.0306 37.9229L24.104 43.1865L8.13677 133.892Z" fill="white"/>
<path fill-rule="evenodd" clip-rule="evenodd" d="M70.2507 144.862L82.5624 147.037L86.0222 127.111C86.2832 125.722 86.6089 125.204 86.0364 124.231C85.1684 122.756 83.4945 122.458 83.6851 120.287L91.6332 75.1802C90.3331 73.6637 84.4342 72.4614 82.8429 73.6876C78.5947 97.4029 74.4889 121.141 70.2507 144.862Z" fill="white"/>
</svg>
