<svg width="111" height="303" viewBox="0 0 111 303" fill="none" xmlns="http://www.w3.org/2000/svg">
<path fill-rule="evenodd" clip-rule="evenodd" d="M29.6815 33.3875C27.1581 30.1665 21.5878 27.1027 21.0026 36.6061C20.8836 40.3615 24.9293 41.9159 28.6389 41.8874C31.563 48.288 33.0103 54.0639 39.8356 57.4349C47.5446 61.2427 55.5609 60.9997 62.5475 55.4326C67.74 51.2951 69.3291 45.584 70.5491 39.4902C70.8695 37.8898 72.6254 27.2435 71.7652 26.5555C72.4702 23.1256 65.0105 23.5154 61.386 23.1256C55.6901 22.0433 54.9237 20.5108 51.2633 18.4443C51.0292 18.312 51.2416 18.4385 50.9995 18.2828C46.7469 15.5477 40.9081 18.1915 37.7913 17.2135C36.4496 18.6116 35.2381 27.4465 29.6815 33.3875Z" fill="url(#paint0_linear_618_261)"/>
<path fill-rule="evenodd" clip-rule="evenodd" d="M70.2854 38.5154C70.1725 39.1282 70.0594 39.7306 69.9337 40.3674C69.682 41.6405 69.3172 42.957 69 44L70.1158 43.7587C71.0824 43.8688 72.8361 42.8165 73.5022 42.3166C74.3825 41.6561 75.2118 40.7608 75.7131 39.4836C76.9343 36.3727 74.0123 34.2243 71.559 34C70.91 36.019 70.5901 36.5847 70.2854 38.5154Z" fill="#E1907F"/>
<path fill-rule="evenodd" clip-rule="evenodd" d="M22.2032 58.7239C22.4845 81.7873 12.7172 132.848 17.1607 132.893C34.6204 133.072 63.8815 132.973 68.9133 132.973C68.9133 132.973 74.3803 69.4707 67.6164 61.3809C65.194 60.8638 57.372 60.8638 57.372 60.8638C55.9917 69.0787 44.1121 66.6105 39.4659 59.0382C25.9775 56.9024 22.2032 58.7239 22.2032 58.7239Z" fill="url(#paint1_linear_618_261)"/>
<path fill-rule="evenodd" clip-rule="evenodd" d="M67 62C72.8333 70.3117 72.6719 74.7954 74 84H70.5C70.1111 77.7425 70.1111 69.3143 67 62Z" fill="#D9D9D9"/>
<path fill-rule="evenodd" clip-rule="evenodd" d="M54 230.028L60.3893 263L74.9976 261.661C75.0408 257.458 74.5013 233.887 73.5759 227L54 230.028Z" fill="url(#paint2_linear_618_261)"/>
<path fill-rule="evenodd" clip-rule="evenodd" d="M18 229L21.541 262.91C22.2783 263.02 34.6054 263.13 35.1716 262.582C35.9536 260.958 37.0936 233.972 36.9939 230.444L18 229Z" fill="url(#paint3_linear_618_261)"/>
<path fill-rule="evenodd" clip-rule="evenodd" d="M21 279H35.5312L36 284.5L25.6875 285C24.9399 283.703 24.1671 282.215 21 282.015V279Z" fill="url(#paint4_linear_618_261)"/>
<path fill-rule="evenodd" clip-rule="evenodd" d="M2.78087 293.612C1.26651 294.851 0.0501009 295.785 0 298.187C0.5358 299.672 0.173615 302.317 1.67169 302.605C10.8253 304.367 30.9753 299.688 38 299.209L37.4507 284.298C32.439 284.283 29.8356 284.894 26.0412 284.821C25.9759 284.718 25.9159 284.417 25.8887 284.485C25.8618 284.551 25.7739 284.231 25.7364 284.156C24.8306 282.357 25.6366 283.117 24.4658 282.526C23.6841 282.131 21.7025 282.009 20.7977 282C17.0308 289.13 6.49501 290.573 2.78087 293.612Z" fill="url(#paint5_linear_618_261)"/>
<path fill-rule="evenodd" clip-rule="evenodd" d="M75.0667 279L62 280.714L62.5276 284.341L72.6335 285C73.3036 283.693 73.6667 282.857 76 282.458L75.0667 279Z" fill="url(#paint6_linear_618_261)"/>
<path fill-rule="evenodd" clip-rule="evenodd" d="M72.3424 284.749L62.2112 284.018C61.0232 284.144 61.6725 283.882 61 284.423L61.0593 298.133C62.2589 298.781 90.823 302.147 98.0201 300.595C98.6134 300.467 98.7194 297.238 99 297.084C96.4552 281.92 81.0715 293.352 80.4959 282.274C77.8734 281.939 74.2248 281.534 72.9698 283.582L72.3424 284.749Z" fill="url(#paint7_linear_618_261)"/>
<path fill-rule="evenodd" clip-rule="evenodd" d="M54.8954 58.8869C54.8571 60.5256 57 61.0141 57 61.0141C57 68.5961 41.4892 67.0342 39 59.676C39 59.676 41.2831 58.5115 41.0276 57C41.0276 57 47.4771 60.3589 54.8954 58.8869Z" fill="#E1907F"/>
<path fill-rule="evenodd" clip-rule="evenodd" d="M23.6459 59C23.6459 59 13.9338 59.3832 10.4871 66.67C4.13774 78.1063 5.04482 90 5.04482 90L25 87.7127L23.6459 59Z" fill="url(#paint8_linear_618_261)"/>
<path fill-rule="evenodd" clip-rule="evenodd" d="M56.9952 46.9958C56.7509 46.7624 45.4782 44.055 44.264 44C43.3348 45.8764 44.8348 50.6583 49.1402 51.8712C51.6044 52.5655 57.1866 50.3836 56.9952 46.9958Z" fill="#EB4554"/>
<path fill-rule="evenodd" clip-rule="evenodd" d="M65.1371 29.0975C63.1443 29.3416 61.3623 30.4721 61 31.7894C62.5942 31.4022 63.5471 30.8627 65.6265 30.7281C67.8359 30.5853 69.001 31.2209 69.9059 32C70.13 30.9262 70.0171 29.9045 68.866 29.4097C67.9796 29.0283 66.2372 28.8874 65.1371 29.0975Z" fill="black"/>
<path fill-rule="evenodd" clip-rule="evenodd" d="M47.7512 47.7277C49.191 47.6149 49.0863 47.7703 49.7384 48.2544C49.8271 48.3201 50.4532 49.2492 50.4532 49.2492L49.9724 47.9506C51.4259 47.1686 54.8374 48.3131 56 49.2008C56 49.2008 53.9113 51.4679 51.3513 51.9219C48.08 52.502 45.88 49.751 45 47C45 47 46.9703 47.7889 47.7512 47.7277Z" fill="#85282B"/>
<path fill-rule="evenodd" clip-rule="evenodd" d="M24.0573 30.4108C26.664 30.5584 26.1316 30.7108 28.1408 32.2146C30.3985 33.9035 30.673 35.5895 30.8115 35.4899C31.2285 35.1904 32.4331 31.5819 32.6251 31.4995C35.435 26.0941 37.2105 23.9742 38.1839 17.5417C38.5609 17.607 39.3857 17.9871 39.8497 18.1366C42.0828 18.8562 44.4527 18.4729 46.653 18.3901C51.5761 18.2042 54.2068 21.9248 60.5293 23.8852C65.0198 25.2775 67.2383 25.5825 70.4534 25.663C71.069 26.9564 70.4252 31.5584 70.4534 33.2875L70.3442 38.1688L70.3113 39L71.6189 34.9817C71.9125 33.2295 72.6142 31.216 72.9794 29.3498C73.3854 27.2745 73.51 25.3078 73.8419 23.2746C78.8999 20.7089 77.2397 16.6897 73.3626 11.3113C70.3319 7.10723 65.946 4.08775 62.3551 2.2173C53.7817 -2.25355 34.2732 0.305042 29.1732 7.48281C28.986 7.74614 25.8067 7.98935 25.6006 5.71413C25.5683 5.35557 23.3289 7.5692 27.1688 9.71024C25.2878 9.0884 24.5862 9.16769 23 11.4788C23 11.4788 24.8188 10.3884 25.8901 11.5564C23.3734 20.2806 23.4554 25.4129 24.0573 30.4108Z" fill="url(#paint9_linear_618_261)"/>
<path fill-rule="evenodd" clip-rule="evenodd" d="M63.5 34C62.6716 34 62 34.8956 62 36.0001C62 37.1044 62.6716 38 63.5 38C64.3284 38 65 37.1044 65 36.0001C65 34.8956 64.3284 34 63.5 34Z" fill="black"/>
<path fill-rule="evenodd" clip-rule="evenodd" d="M45.5001 32C44.6716 32 44 32.8954 44 34C44 35.1045 44.6716 36 45.5001 36C46.3285 36 47 35.1045 47 34C47 32.8954 46.3285 32 45.5001 32Z" fill="black"/>
<path fill-rule="evenodd" clip-rule="evenodd" d="M16.8394 133L15 220.21V280H39L41.6715 221.266L44.8905 169.587L57.5 281.5L69 280L79 278.5L76.5 220.21L68.8029 133H16.8394Z" fill="url(#paint10_linear_618_261)"/>
<path d="M51 66.1111L39.3333 59.4444L37 59L47.2667 71L51 66.1111Z" fill="white"/>
<path d="M51 65.95L57.2222 61H59L55 70L51 65.95Z" fill="white"/>
<path d="M44 100.696L48.5833 68.2826L50.4167 66L52.7083 68.2826L55 100.696L49.9583 108L44 100.696Z" fill="#173475"/>
<path d="M16.6246 136.343L16.6246 133.153L69.2691 133.153L69.2691 136.343L16.6246 136.343Z" fill="#020202"/>
<path d="M54 37L54.866 40.75H53.134L54 37Z" fill="#E1907F"/>
<path fill-rule="evenodd" clip-rule="evenodd" d="M95.3458 142.988C78.4622 145.973 61.548 148.853 44.6807 151.919C43.0872 152.074 41.5147 149.955 41.0823 147.503C40.6444 145.019 40.9697 142.267 43.1669 142.049C60.0579 139.077 76.7125 136.094 93.6155 133.175C95.3751 132.66 96.6567 134.432 97.2163 137.605C97.6828 140.25 97.0551 142.915 95.3458 142.988Z" fill="url(#paint11_linear_618_261)"/>
<path fill-rule="evenodd" clip-rule="evenodd" d="M83.544 134.929L74.6807 136.492C73.185 128.009 72.7129 124.988 71.1595 116.519C70.5293 113.083 71.3979 113.993 72.5818 112.35C73.5507 111.006 73.5229 109.677 73.0792 107.23C71.4027 97.9836 68.5888 80.8872 66.5653 70.3657C67.6275 69.5487 70.8272 69.0522 71.9964 69.4395L83.544 134.929Z" fill="url(#paint12_linear_618_261)"/>
<path fill-rule="evenodd" clip-rule="evenodd" d="M68.7449 82.3319L69.2435 85.1597L59.4111 86.8934L62.2579 103.038C64.7242 102.673 65.1414 105.601 62.7795 105.997L68.3526 137.603L65.5433 138.103L59.9605 106.442L53.341 107.609L52.8368 104.749L59.4296 103.587L56.5725 87.383L34.3547 91.3C31.5559 91.6557 31.0214 88.9401 33.8521 88.4495C33.8521 88.4495 55.2259 84.6833 56.0712 84.5398C54.5346 75.8255 54.1449 73.6155 52.6084 64.9012C52.1607 62.8319 55.0257 62.0997 55.4549 64.4571L58.9124 84.0656L68.7449 82.3319Z" fill="#C78A2A"/>
<path fill-rule="evenodd" clip-rule="evenodd" d="M44.9042 151.902L47.8576 151.376C48.0927 152.709 48.2519 153.345 46.887 153.572L46.5677 153.629C45.2658 153.939 45.124 153.148 44.9042 151.902Z" fill="#C78A2A"/>
<path fill-rule="evenodd" clip-rule="evenodd" d="M92.175 143.562L95.1286 143.041C95.286 143.934 95.4743 144.982 94.1576 145.243L93.838 145.299C92.4315 145.495 92.3444 144.522 92.175 143.562Z" fill="#C78A2A"/>
<path fill-rule="evenodd" clip-rule="evenodd" d="M68.2374 103.801L66 90.2641L62.5 90.2641L62.5 110.5C68.5447 121.436 87.6834 122.591 89.5 126.264C89.9459 127.166 89.9077 127.515 89 129.264L87.5117 136.165C91.206 137.076 90.213 129.803 93.515 132.52C95.3622 133.431 94.983 139.574 96.7889 138.899C97.155 138.762 97.0261 133.526 96.7889 131.519C96.7889 131.519 98.636 139.81 100.021 139.81C101.407 139.81 99.6741 132.028 99.4076 131.129C99.4076 131.129 102.216 136.741 103.254 136.262C104.241 135.807 101.239 130.586 101.402 130.487L104.178 133.431C105.101 134.342 105.003 130.773 102.24 128.801C100.074 127.256 97.2537 124.306 95.5 123.264C94.711 123.158 77.935 111.092 68.2374 103.801Z" fill="url(#paint13_linear_618_261)"/>
<path fill-rule="evenodd" clip-rule="evenodd" d="M40 28.0733C41.5721 27.983 42.3663 27.4321 45.3208 27.8465C47.6288 28.1703 48.8665 28.957 49.9263 30C50.5845 27.4934 46.7341 24.8595 42.4049 26.519C41.8132 26.7457 41.6507 26.9385 41.138 27.2157C40.565 27.5253 40.4135 27.8355 40 28.0733Z" fill="black"/>
<path d="M28.5882 103.09L22.049 87.6817L7 92C7.76797 96.2046 11.8431 106.521 21.0588 113.008C30.2745 119.495 50 103.764 58.549 90.8699L59.5 90.2641L59.9314 89.9689L61 89.2641L62.2353 88.6174L63.1569 88.1669L64.0784 87.2659L64.5392 86.8154L65 84.5629C65 83.9623 65 83.2114 64.5392 82.3104C64.0447 81.3434 63.1569 80.8088 62.6961 81.4095C62.6961 81.8599 63.6176 82.7609 63.6176 83.2114C63.6176 84.1124 63.4641 84.5629 63.1569 85.0134C63.1569 84.5629 63.1569 83.2114 62.6961 82.3104C61.9295 80.8114 60.8529 80.058 59.9314 80.058C59.0098 80.058 60.8529 81.8599 61.3137 83.2114C61.7745 84.5629 61.3137 85.4639 61.3137 85.4639L60.8529 84.1124C60.3922 81.86 58.0882 79.6075 57.6274 80.058C57.3016 80.3765 57.4843 81.2328 58.5 83.2641C59 84.2641 59.0774 86.2136 59 86.2641C56.6874 87.7715 56.2451 85.4639 56.2451 84.1124C56.2451 82.255 56.1444 80.7641 55.5 80.7641C54.5 80.7641 54.5 82.2641 54.402 83.2114C54.3039 84.1588 54.402 85.4639 54.402 87.2658C54.402 87.9935 54.402 88.1669 53.0196 87.7164C52.4014 87.5149 48.4118 86.8154 48.4118 88.1669C48.4118 88.6174 51.1498 88.5978 53.0196 89.9688C54.8627 91.3203 45.5 95.7641 45.5 95.7641L28.5882 103.09Z" fill="url(#paint14_linear_618_261)"/>
<path fill-rule="evenodd" clip-rule="evenodd" d="M47.8996 105.545L48.4182 108.484L40.894 109.821L46.4738 141.466L43.736 141.947L38.1563 110.303C36.0054 110.51 35.5958 107.607 37.6377 107.362C35.386 94.5923 33.0878 81.5584 30.8361 68.7885C30.3859 66.5566 33.2182 66.0473 33.5728 68.3L40.3754 106.879L47.8996 105.545Z" fill="#C78A2A"/>
<path fill-rule="evenodd" clip-rule="evenodd" d="M58.9238 139.27L52.0302 140.486L50.0929 129.347C49.9468 128.571 49.7644 128.281 50.085 127.738C50.571 126.913 51.5083 126.746 51.4015 125.533L46.9512 100.318C47.6791 99.4704 50.9821 98.7983 51.8731 99.4837C54.2518 112.741 56.5507 126.01 58.9238 139.27Z" fill="url(#paint15_linear_618_261)"/>
<path d="M57.5152 92.8264L61.0152 96.8264L59.0152 86.8264L58.0152 86.3264H56.5152L57.5152 92.8264Z" fill="#C78A2A"/>
<path fill-rule="evenodd" clip-rule="evenodd" d="M93.703 133.138L90.9888 133.608L82.0498 82.9121L74.6084 84.2242C74.2974 82.4571 74.0802 81.2571 74.0802 81.2571C74.0802 81.2571 79.3202 80.3595 81.5309 79.9697C79.9938 71.2523 79.5946 68.9884 78.0575 60.271C77.7345 58.2532 80.3289 57.8203 80.7703 59.7929L84.2437 79.4914C86.6888 79.1883 86.7167 81.8837 84.7625 82.4338L93.703 133.138Z" fill="#C78A2A"/>
<defs>
<linearGradient id="paint0_linear_618_261" x1="46.5" y1="60" x2="46.5" y2="17" gradientUnits="userSpaceOnUse">
<stop stop-color="#EFAB96"/>
<stop offset="1" stop-color="#E69669"/>
</linearGradient>
<linearGradient id="paint1_linear_618_261" x1="43.5" y1="133" x2="43.5" y2="58" gradientUnits="userSpaceOnUse">
<stop stop-color="white"/>
<stop offset="0.270833" stop-color="#FCFCFC"/>
<stop offset="1" stop-color="#EFEFEF"/>
</linearGradient>
<linearGradient id="paint2_linear_618_261" x1="54" y1="245" x2="80.6435" y2="240.458" gradientUnits="userSpaceOnUse">
<stop stop-color="#FFC1A0"/>
<stop offset="1" stop-color="#FFF9F7"/>
</linearGradient>
<linearGradient id="paint3_linear_618_261" x1="20.85" y1="246.459" x2="36.0251" y2="244.008" gradientUnits="userSpaceOnUse">
<stop stop-color="#FFC1A0"/>
<stop offset="1" stop-color="#FEEEE5"/>
</linearGradient>
<linearGradient id="paint4_linear_618_261" x1="28.5" y1="285" x2="28.5" y2="279" gradientUnits="userSpaceOnUse">
<stop stop-color="white"/>
<stop offset="1" stop-color="#B5B4B4"/>
</linearGradient>
<linearGradient id="paint5_linear_618_261" x1="19" y1="303" x2="19" y2="282" gradientUnits="userSpaceOnUse">
<stop stop-color="#333333"/>
<stop offset="1"/>
</linearGradient>
<linearGradient id="paint6_linear_618_261" x1="69" y1="285" x2="69" y2="279" gradientUnits="userSpaceOnUse">
<stop stop-color="white"/>
<stop offset="1" stop-color="#B5B4B4"/>
</linearGradient>
<linearGradient id="paint7_linear_618_261" x1="80" y1="301" x2="80" y2="282" gradientUnits="userSpaceOnUse">
<stop stop-color="#333333"/>
<stop offset="1"/>
</linearGradient>
<linearGradient id="paint8_linear_618_261" x1="15" y1="90" x2="15" y2="59" gradientUnits="userSpaceOnUse">
<stop stop-color="#F4F4F4"/>
<stop offset="1" stop-color="white"/>
</linearGradient>
<linearGradient id="paint9_linear_618_261" x1="50" y1="39" x2="50" y2="0" gradientUnits="userSpaceOnUse">
<stop stop-color="#303030"/>
<stop offset="1" stop-color="#111111"/>
</linearGradient>
<linearGradient id="paint10_linear_618_261" x1="46.5" y1="267" x2="46.5" y2="133" gradientUnits="userSpaceOnUse">
<stop stop-color="#060F24"/>
<stop offset="0.635417" stop-color="#173475"/>
</linearGradient>
<linearGradient id="paint11_linear_618_261" x1="70.0159" y1="147.469" x2="68.2795" y2="137.621" gradientUnits="userSpaceOnUse">
<stop stop-color="#CF9460"/>
<stop offset="1" stop-color="#A46815"/>
</linearGradient>
<linearGradient id="paint12_linear_618_261" x1="67.9953" y1="98.5769" x2="83.2598" y2="95.8854" gradientUnits="userSpaceOnUse">
<stop stop-color="#3E1206"/>
<stop offset="1" stop-color="#82220C"/>
</linearGradient>
<linearGradient id="paint13_linear_618_261" x1="85.114" y1="87.7428" x2="76.2737" y2="138.554" gradientUnits="userSpaceOnUse">
<stop stop-color="#E69567"/>
<stop offset="1" stop-color="#EFAB96"/>
</linearGradient>
<linearGradient id="paint14_linear_618_261" x1="22.5" y1="66" x2="22.5" y2="113" gradientUnits="userSpaceOnUse">
<stop stop-color="#F0B3A0"/>
<stop offset="1" stop-color="#E69668"/>
</linearGradient>
<linearGradient id="paint15_linear_618_261" x1="48.2099" y1="118.82" x2="57.0732" y2="117.257" gradientUnits="userSpaceOnUse">
<stop stop-color="#791503"/>
<stop offset="1" stop-color="#B16435"/>
</linearGradient>
</defs>
</svg>
