<svg width="92" height="92" viewBox="0 0 92 92" fill="none" xmlns="http://www.w3.org/2000/svg">
<g filter="url(#filter0_b_6_370)">
<circle cx="46" cy="46" r="46" fill="url(#paint0_linear_6_370)"/>
</g>
<path d="M72.6502 15H60.3665C58.5168 15 57.0167 16.3878 57.0167 18.099V24.2427C56.7816 24.1475 56.5349 24.0782 56.282 24.0359L44.1851 22.0599C42.3647 21.7661 40.6301 22.8897 40.305 24.5731L37.9489 36.9357C37.7001 36.7793 37.4303 36.6551 37.146 36.5649L25.4636 33.0523C23.7038 32.5233 21.8145 33.4142 21.2427 35.0422L20.2217 37.9489C20.2217 37.9622 20.204 37.9716 20.1999 37.9849C20.1952 37.9987 20.1999 38.0132 20.1938 38.0265L9.16491 69.43C8.59308 71.0574 9.55612 72.8058 11.3152 73.3348L22.9977 76.8468C23.333 76.9483 23.684 76.9994 24.0364 77C25.486 76.9962 26.7701 76.1318 27.2186 74.8562L34.8758 53.0593L32.7432 64.2509L31.7727 69.338L31.3849 71.372C31.2309 72.1816 31.4299 73.0145 31.9397 73.6879C32.4488 74.3613 33.2271 74.8197 34.1022 74.9628L46.1984 76.9357C47.0735 77.0788 47.9746 76.8941 48.7025 76.4231C49.4304 75.9515 49.9258 75.232 50.0799 74.4224L51.4334 67.3008L57.0167 38.0277V73.8834C57.0167 75.5946 58.5168 76.9823 60.3665 76.9823H72.6502C74.4999 76.9823 76 75.5946 76 73.8834V18.099C76 16.3878 74.4999 15 72.6502 15ZM34.7477 65.6261L49.0405 67.9578L48.4591 71.0101L34.1656 68.6778L34.7477 65.6261ZM49.4317 65.9237L35.1382 63.5908L40.9546 33.0712L55.2481 35.4035L49.4317 65.9237ZM41.341 31.0372L41.9217 27.9842L56.2152 30.3172L55.6332 33.3682L41.341 31.0372ZM59.2502 26.3632H73.7665V65.6192H59.2502V26.3632ZM59.2502 21.198H73.7665V24.2976H59.2502V21.198ZM59.2502 67.6847H73.7665V70.7844H59.2502V67.6847ZM60.3665 17.0662H72.6502C73.267 17.0662 73.7665 17.5284 73.7665 18.099V19.1324H59.2502V18.099C59.2502 17.5284 59.7504 17.0662 60.3665 17.0662ZM43.6038 24.0794C43.6685 24.0788 43.7339 24.0839 43.798 24.0946L55.9003 26.0681C56.5069 26.1671 56.9124 26.7024 56.8061 27.2642L56.6112 28.2818L42.3102 25.9502L42.5003 24.9325C42.5951 24.4376 43.0606 24.0776 43.6038 24.0794ZM23.3664 35.6816C23.5573 35.1387 24.187 34.8417 24.7731 35.0183L36.4556 38.5303C37.0425 38.7068 37.3635 39.2894 37.1726 39.8323L36.4815 41.7951L22.6774 37.645L23.3664 35.6816ZM26.4784 70.2787L12.6722 66.1356L21.9876 39.6103L35.7911 43.7629L26.4784 70.2787ZM25.0948 74.2182C24.9047 74.7604 24.2742 75.0574 23.6881 74.8808L12.0056 71.3689C11.4195 71.1923 11.0992 70.6097 11.29 70.0675L11.9824 68.0984L25.7887 72.2459L25.0948 74.2182ZM46.5876 74.8997L34.4907 72.9269C33.8835 72.8272 33.4779 72.2919 33.5849 71.7301L33.7778 70.7131L48.0713 73.0454L47.8771 74.0618C47.7701 74.6223 47.1935 74.9968 46.5876 74.8997ZM72.6502 74.9161H60.3665C59.7504 74.9161 59.2502 74.454 59.2502 73.8834V72.8499H73.7665V73.8834C73.7665 74.454 73.267 74.9161 72.6502 74.9161Z" fill="#173475"/>
<path d="M69.3004 29.4628H63.7171C62.4835 29.4628 61.4836 30.3878 61.4836 31.5284V60.454C61.4836 61.5946 62.4835 62.5195 63.7171 62.5195H69.3004C70.5333 62.5195 71.5331 61.5946 71.5331 60.454V31.5284C71.5331 30.3878 70.5333 29.4628 69.3004 29.4628ZM63.7171 31.5284H69.3004V60.454H63.7171V31.5284Z" fill="black"/>
<path d="M25.0907 45.773C24.8086 45.6885 24.5019 45.7112 24.2381 45.8354C23.9744 45.9603 23.7747 46.1765 23.6833 46.4376L17.5753 63.843C17.3851 64.3859 17.7061 64.9684 18.2923 65.145C18.404 65.1778 18.5199 65.1954 18.6371 65.1954C19.1217 65.1954 19.5504 64.9067 19.6997 64.4804L25.8077 47.075C25.9979 46.5321 25.6769 45.9495 25.0907 45.773Z" fill="black"/>
<path d="M27.2124 55.3392C26.6256 55.1627 25.9959 55.4596 25.805 56.0025L22.5336 65.3304C22.3428 65.8733 22.6638 66.4558 23.2506 66.6324C23.3617 66.6658 23.4782 66.6828 23.5954 66.6828C24.0794 66.6828 24.508 66.3941 24.6573 65.9678L27.9294 56.6406C28.1196 56.0983 27.7986 55.5157 27.2124 55.3392Z" fill="black"/>
<path d="M51.1744 38.9344L43.4763 37.6784C42.869 37.5788 42.2897 37.954 42.182 38.5164C42.075 39.0782 42.4806 39.6141 43.0878 39.7131L50.786 40.9697C50.8507 40.9798 50.9161 40.9849 50.9816 40.9849C51.5609 40.9855 52.0441 40.5757 52.0945 40.0416C52.1443 39.5076 51.7449 39.0271 51.1744 38.9344Z" fill="black"/>
<path d="M50.3982 43.0038L42.7014 41.7484C42.3041 41.6753 41.8958 41.8064 41.6327 42.0914C41.3703 42.3764 41.2954 42.7705 41.4365 43.1217C41.5775 43.4729 41.9129 43.7257 42.3129 43.7825L50.0111 45.0385C50.0751 45.0492 50.1399 45.0542 50.2053 45.0542C50.7846 45.0542 51.2679 44.645 51.3183 44.111C51.3687 43.5769 50.9693 43.0959 50.3982 43.0038Z" fill="black"/>
<defs>
<filter id="filter0_b_6_370" x="-4" y="-4" width="100" height="100" filterUnits="userSpaceOnUse" color-interpolation-filters="sRGB">
<feFlood flood-opacity="0" result="BackgroundImageFix"/>
<feGaussianBlur in="BackgroundImageFix" stdDeviation="2"/>
<feComposite in2="SourceAlpha" operator="in" result="effect1_backgroundBlur_6_370"/>
<feBlend mode="normal" in="SourceGraphic" in2="effect1_backgroundBlur_6_370" result="shape"/>
</filter>
<linearGradient id="paint0_linear_6_370" x1="46" y1="0" x2="46" y2="92" gradientUnits="userSpaceOnUse">
<stop stop-color="#FCCC77"/>
<stop offset="1" stop-color="#FCCC77" stop-opacity="0"/>
</linearGradient>
</defs>
</svg>
