<svg width="164" height="108" viewBox="0 0 164 108" fill="none" xmlns="http://www.w3.org/2000/svg">
<path d="M140.196 55.5214C140.196 55.5214 129.972 45.7266 116.496 48.5256C116.496 48.5256 103.134 31.3477 94.6554 31.2736C86.1267 31.1995 72.8184 33.1396 77.9269 50.8598C77.9269 50.8598 86.2307 62.5643 93.2524 51.9949C100.274 41.4254 86.7443 36.9693 85.7138 43.0826C85.7138 43.0826 84.2672 50.3377 90.772 45.8816C90.772 45.8816 90.4632 49.7146 87.5733 49.5091C84.6801 49.3003 80.3435 45.4673 83.7503 41.2199C87.1605 36.9693 90.772 37.488 95.7295 41.4254C100.687 45.3629 109.672 56.3466 120.718 57.2796C120.718 57.2796 117.446 64.016 108.497 65.5688C99.5525 67.1249 97.8978 64.1205 90.772 69.9239C83.6496 75.7273 79.105 72.4096 79.105 72.4096C79.105 72.4096 78.8365 76.3471 76.8025 79.2505C76.8025 79.2505 89.6375 86.9199 98.5187 74.4811C98.5187 74.4811 115.66 74.6899 124.746 65.3633C133.835 56.0367 140.196 55.5214 140.196 55.5214Z" fill="url(#paint0_linear_830_5)"/>
<path d="M-3.8147e-05 45.2583C-3.8147e-05 45.2583 8.26355 33.6514 25.8178 39.8691C25.8178 39.8691 35.9375 30.9568 49.1552 34.0691C62.3729 37.1745 62.1682 33.035 66.5047 31.2701C70.8413 29.5085 76.4197 27.2316 83.8542 31.2701C83.8542 31.2701 76.8325 34.3789 75.9028 40.1824C75.9028 40.1824 67.3304 37.5922 60.7216 40.9065C54.1127 44.2209 49.9843 46.2957 41.9288 44.4297C33.8733 42.5637 28.2982 48.9903 28.2982 48.9903C28.2982 48.9903 37.3841 51.2705 44.1977 59.1454C51.0147 67.0203 48.9505 73.8612 53.6999 77.1755C58.4492 80.4932 67.5385 77.3843 68.1561 71.9952C68.7771 66.606 68.8811 64.0159 64.8534 62.9279C60.8256 61.84 54.8176 67.0068 61.1344 70.5435C61.1344 70.5435 58.6574 63.5477 64.2324 65.1038C69.8108 66.6599 65.6253 75.9832 61.2888 75.5183C56.9556 75.0535 53.5455 75.0535 52.6157 71.0117C51.686 66.9698 52.6157 57.2357 60.98 56.4306C69.3443 55.6223 78.3094 60.907 77.5542 70.0787C76.8023 79.2503 67.797 88.8868 58.3486 85.623C48.9001 82.3592 46.1109 75.6733 41.9288 69.3006C37.7466 62.9279 31.0841 61.84 24.5793 58.5762C18.0745 55.3124 18.3296 45.1539 -3.8147e-05 45.2583Z" fill="url(#paint1_linear_830_5)"/>
<path d="M116.821 58.5764C116.821 58.5764 104.745 57.219 98.6194 49.2498C98.6194 49.2498 94.595 60.0517 86.3079 58.5764C78.0208 57.1011 72.8317 48.7042 75.1544 43.0321C75.1544 43.0321 65.6254 40.1556 58.0398 45.5178C50.4475 50.8834 41.3079 44.5074 33.9506 48.6267C33.9506 48.6267 45.6478 53.0559 50.0582 63.1606C50.0582 63.1606 53.2334 53.0559 64.0009 53.2917C74.765 53.5241 80.3435 63.238 80.5751 68.6036C80.5751 68.6036 84.3712 70.4662 90.4128 66.2694C96.4511 62.0726 99.8612 62.9282 104.043 62.9282C108.226 62.9282 114.19 62.2276 116.821 58.5764Z" fill="url(#paint2_linear_830_5)"/>
<path d="M79.0009 27.3328C79.0009 27.3328 72.496 26.0866 70.2237 27.3328C70.2237 27.3328 68.5186 20.7513 59.9463 21.0612C59.9463 21.0612 60.1342 17.693 55.6265 17.5919C51.1188 17.4875 51.3269 20.8019 53.4918 21.2195C53.4918 21.2195 53.767 18.6799 55.6265 18.8853C57.4826 19.0942 59.1239 20.1282 57.3652 22.4085C55.6131 24.6921 51.3269 25.4163 48.9505 22.459C47.2589 20.3572 45.6478 14.6885 51.2228 12.0984C56.7979 9.50821 76.5741 5.10259 79.0009 27.3328Z" fill="url(#paint3_linear_830_5)"/>
<path d="M105.903 13.4962C105.903 13.4962 96.7632 14.5841 93.8196 17.3831C90.876 20.1821 86.3851 25.4668 80.0346 23.7557C80.0346 23.7557 79.5681 21.1151 78.5612 19.404C78.5612 19.404 85.7641 18.471 86.4623 14.3517C87.1604 10.2323 85.2237 8.912 83.287 7.82407C81.3504 6.73614 77.0138 9.37682 79.6453 11.5561C79.6453 11.5561 79.8769 9.7608 81.2732 9.9191C82.6661 10.0774 85.5325 12.4857 82.5889 14.6616C79.6453 16.8374 75.9297 16.0627 74.1474 13.4962C72.3651 10.9329 71.6704 6.34542 74.1474 3.15909C76.6245 -0.0272405 83.2099 -1.73492 86.8482 2.61681C90.49 6.96855 94.4405 9.13768 96.7632 9.9191C99.0859 10.7005 102.728 11.1653 105.903 13.4962Z" fill="url(#paint4_linear_830_5)"/>
<path d="M60.3625 8.13399C60.3625 8.13399 50.6725 9.43076 47.7624 12.7451C46.3829 14.318 43.1674 8.87837 39.4518 9.91915C35.7329 10.9566 33.1484 16.1369 37.4883 18.626C41.8249 21.1151 41.9289 17.9018 41.9289 17.9018C41.9289 17.9018 36.5955 18.9999 37.2802 14.793C37.9649 10.5861 43.1674 11.6841 44.3053 13.86C45.4398 16.0358 47.2992 20.7446 43.6843 24.0892C40.0694 27.4372 34.0815 24.6383 33.2525 20.9063C32.4268 17.1743 33.7694 14.5841 30.2585 10.7511C26.7477 6.91806 22.3071 3.18609 22.4111 1.94321C22.4111 1.94321 26.026 3.08167 29.9497 1.94321C33.8734 0.804754 37.2802 -0.545905 43.6843 3.2905C50.0851 7.12354 51.4646 4.03487 60.3625 8.13399Z" fill="url(#paint5_linear_830_5)"/>
<path d="M125.632 67.8532C125.632 67.8532 129.515 65.9549 131.162 62.7795C131.162 62.7795 135.94 59.4456 137.476 59.2583C137.476 59.2583 139.756 67.4095 149.51 67.8532C149.51 67.8532 156.34 78.4636 147.84 84.4937C139.338 90.5222 136.3 83.3722 138.121 80.2041C139.94 77.039 143.172 76.3943 143.906 79.1597C144.64 81.9175 143.219 82.5301 142.277 82.6141C142.277 82.6141 144.515 84.0016 145.676 80.276C146.837 76.5459 146.202 75.0097 141.928 73.4263C137.655 71.8474 138.469 70.5249 136.254 70.1355C134.037 69.749 128.41 66.5909 125.632 67.8532Z" fill="url(#paint6_linear_830_5)"/>
<path d="M92.4485 82.9786C92.4485 82.9786 104.22 85.1545 106.388 90.4392C108.556 95.7239 114.235 98.2097 118.055 98.2097C121.878 98.2097 126.422 101.511 126.731 104C127.043 106.486 134.902 109.229 138 105.5C141.098 101.768 143.734 102.757 149 104C154.266 105.246 163.634 94.3497 163.5 92.4096C163.5 92.4096 142.426 95.3097 139.227 92.4096C136.025 89.5062 134.27 85.9831 134.27 85.9831C134.27 85.9831 130.759 90.8535 125.597 89.5062C120.431 88.1589 118.985 84.3259 120.018 80.3884C121.052 76.451 125.285 76.3466 126.731 77.2796C128.178 78.2126 130.863 80.3884 128.487 82.8742C128.487 82.8742 128.591 79.9236 126.214 79.6912C123.841 79.4554 118.676 82.2544 123.22 86.6062C127.762 90.9579 134.787 84.9456 134.887 81.217C134.992 77.485 134.062 71.3717 129.108 71.0619C124.15 70.752 120.639 70.1289 113.205 77.2796C105.767 84.4303 101.947 77.3806 92.4485 82.9786Z" fill="url(#paint7_linear_830_5)"/>
<defs>
<linearGradient id="paint0_linear_830_5" x1="108.494" y1="31.2716" x2="108.494" y2="81.5891" gradientUnits="userSpaceOnUse">
<stop stop-color="white"/>
<stop offset="1" stop-color="white" stop-opacity="0"/>
</linearGradient>
<linearGradient id="paint1_linear_830_5" x1="41.9271" y1="29.0168" x2="41.9271" y2="86.2724" gradientUnits="userSpaceOnUse">
<stop stop-color="white"/>
<stop offset="1" stop-color="white" stop-opacity="0"/>
</linearGradient>
<linearGradient id="paint2_linear_830_5" x1="75.386" y1="42.2615" x2="75.386" y2="69.0155" gradientUnits="userSpaceOnUse">
<stop stop-color="white"/>
<stop offset="1" stop-color="white" stop-opacity="0"/>
</linearGradient>
<linearGradient id="paint3_linear_830_5" x1="63.1784" y1="9.9187" x2="63.1784" y2="27.3328" gradientUnits="userSpaceOnUse">
<stop stop-color="white"/>
<stop offset="1" stop-color="white" stop-opacity="0"/>
</linearGradient>
<linearGradient id="paint4_linear_830_5" x1="89.2213" y1="0" x2="89.2213" y2="24.0896" gradientUnits="userSpaceOnUse">
<stop stop-color="white"/>
<stop offset="1" stop-color="white" stop-opacity="0"/>
</linearGradient>
<linearGradient id="paint5_linear_830_5" x1="41.3859" y1="0.751282" x2="41.3859" y2="25.5863" gradientUnits="userSpaceOnUse">
<stop stop-color="white"/>
<stop offset="1" stop-color="white" stop-opacity="0"/>
</linearGradient>
<linearGradient id="paint6_linear_830_5" x1="128.722" y1="67.0253" x2="151.514" y2="80.1255" gradientUnits="userSpaceOnUse">
<stop stop-color="white"/>
<stop offset="1" stop-color="white" stop-opacity="0"/>
</linearGradient>
<linearGradient id="paint7_linear_830_5" x1="120.803" y1="70.8964" x2="120.803" y2="108" gradientUnits="userSpaceOnUse">
<stop stop-color="white"/>
<stop offset="1" stop-color="white" stop-opacity="0"/>
</linearGradient>
</defs>
</svg>
