<svg width="174" height="79" viewBox="0 0 174 79" fill="none" xmlns="http://www.w3.org/2000/svg">
<path d="M3.05176e-05 25.2908C3.05176e-05 25.2908 11.1469 36.9593 22.0436 37.2178C32.9402 37.481 34.715 43.7029 41.3021 49.9272C47.8916 56.1515 55.2386 58.7432 60.0556 55.6322C60.0556 55.6322 65.3753 47.8524 76.5245 51.4827C87.6737 55.113 85.3938 59.521 85.3938 59.521C85.3938 59.521 93.7557 55.3714 102.37 54.3352C110.987 53.2966 124.671 57.8706 134.808 44.3028C134.808 44.3028 116.302 47.3332 107.945 33.5899C99.5829 19.8442 86.6612 17.7694 76.5245 22.4383C66.3878 27.1047 55.2386 30.9958 50.6789 29.1795C50.6789 29.1795 52.9587 33.8483 59.5458 34.6261C66.1353 35.4038 70.9499 37.7394 76.5245 42.6667C82.0991 47.5916 91.9833 48.016 94.7706 44.3028C97.5555 40.5919 97.8104 33.5899 92.2358 31.7735C86.6612 29.9572 81.5917 34.3652 86.9138 37.2178C92.2358 40.0726 91.9833 36.4424 91.9833 36.4424C91.9833 36.4424 93.4916 41.7111 88.1765 39.8545C82.8614 37.9979 80.5792 38.5172 81.0866 30.9958C81.5917 23.4768 96.4735 26.8463 98.2831 31.5151C100.09 36.1815 102.898 44.4308 91.9833 48.8886C81.0658 53.3464 77.5393 48.2745 72.9772 44.3028C68.4152 40.3311 61.2581 37.4809 57.266 37.4809C53.2762 37.4809 44.9142 30.8654 42.8244 27.1711C42.8244 27.1711 53.8461 27.9489 62.588 23.8633C71.3299 19.7802 82.544 12.5837 92.2358 15.3058C101.928 18.0303 113.142 35.7287 119.791 38.6476C126.443 41.5641 138.037 43.314 141.077 41.953C141.077 41.953 134.238 55.9547 119.791 57.3181C105.35 58.6792 99.6478 54.5937 83.1139 65.0979C66.5801 75.5998 62.968 65.8757 65.0579 62.3758C67.1478 58.8736 72.0899 58.0959 73.6121 61.2092C73.6121 61.2092 67.9356 60.6236 68.5866 64.3202C69.24 68.0145 75.702 69.1811 79.5018 64.1234C83.3039 59.0681 80.6417 55.5682 75.132 54.4016C69.62 53.2326 58.5959 54.5937 55.746 63.929C52.8962 73.2666 62.7154 79.4909 70.5375 78.1299C78.3619 76.7665 83.9944 69.7644 98.2831 68.4034C112.572 67.0423 131.575 69.7644 139.937 59.6514C139.937 59.6514 162.933 58.8736 173.197 52.4549C173.197 52.4549 159.133 48.3694 155.141 41.7585C151.151 35.1454 147.919 30.8654 134.618 31.0622C121.314 31.2543 118.461 22.4691 111.239 14.7059C104.02 6.94268 88.8415 -5.69802 68.5866 2.85952C48.3341 11.4171 51.7539 13.9447 37.6923 14.3336C23.6284 14.7249 23.121 28.4658 3.05176e-05 25.2908Z" fill="url(#paint0_linear_18_322)"/>
<defs>
<linearGradient id="paint0_linear_18_322" x1="82.724" y1="-0.125145" x2="86.6292" y2="72.0424" gradientUnits="userSpaceOnUse">
<stop stop-color="white"/>
<stop offset="1" stop-color="white" stop-opacity="0"/>
</linearGradient>
</defs>
</svg>
