<svg width="1440" height="1024" viewBox="0 0 1440 1024" fill="none" xmlns="http://www.w3.org/2000/svg">
<g clip-path="url(#clip0_109_74)">
<rect width="1440" height="1024" fill="url(#paint0_linear_109_74)"/>
<path d="M-66 757.689C-66 757.689 -42.0583 776.462 -18.654 776.878C4.75027 777.302 8.56225 787.312 22.7103 797.326C36.8634 807.34 52.6437 811.51 62.9897 806.504C62.9897 806.504 74.4157 793.988 98.3624 799.828C122.309 805.669 117.412 812.761 117.412 812.761C117.412 812.761 135.372 806.085 153.875 804.418C172.382 802.747 201.773 810.106 223.545 788.277C223.545 788.277 183.798 793.152 165.848 771.041C147.888 748.927 120.134 745.588 98.3624 753.1C76.5904 760.608 52.6437 766.868 42.85 763.946C42.85 763.946 47.7468 771.457 61.8949 772.708C76.048 773.96 86.389 777.717 98.3624 785.645C110.336 793.568 131.565 794.251 137.552 788.277C143.534 782.307 144.081 771.041 132.108 768.119C120.134 765.197 109.246 772.289 120.677 776.878C132.108 781.471 131.565 775.631 131.565 775.631C131.565 775.631 134.805 784.107 123.389 781.12C111.973 778.133 107.071 778.969 108.161 766.868C109.246 754.771 141.21 760.192 145.096 767.703C148.978 775.211 155.009 788.483 131.565 795.655C108.116 802.827 100.542 794.667 90.7434 788.277C80.9448 781.887 65.5725 777.302 56.9981 777.302C48.4286 777.302 30.4686 766.658 25.9798 760.714C25.9798 760.714 49.6528 761.966 68.429 755.393C87.2052 748.824 111.291 737.245 132.108 741.625C152.924 746.008 177.01 774.482 191.293 779.178C205.58 783.871 230.482 786.686 237.011 784.496C237.011 784.496 222.321 807.023 191.293 809.217C160.274 811.407 148.027 804.833 112.515 821.733C77.0034 838.629 69.2451 822.985 73.7339 817.354C78.2227 811.719 88.8374 810.468 92.107 815.477C92.107 815.477 79.9147 814.535 81.313 820.482C82.7164 826.426 96.5957 828.303 104.757 820.165C112.923 812.032 107.206 806.401 95.3715 804.524C83.5325 802.644 59.8546 804.833 53.7335 819.853C47.6125 834.876 68.7027 844.89 85.5032 842.7C102.309 840.506 114.406 829.241 145.096 827.051C175.786 824.862 216.603 829.241 234.563 812.971C234.563 812.971 283.954 811.719 306 801.392C306 801.392 275.793 794.819 267.218 784.184C258.649 773.544 251.707 766.658 223.137 766.975C194.562 767.284 188.436 753.15 172.925 740.66C157.418 728.17 124.817 707.833 81.313 721.601C37.8139 735.368 45.1591 739.435 14.957 740.061C-15.2501 740.69 -16.3399 762.797 -66 757.689Z" fill="url(#paint1_linear_109_74)"/>
<path d="M-152 65.6893C-152 65.6893 -128.058 84.4623 -104.654 84.8781C-81.2497 85.3015 -77.4378 95.3118 -63.2897 105.326C-49.1366 115.34 -33.3563 119.51 -23.0103 114.504C-23.0103 114.504 -11.5843 101.988 12.3624 107.828C36.3091 113.669 31.4123 120.761 31.4123 120.761C31.4123 120.761 49.3723 114.085 67.8747 112.418C86.3822 110.747 115.773 118.106 137.545 96.2769C137.545 96.2769 97.7982 101.152 79.8481 79.0413C61.8881 56.9265 34.1344 53.5885 12.3624 61.1C-9.40961 68.6077 -33.3563 74.8679 -43.15 71.9457C-43.15 71.9457 -38.2532 79.4572 -24.1051 80.7084C-9.95205 81.9597 0.38903 85.7174 12.3624 93.6447C24.3357 101.568 45.5653 102.251 51.552 96.2769C57.5337 90.3067 58.0811 79.0413 46.1077 76.1191C34.1344 73.1969 23.2459 80.2888 34.6768 84.8781C46.1077 89.4712 45.5653 83.6306 45.5653 83.6306C45.5653 83.6306 48.805 92.1073 37.389 89.1202C25.973 86.1332 21.0712 86.9686 22.161 74.8679C23.2459 62.7709 55.2097 68.1918 59.0963 75.7033C62.9779 83.211 69.0094 96.4829 45.5653 103.655C22.1162 110.827 14.5421 102.667 4.74342 96.2769C-5.05522 89.887 -20.4275 85.3015 -29.0019 85.3015C-37.5714 85.3015 -55.5314 74.658 -60.0202 68.7145C-60.0202 68.7145 -36.3472 69.9657 -17.571 63.3927C1.20516 56.8235 25.2912 45.2454 46.1077 49.6248C66.9242 54.0081 91.0103 82.4823 105.293 87.1785C119.58 91.8708 144.482 94.6861 151.011 92.4964C151.011 92.4964 136.321 115.023 105.293 117.217C74.2745 119.407 62.0274 112.833 26.5154 129.733C-8.99657 146.629 -16.7549 130.985 -12.2661 125.354C-7.77733 119.719 2.83744 118.468 6.10697 123.477C6.10697 123.477 -6.08534 122.535 -4.68695 128.482C-3.2836 134.426 10.5957 136.303 18.7571 128.165C26.9235 120.032 21.2055 114.401 9.37153 112.524C-2.46746 110.644 -26.1454 112.833 -32.2665 127.853C-38.3875 142.876 -17.2973 152.89 -0.496779 150.7C16.3087 148.506 28.4065 137.241 59.0963 135.051C89.7861 132.862 130.603 137.241 148.563 120.971C148.563 120.971 197.954 119.719 220 109.392C220 109.392 189.793 102.819 181.218 92.1836C172.649 81.5439 165.707 74.658 137.137 74.9747C108.562 75.2837 102.436 61.1496 86.9246 48.6597C71.418 36.1698 38.8172 15.8327 -4.68695 29.6006C-48.1861 43.3684 -40.8409 47.4351 -71.043 48.0607C-101.25 48.6902 -102.34 70.7974 -152 65.6893Z" fill="url(#paint2_linear_109_74)"/>
<g clip-path="url(#clip1_109_74)">
<path d="M1350.72 144.472C1350.72 144.472 1327.4 125.336 1296.67 130.805C1296.67 130.805 1266.2 97.2441 1246.86 97.0994C1227.41 96.9546 1197.06 100.745 1208.71 135.365C1208.71 135.365 1227.65 158.232 1243.66 137.583C1259.67 116.933 1228.82 108.227 1226.47 120.171C1226.47 120.171 1223.17 134.345 1238 125.639C1238 125.639 1237.3 133.128 1230.71 132.726C1224.11 132.318 1214.22 124.83 1221.99 116.531C1229.77 108.227 1238 109.24 1249.31 116.933C1260.62 124.626 1281.11 146.085 1306.3 147.907C1306.3 147.907 1298.83 161.068 1278.43 164.102C1258.03 167.142 1254.25 161.272 1238 172.611C1221.76 183.949 1211.4 177.467 1211.4 177.467C1211.4 177.467 1210.79 185.16 1206.15 190.832C1206.15 190.832 1235.42 205.816 1255.67 181.514C1255.67 181.514 1294.76 181.922 1315.48 163.701C1336.21 145.479 1350.72 144.472 1350.72 144.472Z" fill="url(#paint3_linear_109_74)"/>
<path d="M1031 124.421C1031 124.421 1049.84 101.745 1089.88 113.892C1089.88 113.892 1112.96 96.4804 1143.1 102.561C1173.24 108.628 1172.77 100.541 1182.66 97.0925C1192.55 93.6509 1205.27 89.2025 1222.23 97.0925C1222.23 97.0925 1206.22 103.166 1204.1 114.505C1204.1 114.505 1184.55 109.444 1169.47 115.919C1154.4 122.395 1144.99 126.448 1126.62 122.802C1108.25 119.157 1095.53 131.713 1095.53 131.713C1095.53 131.713 1116.25 136.167 1131.79 151.553C1147.34 166.938 1142.63 180.303 1153.46 186.778C1164.29 193.26 1185.02 187.186 1186.43 176.657C1187.85 166.128 1188.08 161.068 1178.9 158.942C1169.71 156.817 1156.01 166.911 1170.42 173.821C1170.42 173.821 1164.77 160.153 1177.48 163.194C1190.2 166.234 1180.66 184.449 1170.77 183.54C1160.89 182.632 1153.11 182.632 1150.99 174.736C1148.87 166.839 1150.99 147.822 1170.06 146.249C1189.14 144.669 1209.58 154.994 1207.86 172.913C1206.15 190.832 1185.61 209.658 1164.06 203.282C1142.52 196.905 1136.16 183.843 1126.62 171.393C1117.08 158.942 1101.89 156.817 1087.05 150.441C1072.22 144.064 1072.8 124.217 1031 124.421Z" fill="url(#paint4_linear_109_74)"/>
<path d="M1297.41 150.441C1297.41 150.441 1269.87 147.789 1255.9 132.22C1255.9 132.22 1246.72 153.323 1227.82 150.441C1208.93 147.559 1197.09 131.154 1202.39 120.072C1202.39 120.072 1180.66 114.452 1163.36 124.928C1146.04 135.411 1125.2 122.954 1108.42 131.002C1108.42 131.002 1135.1 139.655 1145.16 159.397C1145.16 159.397 1152.4 139.655 1176.95 140.116C1201.5 140.57 1214.22 159.548 1214.75 170.031C1214.75 170.031 1223.41 173.67 1237.19 165.471C1250.96 157.271 1258.73 158.943 1268.27 158.943C1277.81 158.943 1291.41 157.574 1297.41 150.441Z" fill="url(#paint5_linear_109_74)"/>
<path d="M1211.16 89.4002C1211.16 89.4002 1196.33 86.9655 1191.14 89.4002C1191.14 89.4002 1187.26 76.5419 1167.71 77.1474C1167.71 77.1474 1168.14 70.5669 1157.86 70.3694C1147.58 70.1654 1148.05 76.6408 1152.99 77.4566C1152.99 77.4566 1153.62 72.495 1157.86 72.8963C1162.09 73.3044 1165.83 75.3246 1161.82 79.7796C1157.83 84.2411 1148.05 85.6559 1142.63 79.8783C1138.77 75.772 1135.1 64.697 1147.81 59.6367C1160.53 54.5762 1205.63 45.969 1211.16 89.4002Z" fill="url(#paint6_linear_109_74)"/>
<path d="M1272.51 62.3676C1272.51 62.3676 1251.67 64.493 1244.95 69.9614C1238.24 75.4298 1228 85.7546 1213.52 82.4116C1213.52 82.4116 1212.45 77.2526 1210.16 73.9097C1210.16 73.9097 1226.58 72.0869 1228.18 64.039C1229.77 55.9909 1225.35 53.4114 1220.93 51.2859C1216.52 49.1604 1206.63 54.3195 1212.63 58.5772C1212.63 58.5772 1213.16 55.0697 1216.34 55.379C1219.52 55.6882 1226.06 60.3934 1219.34 64.6444C1212.63 68.8953 1204.16 67.3817 1200.09 62.3676C1196.03 57.3596 1194.44 48.3971 1200.09 42.1719C1205.74 35.9468 1220.76 32.6105 1229.06 41.1125C1237.36 49.6145 1246.37 53.8523 1251.67 55.379C1256.96 56.9056 1265.27 57.8137 1272.51 62.3676Z" fill="url(#paint7_linear_109_74)"/>
<path d="M1168.66 51.8914C1168.66 51.8914 1146.56 54.4249 1139.92 60.9001C1136.78 63.9731 1129.44 53.3457 1120.97 55.3791C1112.49 57.4059 1106.59 67.5267 1116.49 72.3897C1126.38 77.2526 1126.62 70.9748 1126.62 70.9748C1126.62 70.9748 1114.46 73.1202 1116.02 64.9011C1117.58 56.6821 1129.44 58.8273 1132.04 63.0783C1134.62 67.3292 1138.87 76.5288 1130.62 83.0631C1122.38 89.6041 1108.72 84.1359 1106.83 76.8447C1104.95 69.5535 1108.01 64.493 1100 57.0045C1092 49.5158 1081.87 42.2247 1082.11 39.7964C1082.11 39.7964 1090.35 42.0207 1099.3 39.7964C1108.25 37.5722 1116.02 34.9335 1130.62 42.4287C1145.22 49.9173 1148.36 43.8829 1168.66 51.8914Z" fill="url(#paint8_linear_109_74)"/>
<path d="M1317.5 168.565C1317.5 168.565 1326.36 164.856 1330.11 158.653C1330.11 158.653 1341.01 152.139 1344.51 151.773C1344.51 151.773 1349.71 167.698 1371.96 168.565C1371.96 168.565 1387.53 189.295 1368.15 201.076C1348.76 212.854 1341.83 198.885 1345.98 192.695C1350.13 186.511 1357.5 185.252 1359.18 190.655C1360.85 196.043 1357.61 197.239 1355.46 197.404C1355.46 197.404 1360.56 200.114 1363.21 192.836C1365.86 185.548 1364.41 182.547 1354.67 179.453C1344.92 176.369 1346.78 173.785 1341.73 173.024C1336.67 172.269 1323.84 166.099 1317.5 168.565Z" fill="url(#paint9_linear_109_74)"/>
<path d="M1241.83 198.116C1241.83 198.116 1268.67 202.367 1273.62 212.691C1278.56 223.016 1291.51 227.873 1300.22 227.873C1308.94 227.873 1319.3 234.322 1320.01 239.185C1320.72 244.042 1338.64 249.401 1345.71 242.116C1352.77 234.825 1358.78 236.757 1370.79 239.185C1382.8 241.619 1404.17 220.331 1403.86 216.541C1403.86 216.541 1355.8 222.207 1348.51 216.541C1341.2 210.869 1337.2 203.986 1337.2 203.986C1337.2 203.986 1329.19 213.501 1317.42 210.869C1305.64 208.236 1302.34 200.748 1304.7 193.055C1307.06 185.363 1316.71 185.159 1320.01 186.981C1323.31 188.804 1329.43 193.055 1324.01 197.912C1324.01 197.912 1324.25 192.147 1318.83 191.693C1313.42 191.232 1301.64 196.701 1312 205.203C1322.36 213.705 1338.38 201.959 1338.61 194.674C1338.85 187.383 1336.73 175.439 1325.43 174.834C1314.12 174.228 1306.12 173.011 1289.16 186.981C1272.2 200.952 1263.49 187.179 1241.83 198.116Z" fill="url(#paint10_linear_109_74)"/>
</g>
<g clip-path="url(#clip2_109_74)">
<path d="M1094.72 316.472C1094.72 316.472 1071.4 297.336 1040.67 302.805C1040.67 302.805 1010.2 269.244 990.86 269.099C971.411 268.955 941.061 272.745 952.711 307.365C952.711 307.365 971.648 330.232 987.661 309.583C1003.67 288.933 972.819 280.227 970.469 292.171C970.469 292.171 967.17 306.345 982.004 297.639C982.004 297.639 981.3 305.128 974.71 304.726C968.112 304.318 958.222 296.83 965.992 288.531C973.768 280.227 982.004 281.24 993.31 288.933C1004.62 296.626 1025.11 318.085 1050.3 319.907C1050.3 319.907 1042.83 333.068 1022.43 336.102C1002.03 339.142 998.255 333.272 982.004 344.611C965.762 355.949 955.398 349.467 955.398 349.467C955.398 349.467 954.786 357.16 950.147 362.832C950.147 362.832 979.417 377.816 999.671 353.514C999.671 353.514 1038.76 353.922 1059.48 335.701C1080.21 317.479 1094.72 316.472 1094.72 316.472Z" fill="url(#paint11_linear_109_74)"/>
<path d="M775 296.421C775 296.421 793.845 273.745 833.877 285.892C833.877 285.892 856.955 268.48 887.098 274.561C917.241 280.628 916.774 272.541 926.663 269.093C936.553 265.651 949.274 261.202 966.229 269.093C966.229 269.093 950.216 275.166 948.095 286.505C948.095 286.505 928.546 281.444 913.475 287.919C898.403 294.395 888.989 298.448 870.618 294.802C852.248 291.157 839.534 303.713 839.534 303.713C839.534 303.713 860.254 308.167 875.792 323.553C891.338 338.938 886.631 352.303 897.462 358.778C908.293 365.26 929.021 359.186 930.429 348.657C931.845 338.128 932.083 333.068 922.897 330.942C913.712 328.817 900.011 338.911 914.416 345.821C914.416 345.821 908.768 332.153 921.481 335.194C934.203 338.234 924.658 356.449 914.768 355.54C904.887 354.632 897.11 354.632 894.989 346.736C892.869 338.839 894.989 319.822 914.064 318.249C933.139 316.669 953.584 326.994 951.861 344.913C950.147 362.832 929.61 381.658 908.063 375.282C886.516 368.905 880.155 355.843 870.618 343.393C861.081 330.942 845.887 328.817 831.053 322.441C816.219 316.064 816.8 296.217 775 296.421Z" fill="url(#paint12_linear_109_74)"/>
<path d="M1041.41 322.441C1041.41 322.441 1013.87 319.789 999.9 304.22C999.9 304.22 990.723 325.323 971.824 322.441C952.926 319.559 941.092 303.154 946.389 292.072C946.389 292.072 924.658 286.452 907.359 296.928C890.045 307.411 869.202 294.954 852.424 303.002C852.424 303.002 879.099 311.655 889.157 331.397C889.157 331.397 896.398 311.655 920.953 312.116C945.501 312.57 958.222 331.548 958.751 342.031C958.751 342.031 967.408 345.67 981.185 337.471C994.956 329.271 1002.73 330.943 1012.27 330.943C1021.81 330.943 1035.41 329.574 1041.41 322.441Z" fill="url(#paint13_linear_109_74)"/>
<path d="M955.161 261.4C955.161 261.4 940.326 258.966 935.144 261.4C935.144 261.4 931.256 248.542 911.707 249.147C911.707 249.147 912.135 242.567 901.856 242.369C891.576 242.165 892.05 248.641 896.987 249.457C896.987 249.457 897.615 244.495 901.856 244.896C906.088 245.304 909.831 247.325 905.821 251.78C901.825 256.241 892.05 257.656 886.631 251.878C882.773 247.772 879.099 236.697 891.813 231.637C904.527 226.576 949.626 217.969 955.161 261.4Z" fill="url(#paint14_linear_109_74)"/>
<path d="M1016.51 234.368C1016.51 234.368 995.667 236.493 988.954 241.961C982.242 247.43 972 257.755 957.518 254.412C957.518 254.412 956.454 249.253 954.158 245.91C954.158 245.91 970.584 244.087 972.176 236.039C973.768 227.991 969.352 225.411 964.935 223.286C960.519 221.16 950.629 226.32 956.63 230.577C956.63 230.577 957.158 227.07 960.343 227.379C963.519 227.688 970.056 232.393 963.343 236.644C956.63 240.895 948.157 239.382 944.092 234.368C940.028 229.36 938.443 220.397 944.092 214.172C949.741 207.947 964.759 204.61 973.056 213.112C981.361 221.614 990.37 225.852 995.667 227.379C1000.96 228.906 1009.27 229.814 1016.51 234.368Z" fill="url(#paint15_linear_109_74)"/>
<path d="M912.656 223.891C912.656 223.891 890.558 226.425 883.922 232.9C880.776 235.973 873.443 225.346 864.969 227.379C856.488 229.406 850.594 239.527 860.492 244.39C870.381 249.253 870.618 242.975 870.618 242.975C870.618 242.975 858.456 245.12 860.017 236.901C861.578 228.682 873.443 230.827 876.038 235.078C878.625 239.329 882.865 248.529 874.621 255.063C866.378 261.604 852.722 256.136 850.832 248.845C848.949 241.553 852.011 236.493 844.004 229.004C835.998 221.516 825.871 214.225 826.108 211.796C826.108 211.796 834.352 214.021 843.3 211.796C852.248 209.572 860.017 206.933 874.621 214.429C889.218 221.917 892.364 215.883 912.656 223.891Z" fill="url(#paint16_linear_109_74)"/>
<path d="M1061.5 340.565C1061.5 340.565 1070.36 336.856 1074.11 330.653C1074.11 330.653 1085.01 324.139 1088.51 323.773C1088.51 323.773 1093.71 339.698 1115.96 340.565C1115.96 340.565 1131.53 361.295 1112.15 373.076C1092.76 384.854 1085.83 370.885 1089.98 364.695C1094.13 358.511 1101.5 357.252 1103.18 362.655C1104.85 368.043 1101.61 369.239 1099.46 369.404C1099.46 369.404 1104.56 372.114 1107.21 364.836C1109.86 357.548 1108.41 354.547 1098.67 351.453C1088.92 348.369 1090.78 345.785 1085.73 345.024C1080.67 344.269 1067.84 338.099 1061.5 340.565Z" fill="url(#paint17_linear_109_74)"/>
<path d="M985.828 370.116C985.828 370.116 1012.67 374.367 1017.62 384.691C1022.56 395.016 1035.51 399.873 1044.22 399.873C1052.94 399.873 1063.3 406.322 1064.01 411.185C1064.72 416.042 1082.64 421.401 1089.71 414.116C1096.77 406.825 1102.78 408.757 1114.79 411.185C1126.8 413.619 1148.17 392.331 1147.86 388.541C1147.86 388.541 1099.8 394.207 1092.51 388.541C1085.2 382.869 1081.2 375.986 1081.2 375.986C1081.2 375.986 1073.19 385.501 1061.42 382.869C1049.64 380.236 1046.34 372.748 1048.7 365.055C1051.06 357.363 1060.71 357.159 1064.01 358.981C1067.31 360.804 1073.43 365.055 1068.01 369.912C1068.01 369.912 1068.25 364.147 1062.83 363.693C1057.42 363.232 1045.64 368.701 1056 377.203C1066.36 385.705 1082.38 373.959 1082.61 366.674C1082.85 359.383 1080.73 347.439 1069.43 346.834C1058.12 346.228 1050.12 345.011 1033.16 358.981C1016.2 372.952 1007.49 359.179 985.828 370.116Z" fill="url(#paint18_linear_109_74)"/>
</g>
<g clip-path="url(#clip3_109_74)">
<path d="M720.715 133.472C720.715 133.472 697.4 114.336 666.668 119.805C666.668 119.805 636.196 86.2441 616.86 86.0994C597.411 85.9546 567.061 89.745 578.711 124.365C578.711 124.365 597.648 147.232 613.661 126.583C629.674 105.933 598.819 97.2271 596.469 109.171C596.469 109.171 593.17 123.345 608.004 114.639C608.004 114.639 607.3 122.128 600.71 121.726C594.112 121.318 584.222 113.83 591.992 105.531C599.768 97.2271 608.004 98.2405 619.31 105.933C630.615 113.626 651.106 135.085 676.296 136.907C676.296 136.907 668.834 150.068 648.426 153.102C628.028 156.142 624.255 150.272 608.004 161.611C591.762 172.949 581.398 166.467 581.398 166.467C581.398 166.467 580.786 174.16 576.147 179.832C576.147 179.832 605.417 194.816 625.671 170.514C625.671 170.514 664.761 170.922 685.482 152.701C706.209 134.479 720.715 133.472 720.715 133.472Z" fill="url(#paint19_linear_109_74)"/>
<path d="M401 113.421C401 113.421 419.845 90.7449 459.877 102.892C459.877 102.892 482.955 85.4804 513.098 91.5609C543.241 97.628 542.774 89.5406 552.663 86.0925C562.553 82.6509 575.274 78.2025 592.228 86.0925C592.228 86.0925 576.216 92.1662 574.095 103.505C574.095 103.505 554.546 98.444 539.475 104.919C524.403 111.395 514.989 115.448 496.618 111.802C478.248 108.157 465.534 120.713 465.534 120.713C465.534 120.713 486.254 125.167 501.792 140.553C517.338 155.938 512.631 169.303 523.462 175.778C534.293 182.26 555.021 176.186 556.429 165.657C557.845 155.128 558.083 150.068 548.897 147.942C539.712 145.817 526.011 155.911 540.416 162.821C540.416 162.821 534.767 149.153 547.481 152.194C560.203 155.234 550.658 173.449 540.768 172.54C530.887 171.632 523.11 171.632 520.989 163.736C518.869 155.839 520.989 136.822 540.064 135.249C559.139 133.669 579.584 143.994 577.861 161.913C576.147 179.832 555.61 198.658 534.063 192.282C512.516 185.905 506.155 172.843 496.618 160.393C487.081 147.942 471.887 145.817 457.053 139.441C442.219 133.064 442.8 113.217 401 113.421Z" fill="url(#paint20_linear_109_74)"/>
<path d="M667.409 139.441C667.409 139.441 639.87 136.789 625.9 121.22C625.9 121.22 616.723 142.323 597.824 139.441C578.925 136.559 567.092 120.154 572.389 109.072C572.389 109.072 550.658 103.452 533.359 113.928C516.045 124.411 495.202 111.954 478.424 120.002C478.424 120.002 505.099 128.655 515.157 148.397C515.157 148.397 522.398 128.655 546.953 129.116C571.501 129.57 584.222 148.548 584.751 159.031C584.751 159.031 593.407 162.67 607.185 154.471C620.956 146.271 628.732 147.943 638.269 147.943C647.808 147.943 661.409 146.574 667.409 139.441Z" fill="url(#paint21_linear_109_74)"/>
<path d="M581.161 78.4002C581.161 78.4002 566.326 75.9655 561.144 78.4002C561.144 78.4002 557.256 65.5419 537.707 66.1474C537.707 66.1474 538.135 59.5669 527.856 59.3694C517.576 59.1654 518.05 65.6408 522.987 66.4566C522.987 66.4566 523.615 61.495 527.856 61.8963C532.088 62.3044 535.831 64.3246 531.821 68.7796C527.825 73.2411 518.05 74.6559 512.631 68.8783C508.773 64.772 505.099 53.697 517.813 48.6367C530.527 43.5762 575.626 34.969 581.161 78.4002Z" fill="url(#paint22_linear_109_74)"/>
<path d="M642.511 51.3676C642.511 51.3676 621.667 53.493 614.954 58.9614C608.242 64.4298 598 74.7546 583.518 71.4116C583.518 71.4116 582.454 66.2526 580.158 62.9097C580.158 62.9097 596.584 61.0869 598.176 53.039C599.768 44.9909 595.352 42.4114 590.935 40.2859C586.519 38.1604 576.629 43.3195 582.63 47.5772C582.63 47.5772 583.158 44.0697 586.343 44.379C589.519 44.6882 596.056 49.3934 589.343 53.6444C582.63 57.8953 574.157 56.3817 570.092 51.3676C566.028 46.3596 564.443 37.3971 570.092 31.1719C575.741 24.9468 590.759 21.6105 599.056 30.1125C607.361 38.6145 616.37 42.8523 621.667 44.379C626.964 45.9056 635.27 46.8137 642.511 51.3676Z" fill="url(#paint23_linear_109_74)"/>
<path d="M538.656 40.8914C538.656 40.8914 516.558 43.4249 509.922 49.9001C506.776 52.9731 499.443 42.3457 490.969 44.3791C482.488 46.4059 476.595 56.5267 486.492 61.3897C496.381 66.2526 496.618 59.9748 496.618 59.9748C496.618 59.9748 484.456 62.1202 486.017 53.9011C487.578 45.6821 499.443 47.8273 502.038 52.0783C504.625 56.3292 508.865 65.5288 500.622 72.0631C492.378 78.6041 478.722 73.1359 476.832 65.8447C474.949 58.5535 478.011 53.493 470.004 46.0045C461.998 38.5158 451.871 31.2247 452.108 28.7964C452.108 28.7964 460.352 31.0207 469.3 28.7964C478.248 26.5722 486.017 23.9335 500.622 31.4287C515.218 38.9173 518.364 32.8829 538.656 40.8914Z" fill="url(#paint24_linear_109_74)"/>
<path d="M687.502 157.565C687.502 157.565 696.357 153.856 700.113 147.653C700.113 147.653 711.009 141.139 714.512 140.773C714.512 140.773 719.712 156.698 741.956 157.565C741.956 157.565 757.531 178.295 738.147 190.076C718.759 201.854 711.83 187.885 715.983 181.695C720.131 175.511 727.502 174.252 729.176 179.655C730.85 185.043 727.609 186.239 725.461 186.404C725.461 186.404 730.565 189.114 733.212 181.836C735.86 174.548 734.412 171.547 724.665 168.453C714.921 165.369 716.777 162.785 711.726 162.024C706.67 161.269 693.837 155.099 687.502 157.565Z" fill="url(#paint25_linear_109_74)"/>
<path d="M611.828 187.116C611.828 187.116 638.672 191.367 643.617 201.691C648.561 212.016 661.512 216.873 670.223 216.873C678.941 216.873 689.304 223.322 690.009 228.185C690.72 233.042 708.642 238.401 715.707 231.116C722.772 223.825 728.784 225.757 740.793 228.185C752.802 230.619 774.165 209.331 773.86 205.541C773.86 205.541 725.801 211.207 718.506 205.541C711.203 199.869 707.201 192.986 707.201 192.986C707.201 192.986 699.194 202.501 687.422 199.869C675.641 197.236 672.344 189.748 674.7 182.055C677.058 174.363 686.711 174.159 690.009 175.981C693.308 177.804 699.431 182.055 694.013 186.912C694.013 186.912 694.25 181.147 688.829 180.693C683.418 180.232 671.639 185.701 682.002 194.203C692.36 202.705 708.38 190.959 708.608 183.674C708.848 176.383 706.727 164.439 695.429 163.834C684.123 163.228 676.116 162.011 659.163 175.981C642.2 189.952 633.489 176.179 611.828 187.116Z" fill="url(#paint26_linear_109_74)"/>
</g>
<g clip-path="url(#clip4_109_74)">
<path d="M691.715 430.472C691.715 430.472 668.4 411.336 637.668 416.805C637.668 416.805 607.196 383.244 587.86 383.099C568.411 382.955 538.061 386.745 549.711 421.365C549.711 421.365 568.648 444.232 584.661 423.583C600.674 402.933 569.819 394.227 567.469 406.171C567.469 406.171 564.17 420.345 579.004 411.639C579.004 411.639 578.3 419.128 571.71 418.726C565.112 418.318 555.222 410.83 562.992 402.531C570.768 394.227 579.004 395.24 590.31 402.933C601.615 410.626 622.106 432.085 647.296 433.907C647.296 433.907 639.834 447.068 619.426 450.102C599.028 453.142 595.255 447.272 579.004 458.611C562.762 469.949 552.398 463.467 552.398 463.467C552.398 463.467 551.786 471.16 547.147 476.832C547.147 476.832 576.417 491.816 596.671 467.514C596.671 467.514 635.761 467.922 656.482 449.701C677.209 431.479 691.715 430.472 691.715 430.472Z" fill="url(#paint27_linear_109_74)"/>
<path d="M372 410.421C372 410.421 390.845 387.745 430.877 399.892C430.877 399.892 453.955 382.48 484.098 388.561C514.241 394.628 513.774 386.541 523.663 383.093C533.553 379.651 546.274 375.202 563.228 383.093C563.228 383.093 547.216 389.166 545.095 400.505C545.095 400.505 525.546 395.444 510.475 401.919C495.403 408.395 485.989 412.448 467.618 408.802C449.248 405.157 436.534 417.713 436.534 417.713C436.534 417.713 457.254 422.167 472.792 437.553C488.338 452.938 483.631 466.303 494.462 472.778C505.293 479.26 526.021 473.186 527.429 462.657C528.845 452.128 529.083 447.068 519.897 444.942C510.712 442.817 497.011 452.911 511.416 459.821C511.416 459.821 505.767 446.153 518.481 449.194C531.203 452.234 521.658 470.449 511.768 469.54C501.887 468.632 494.11 468.632 491.989 460.736C489.869 452.839 491.989 433.822 511.064 432.249C530.139 430.669 550.584 440.994 548.861 458.913C547.147 476.832 526.61 495.658 505.063 489.282C483.516 482.905 477.155 469.843 467.618 457.393C458.081 444.942 442.887 442.817 428.053 436.441C413.219 430.064 413.8 410.217 372 410.421Z" fill="url(#paint28_linear_109_74)"/>
<path d="M638.409 436.441C638.409 436.441 610.87 433.789 596.9 418.22C596.9 418.22 587.723 439.323 568.824 436.441C549.925 433.559 538.092 417.154 543.389 406.072C543.389 406.072 521.658 400.452 504.359 410.928C487.045 421.411 466.202 408.954 449.424 417.002C449.424 417.002 476.099 425.655 486.157 445.397C486.157 445.397 493.398 425.655 517.953 426.116C542.501 426.57 555.222 445.548 555.751 456.031C555.751 456.031 564.407 459.67 578.185 451.471C591.956 443.271 599.732 444.943 609.269 444.943C618.808 444.943 632.409 443.574 638.409 436.441Z" fill="url(#paint29_linear_109_74)"/>
<path d="M552.161 375.4C552.161 375.4 537.326 372.966 532.144 375.4C532.144 375.4 528.256 362.542 508.707 363.147C508.707 363.147 509.135 356.567 498.856 356.369C488.576 356.165 489.05 362.641 493.987 363.457C493.987 363.457 494.615 358.495 498.856 358.896C503.088 359.304 506.831 361.325 502.821 365.78C498.825 370.241 489.05 371.656 483.631 365.878C479.773 361.772 476.099 350.697 488.813 345.637C501.527 340.576 546.626 331.969 552.161 375.4Z" fill="url(#paint30_linear_109_74)"/>
<path d="M613.511 348.368C613.511 348.368 592.667 350.493 585.954 355.961C579.242 361.43 569 371.755 554.518 368.412C554.518 368.412 553.454 363.253 551.158 359.91C551.158 359.91 567.584 358.087 569.176 350.039C570.768 341.991 566.352 339.411 561.935 337.286C557.519 335.16 547.629 340.32 553.63 344.577C553.63 344.577 554.158 341.07 557.343 341.379C560.519 341.688 567.056 346.393 560.343 350.644C553.63 354.895 545.157 353.382 541.092 348.368C537.028 343.36 535.443 334.397 541.092 328.172C546.741 321.947 561.759 318.61 570.056 327.112C578.361 335.614 587.37 339.852 592.667 341.379C597.964 342.906 606.27 343.814 613.511 348.368Z" fill="url(#paint31_linear_109_74)"/>
<path d="M509.656 337.891C509.656 337.891 487.558 340.425 480.922 346.9C477.776 349.973 470.443 339.346 461.969 341.379C453.488 343.406 447.595 353.527 457.492 358.39C467.381 363.253 467.618 356.975 467.618 356.975C467.618 356.975 455.456 359.12 457.017 350.901C458.578 342.682 470.443 344.827 473.038 349.078C475.625 353.329 479.865 362.529 471.622 369.063C463.378 375.604 449.722 370.136 447.832 362.845C445.949 355.553 449.011 350.493 441.004 343.004C432.998 335.516 422.871 328.225 423.108 325.796C423.108 325.796 431.352 328.021 440.3 325.796C449.248 323.572 457.017 320.933 471.622 328.429C486.218 335.917 489.364 329.883 509.656 337.891Z" fill="url(#paint32_linear_109_74)"/>
<path d="M658.502 454.565C658.502 454.565 667.357 450.856 671.113 444.653C671.113 444.653 682.009 438.139 685.512 437.773C685.512 437.773 690.712 453.698 712.956 454.565C712.956 454.565 728.531 475.295 709.147 487.076C689.759 498.854 682.83 484.885 686.983 478.695C691.131 472.511 698.502 471.252 700.176 476.655C701.85 482.043 698.609 483.239 696.461 483.403C696.461 483.403 701.565 486.114 704.212 478.836C706.86 471.548 705.412 468.547 695.665 465.453C685.921 462.369 687.777 459.785 682.726 459.024C677.67 458.269 664.837 452.099 658.502 454.565Z" fill="url(#paint33_linear_109_74)"/>
<path d="M582.828 484.116C582.828 484.116 609.672 488.367 614.617 498.691C619.561 509.016 632.512 513.873 641.223 513.873C649.941 513.873 660.304 520.322 661.009 525.185C661.72 530.042 679.642 535.401 686.707 528.116C693.772 520.825 699.784 522.757 711.793 525.185C723.802 527.619 745.165 506.331 744.86 502.541C744.86 502.541 696.801 508.207 689.506 502.541C682.203 496.869 678.201 489.986 678.201 489.986C678.201 489.986 670.194 499.501 658.422 496.869C646.641 494.236 643.344 486.748 645.7 479.055C648.058 471.363 657.711 471.159 661.009 472.981C664.308 474.804 670.431 479.055 665.013 483.912C665.013 483.912 665.25 478.147 659.829 477.693C654.418 477.232 642.639 482.701 653.002 491.203C663.36 499.705 679.38 487.959 679.608 480.674C679.848 473.383 677.727 461.439 666.429 460.834C655.123 460.228 647.116 459.011 630.163 472.981C613.2 486.952 604.489 473.179 582.828 484.116Z" fill="url(#paint34_linear_109_74)"/>
</g>
<g clip-path="url(#clip5_109_74)">
<path d="M1554.13 486.501C1554.13 486.501 1530.57 467.183 1499.51 472.703C1499.51 472.703 1468.71 438.825 1449.17 438.678C1429.51 438.532 1398.84 442.359 1410.61 477.307C1410.61 477.307 1429.75 500.391 1445.94 479.546C1462.12 458.7 1430.94 449.912 1428.56 461.968C1428.56 461.968 1425.23 476.277 1440.22 467.489C1440.22 467.489 1439.51 475.048 1432.85 474.643C1426.18 474.231 1416.18 466.672 1424.03 458.295C1431.89 449.912 1440.22 450.935 1451.64 458.7C1463.07 466.466 1483.78 488.128 1509.24 489.968C1509.24 489.968 1501.7 503.254 1481.07 506.316C1460.46 509.385 1456.64 503.46 1440.22 514.905C1423.8 526.351 1413.33 519.808 1413.33 519.808C1413.33 519.808 1412.71 527.573 1408.02 533.3C1408.02 533.3 1437.6 548.425 1458.07 523.893C1458.07 523.893 1497.58 524.305 1518.52 505.911C1539.47 487.517 1554.13 486.501 1554.13 486.501Z" fill="url(#paint35_linear_109_74)"/>
<path d="M1231 466.259C1231 466.259 1250.05 443.368 1290.51 455.631C1290.51 455.631 1313.83 438.054 1344.3 444.192C1374.76 450.316 1374.29 442.152 1384.29 438.672C1394.28 435.197 1407.14 430.707 1424.27 438.672C1424.27 438.672 1408.09 444.803 1405.95 456.249C1405.95 456.249 1386.19 451.14 1370.96 457.677C1355.72 464.213 1346.21 468.305 1327.64 464.625C1309.07 460.945 1296.22 473.62 1296.22 473.62C1296.22 473.62 1317.17 478.117 1332.87 493.648C1348.58 509.179 1343.82 522.671 1354.77 529.207C1365.72 535.75 1386.67 529.619 1388.09 518.991C1389.52 508.362 1389.76 503.254 1380.48 501.108C1371.2 498.962 1357.35 509.152 1371.91 516.127C1371.91 516.127 1366.2 502.33 1379.05 505.399C1391.91 508.468 1382.26 526.856 1372.26 525.939C1362.28 525.022 1354.42 525.022 1352.27 517.051C1350.13 509.079 1352.27 489.882 1371.55 488.294C1390.83 486.7 1411.49 497.122 1409.75 515.211C1408.02 533.299 1387.26 552.305 1365.49 545.868C1343.71 539.431 1337.28 526.245 1327.64 513.676C1318 501.108 1302.65 498.962 1287.65 492.525C1272.66 486.088 1273.25 466.054 1231 466.259Z" fill="url(#paint36_linear_109_74)"/>
<path d="M1500.26 492.526C1500.26 492.526 1472.42 489.849 1458.31 474.132C1458.31 474.132 1449.03 495.435 1429.93 492.526C1410.83 489.616 1398.87 473.056 1404.22 461.869C1404.22 461.869 1382.26 456.196 1364.77 466.771C1347.28 477.353 1326.21 464.779 1309.25 472.903C1309.25 472.903 1336.21 481.638 1346.38 501.567C1346.38 501.567 1353.7 481.638 1378.51 482.103C1403.32 482.561 1416.18 501.719 1416.72 512.302C1416.72 512.302 1425.47 515.975 1439.39 507.698C1453.31 499.421 1461.17 501.108 1470.81 501.108C1480.45 501.108 1494.19 499.727 1500.26 492.526Z" fill="url(#paint37_linear_109_74)"/>
<path d="M1413.09 430.906C1413.09 430.906 1398.09 428.449 1392.86 430.906C1392.86 430.906 1388.93 417.926 1369.17 418.537C1369.17 418.537 1369.6 411.895 1359.21 411.695C1348.82 411.489 1349.3 418.026 1354.29 418.85C1354.29 418.85 1354.93 413.841 1359.21 414.246C1363.49 414.658 1367.27 416.697 1363.22 421.195C1359.18 425.698 1349.3 427.127 1343.82 421.294C1339.93 417.149 1336.21 405.969 1349.06 400.861C1361.91 395.752 1407.49 387.063 1413.09 430.906Z" fill="url(#paint38_linear_109_74)"/>
<path d="M1475.09 403.617C1475.09 403.617 1454.03 405.763 1447.24 411.283C1440.46 416.804 1430.11 427.226 1415.47 423.852C1415.47 423.852 1414.39 418.644 1412.07 415.269C1412.07 415.269 1428.68 413.429 1430.29 405.305C1431.89 397.18 1427.43 394.576 1422.97 392.431C1418.5 390.285 1408.51 395.493 1414.57 399.791C1414.57 399.791 1415.11 396.25 1418.32 396.563C1421.54 396.875 1428.14 401.625 1421.36 405.916C1414.57 410.207 1406.01 408.679 1401.9 403.617C1397.79 398.562 1396.19 389.515 1401.9 383.23C1407.61 376.946 1422.79 373.578 1431.17 382.161C1439.57 390.744 1448.67 395.022 1454.03 396.563C1459.38 398.104 1467.78 399.02 1475.09 403.617Z" fill="url(#paint39_linear_109_74)"/>
<path d="M1370.13 393.042C1370.13 393.042 1347.79 395.6 1341.09 402.136C1337.91 405.238 1330.5 394.51 1321.93 396.563C1313.36 398.609 1307.4 408.826 1317.41 413.735C1327.4 418.644 1327.64 412.306 1327.64 412.306C1327.64 412.306 1315.35 414.472 1316.93 406.175C1318.5 397.878 1330.5 400.044 1333.12 404.335C1335.73 408.626 1340.02 417.913 1331.69 424.509C1323.36 431.112 1309.55 425.592 1307.64 418.232C1305.74 410.872 1308.83 405.763 1300.74 398.204C1292.65 390.644 1282.42 383.284 1282.65 380.832C1282.65 380.832 1290.99 383.078 1300.03 380.832C1309.07 378.587 1316.93 375.923 1331.69 383.49C1346.44 391.049 1349.62 384.958 1370.13 393.042Z" fill="url(#paint40_linear_109_74)"/>
</g>
<g clip-path="url(#clip6_109_74)">
<path d="M1445.13 720.501C1445.13 720.501 1421.57 701.183 1390.51 706.703C1390.51 706.703 1359.71 672.825 1340.17 672.678C1320.51 672.532 1289.84 676.359 1301.61 711.307C1301.61 711.307 1320.75 734.391 1336.94 713.545C1353.12 692.7 1321.94 683.912 1319.56 695.968C1319.56 695.968 1316.23 710.277 1331.22 701.489C1331.22 701.489 1330.51 709.048 1323.85 708.643C1317.18 708.231 1307.18 700.672 1315.03 692.295C1322.89 683.912 1331.22 684.935 1342.64 692.7C1354.07 700.466 1374.78 722.128 1400.24 723.968C1400.24 723.968 1392.7 737.254 1372.07 740.316C1351.46 743.385 1347.64 737.46 1331.22 748.905C1314.8 760.351 1304.33 753.808 1304.33 753.808C1304.33 753.808 1303.71 761.573 1299.02 767.3C1299.02 767.3 1328.6 782.425 1349.07 757.893C1349.07 757.893 1388.58 758.305 1409.52 739.911C1430.47 721.517 1445.13 720.501 1445.13 720.501Z" fill="url(#paint41_linear_109_74)"/>
<path d="M1122 700.259C1122 700.259 1141.05 677.368 1181.51 689.631C1181.51 689.631 1204.83 672.054 1235.3 678.192C1265.76 684.316 1265.29 676.152 1275.29 672.672C1285.28 669.197 1298.14 664.707 1315.27 672.672C1315.27 672.672 1299.09 678.803 1296.95 690.249C1296.95 690.249 1277.19 685.14 1261.96 691.677C1246.72 698.213 1237.21 702.305 1218.64 698.625C1200.07 694.945 1187.22 707.62 1187.22 707.62C1187.22 707.62 1208.17 712.117 1223.87 727.648C1239.58 743.179 1234.82 756.671 1245.77 763.207C1256.72 769.75 1277.67 763.619 1279.09 752.991C1280.52 742.362 1280.76 737.254 1271.48 735.108C1262.2 732.962 1248.35 743.152 1262.91 750.127C1262.91 750.127 1257.2 736.33 1270.05 739.399C1282.91 742.468 1273.26 760.856 1263.26 759.939C1253.28 759.022 1245.42 759.022 1243.27 751.051C1241.13 743.079 1243.27 723.882 1262.55 722.294C1281.83 720.7 1302.49 731.122 1300.75 749.211C1299.02 767.299 1278.26 786.305 1256.49 779.868C1234.71 773.431 1228.28 760.245 1218.64 747.676C1209 735.108 1193.65 732.962 1178.65 726.525C1163.66 720.088 1164.25 700.054 1122 700.259Z" fill="url(#paint42_linear_109_74)"/>
<path d="M1391.26 726.526C1391.26 726.526 1363.42 723.849 1349.31 708.132C1349.31 708.132 1340.03 729.435 1320.93 726.526C1301.83 723.616 1289.87 707.056 1295.22 695.869C1295.22 695.869 1273.26 690.196 1255.77 700.771C1238.28 711.353 1217.21 698.778 1200.25 706.903C1200.25 706.903 1227.21 715.638 1237.38 735.567C1237.38 735.567 1244.7 715.638 1269.51 716.103C1294.32 716.561 1307.18 735.719 1307.72 746.302C1307.72 746.302 1316.47 749.975 1330.39 741.698C1344.31 733.421 1352.17 735.108 1361.81 735.108C1371.45 735.108 1385.19 733.727 1391.26 726.526Z" fill="url(#paint43_linear_109_74)"/>
<path d="M1304.09 664.906C1304.09 664.906 1289.09 662.449 1283.86 664.906C1283.86 664.906 1279.93 651.926 1260.17 652.537C1260.17 652.537 1260.6 645.895 1250.21 645.695C1239.82 645.489 1240.3 652.026 1245.29 652.85C1245.29 652.85 1245.93 647.841 1250.21 648.246C1254.49 648.658 1258.27 650.697 1254.22 655.195C1250.18 659.698 1240.3 661.127 1234.82 655.294C1230.93 651.149 1227.21 639.969 1240.06 634.861C1252.91 629.752 1298.49 621.063 1304.09 664.906Z" fill="url(#paint44_linear_109_74)"/>
<path d="M1366.09 637.617C1366.09 637.617 1345.03 639.763 1338.24 645.283C1331.46 650.804 1321.11 661.226 1306.47 657.852C1306.47 657.852 1305.39 652.644 1303.07 649.269C1303.07 649.269 1319.68 647.429 1321.29 639.305C1322.89 631.18 1318.43 628.576 1313.97 626.431C1309.5 624.285 1299.51 629.493 1305.57 633.791C1305.57 633.791 1306.11 630.25 1309.32 630.563C1312.54 630.875 1319.14 635.625 1312.36 639.916C1305.57 644.207 1297.01 642.679 1292.9 637.617C1288.79 632.562 1287.19 623.515 1292.9 617.23C1298.61 610.946 1313.79 607.578 1322.17 616.161C1330.57 624.744 1339.67 629.022 1345.03 630.563C1350.38 632.104 1358.78 633.02 1366.09 637.617Z" fill="url(#paint45_linear_109_74)"/>
<path d="M1261.13 627.042C1261.13 627.042 1238.79 629.6 1232.09 636.136C1228.91 639.238 1221.5 628.51 1212.93 630.563C1204.36 632.609 1198.4 642.826 1208.41 647.735C1218.4 652.644 1218.64 646.306 1218.64 646.306C1218.64 646.306 1206.35 648.472 1207.93 640.175C1209.5 631.878 1221.5 634.044 1224.12 638.335C1226.73 642.626 1231.02 651.913 1222.69 658.509C1214.36 665.112 1200.55 659.592 1198.64 652.232C1196.74 644.872 1199.83 639.763 1191.74 632.204C1183.65 624.644 1173.42 617.284 1173.65 614.832C1173.65 614.832 1181.99 617.078 1191.03 614.832C1200.07 612.587 1207.93 609.923 1222.69 617.49C1237.44 625.049 1240.62 618.958 1261.13 627.042Z" fill="url(#paint46_linear_109_74)"/>
<path d="M1411.57 744.822C1411.57 744.822 1420.52 741.078 1424.31 734.815C1424.31 734.815 1435.33 728.24 1438.87 727.871C1438.87 727.871 1444.12 743.947 1466.6 744.822C1466.6 744.822 1482.34 765.748 1462.75 777.64C1443.16 789.53 1436.15 775.429 1440.35 769.18C1444.54 762.938 1451.99 761.667 1453.69 767.121C1455.38 772.56 1452.1 773.768 1449.93 773.933C1449.93 773.933 1455.09 776.67 1457.77 769.322C1460.44 761.966 1458.98 758.936 1449.13 755.813C1439.28 752.699 1441.15 750.091 1436.05 749.323C1430.94 748.561 1417.97 742.332 1411.57 744.822Z" fill="url(#paint47_linear_109_74)"/>
<path d="M1335.08 774.652C1335.08 774.652 1362.21 778.944 1367.21 789.366C1372.21 799.789 1385.3 804.691 1394.1 804.691C1402.91 804.691 1413.39 811.202 1414.1 816.111C1414.82 821.014 1432.93 826.424 1440.07 819.069C1447.21 811.709 1453.29 813.66 1465.43 816.111C1477.56 818.568 1499.16 797.079 1498.85 793.252C1498.85 793.252 1450.27 798.972 1442.9 793.252C1435.52 787.526 1431.48 780.578 1431.48 780.578C1431.48 780.578 1423.38 790.183 1411.49 787.526C1399.58 784.869 1396.25 777.309 1398.63 769.544C1401.01 761.778 1410.77 761.572 1414.1 763.413C1417.43 765.253 1423.62 769.544 1418.15 774.446C1418.15 774.446 1418.39 768.627 1412.91 768.169C1407.44 767.704 1395.53 773.224 1406.01 781.807C1416.48 790.389 1432.67 778.532 1432.9 771.178C1433.14 763.818 1431 751.761 1419.58 751.15C1408.15 750.539 1400.06 749.31 1382.92 763.413C1365.78 777.515 1356.98 763.612 1335.08 774.652Z" fill="url(#paint48_linear_109_74)"/>
</g>
<g clip-path="url(#clip7_109_74)">
<path d="M848.135 803.501C848.135 803.501 824.57 784.183 793.509 789.703C793.509 789.703 762.711 755.825 743.169 755.678C723.512 755.532 692.838 759.359 704.612 794.307C704.612 794.307 723.751 817.391 739.935 796.545C756.119 775.7 724.935 766.912 722.56 778.968C722.56 778.968 719.226 793.277 734.218 784.489C734.218 784.489 733.507 792.048 726.846 791.643C720.177 791.231 710.182 783.672 718.034 775.295C725.894 766.912 734.218 767.935 745.645 775.7C757.071 783.466 777.781 805.128 803.24 806.968C803.24 806.968 795.699 820.254 775.072 823.316C754.456 826.385 750.643 820.46 734.218 831.905C717.802 843.351 707.327 836.808 707.327 836.808C707.327 836.808 706.709 844.573 702.02 850.3C702.02 850.3 731.604 865.425 752.074 840.893C752.074 840.893 791.582 841.305 812.524 822.911C833.473 804.517 848.135 803.501 848.135 803.501Z" fill="url(#paint49_linear_109_74)"/>
<path d="M525 783.259C525 783.259 544.046 760.368 584.507 772.631C584.507 772.631 607.832 755.054 638.297 761.192C668.762 767.316 668.29 759.152 678.285 755.672C688.281 752.197 701.138 747.707 718.274 755.672C718.274 755.672 702.09 761.803 699.947 773.249C699.947 773.249 680.188 768.14 664.956 774.677C649.723 781.213 640.208 785.305 621.641 781.625C603.074 777.945 590.224 790.62 590.224 790.62C590.224 790.62 611.166 795.117 626.87 810.648C642.583 826.179 637.825 839.671 648.772 846.207C659.718 852.75 680.668 846.619 682.092 835.991C683.523 825.362 683.763 820.254 674.479 818.108C665.196 815.962 651.348 826.152 665.907 833.127C665.907 833.127 660.198 819.33 673.048 822.399C685.905 825.468 676.258 843.856 666.263 842.939C656.276 842.022 648.416 842.022 646.273 834.051C644.13 826.079 646.273 806.882 665.551 805.294C684.83 803.7 705.494 814.122 703.753 832.211C702.02 850.299 681.264 869.305 659.486 862.868C637.709 856.431 631.28 843.245 621.641 830.676C612.001 818.108 596.645 815.962 581.652 809.525C566.66 803.088 567.247 783.054 525 783.259Z" fill="url(#paint50_linear_109_74)"/>
<path d="M794.258 809.526C794.258 809.526 766.424 806.849 752.306 791.132C752.306 791.132 743.03 812.435 723.929 809.526C704.828 806.616 692.868 790.056 698.222 778.869C698.222 778.869 676.259 773.196 658.775 783.771C641.275 794.353 620.21 781.778 603.252 789.903C603.252 789.903 630.213 798.638 640.378 818.567C640.378 818.567 647.696 798.638 672.514 799.103C697.324 799.561 710.182 818.719 710.716 829.302C710.716 829.302 719.465 832.975 733.39 824.698C747.308 816.421 755.168 818.108 764.806 818.108C774.448 818.108 788.194 816.727 794.258 809.526Z" fill="url(#paint51_linear_109_74)"/>
<path d="M707.087 747.906C707.087 747.906 692.094 745.449 686.857 747.906C686.857 747.906 682.927 734.926 663.169 735.537C663.169 735.537 663.602 728.895 653.212 728.695C642.823 728.489 643.302 735.026 648.292 735.85C648.292 735.85 648.926 730.841 653.212 731.246C657.49 731.658 661.273 733.697 657.22 738.195C653.181 742.698 643.302 744.127 637.825 738.294C633.926 734.149 630.213 722.969 643.062 717.861C655.912 712.752 701.494 704.063 707.087 747.906Z" fill="url(#paint52_linear_109_74)"/>
<path d="M769.094 720.617C769.094 720.617 748.027 722.763 741.243 728.283C734.458 733.804 724.107 744.226 709.47 740.852C709.47 740.852 708.395 735.644 706.074 732.269C706.074 732.269 722.676 730.429 724.285 722.305C725.894 714.18 721.43 711.576 716.966 709.431C712.503 707.285 702.507 712.493 708.573 716.791C708.573 716.791 709.107 713.25 712.325 713.563C715.535 713.875 722.142 718.625 715.357 722.916C708.573 727.207 700.009 725.679 695.901 720.617C691.793 715.562 690.192 706.515 695.901 700.23C701.61 693.946 716.789 690.578 725.175 699.161C733.568 707.744 742.674 712.022 748.027 713.563C753.381 715.104 761.776 716.02 769.094 720.617Z" fill="url(#paint53_linear_109_74)"/>
<path d="M664.128 710.042C664.128 710.042 641.794 712.6 635.087 719.136C631.907 722.238 624.496 711.51 615.932 713.563C607.36 715.609 601.403 725.826 611.406 730.735C621.401 735.644 621.641 729.306 621.641 729.306C621.641 729.306 609.348 731.472 610.926 723.175C612.504 714.878 624.496 717.044 627.118 721.335C629.733 725.626 634.019 734.913 625.687 741.509C617.355 748.112 603.554 742.592 601.643 735.232C599.74 727.872 602.834 722.763 594.742 715.204C586.65 707.644 576.415 700.284 576.655 697.832C576.655 697.832 584.987 700.078 594.03 697.832C603.074 695.587 610.926 692.923 625.687 700.49C640.44 708.049 643.62 701.958 664.128 710.042Z" fill="url(#paint54_linear_109_74)"/>
<path d="M814.566 827.822C814.566 827.822 823.516 824.078 827.312 817.815C827.312 817.815 838.325 811.24 841.865 810.871C841.865 810.871 847.12 826.947 869.602 827.822C869.602 827.822 885.345 848.748 865.753 860.64C846.157 872.53 839.155 858.429 843.352 852.18C847.545 845.938 854.994 844.667 856.686 850.121C858.378 855.56 855.102 856.768 852.931 856.933C852.931 856.933 858.089 859.67 860.765 852.322C863.441 844.966 861.978 841.936 852.127 838.813C842.278 835.699 844.154 833.091 839.049 832.323C833.939 831.561 820.969 825.332 814.566 827.822Z" fill="url(#paint55_linear_109_74)"/>
<path d="M738.083 857.652C738.083 857.652 765.214 861.944 770.211 872.366C775.208 882.789 788.298 887.691 797.102 887.691C805.914 887.691 816.387 894.202 817.1 899.111C817.819 904.014 835.933 909.424 843.073 902.069C850.214 894.709 856.289 896.66 868.427 899.111C880.564 901.568 902.156 880.079 901.848 876.252C901.848 876.252 853.275 881.972 845.901 876.252C838.521 870.526 834.476 863.578 834.476 863.578C834.476 863.578 826.384 873.183 814.486 870.526C802.579 867.869 799.246 860.309 801.627 852.544C804.01 844.778 813.767 844.572 817.1 846.413C820.435 848.253 826.623 852.544 821.147 857.446C821.147 857.446 821.387 851.627 815.908 851.169C810.438 850.704 798.534 856.224 809.007 864.807C819.476 873.389 835.668 861.532 835.898 854.178C836.14 846.818 833.997 834.761 822.578 834.15C811.151 833.539 803.058 832.31 785.924 846.413C768.78 860.515 759.975 846.612 738.083 857.652Z" fill="url(#paint56_linear_109_74)"/>
</g>
<g clip-path="url(#clip8_109_74)">
<path d="M372.229 187.176C372.229 187.176 359.013 176.384 341.592 179.468C341.592 179.468 324.32 160.541 313.359 160.459C302.335 160.377 285.131 162.515 291.735 182.04C291.735 182.04 302.469 194.937 311.546 183.291C320.622 171.645 303.133 166.735 301.801 173.471C301.801 173.471 299.931 181.465 308.339 176.555C308.339 176.555 307.94 180.778 304.205 180.552C300.465 180.322 294.859 176.098 299.263 171.418C303.671 166.735 308.339 167.306 314.748 171.645C321.156 175.983 332.771 188.086 347.05 189.114C347.05 189.114 342.82 196.536 331.252 198.247C319.69 199.962 317.551 196.651 308.339 203.046C299.132 209.44 293.258 205.785 293.258 205.785C293.258 205.785 292.911 210.123 290.281 213.322C290.281 213.322 306.873 221.773 318.353 208.067C318.353 208.067 340.512 208.297 352.257 198.021C364.006 187.744 372.229 187.176 372.229 187.176Z" fill="url(#paint57_linear_109_74)"/>
<path d="M191 175.868C191 175.868 201.682 163.079 224.374 169.93C224.374 169.93 237.456 160.11 254.542 163.539C271.628 166.961 271.364 162.4 276.969 160.455C282.575 158.514 289.786 156.005 299.397 160.455C299.397 160.455 290.32 163.88 289.118 170.275C289.118 170.275 278.037 167.421 269.494 171.073C260.951 174.725 255.614 177.011 245.201 174.955C234.787 172.899 227.581 179.98 227.581 179.98C227.581 179.98 239.326 182.493 248.134 191.169C256.946 199.846 254.277 207.384 260.417 211.036C266.556 214.692 278.306 211.266 279.104 205.328C279.907 199.39 280.041 196.536 274.835 195.337C269.628 194.139 261.862 199.832 270.027 203.728C270.027 203.728 266.825 196.02 274.032 197.735C281.243 199.449 275.833 209.722 270.227 209.21C264.626 208.698 260.217 208.698 259.015 204.244C257.814 199.791 259.015 189.065 269.828 188.178C280.64 187.288 292.229 193.11 291.253 203.216C290.281 213.322 278.64 223.94 266.426 220.344C254.212 216.748 250.607 209.381 245.201 202.359C239.794 195.337 231.182 194.139 222.773 190.542C214.365 186.946 214.694 175.753 191 175.868Z" fill="url(#paint58_linear_109_74)"/>
<path d="M342.013 190.543C342.013 190.543 326.402 189.047 318.484 180.266C318.484 180.266 313.281 192.168 302.569 190.543C291.856 188.917 285.148 179.665 288.151 173.415C288.151 173.415 275.833 170.246 266.027 176.154C256.213 182.066 244.398 175.041 234.887 179.579C234.887 179.579 250.008 184.46 255.709 195.594C255.709 195.594 259.814 184.46 273.733 184.72C287.647 184.976 294.859 195.679 295.158 201.591C295.158 201.591 300.065 203.643 307.875 199.019C315.681 194.395 320.089 195.338 325.495 195.338C330.902 195.338 338.611 194.566 342.013 190.543Z" fill="url(#paint59_linear_109_74)"/>
<path d="M293.123 156.117C293.123 156.117 284.714 154.744 281.777 156.117C281.777 156.117 279.573 148.865 268.492 149.206C268.492 149.206 268.734 145.495 262.907 145.384C257.08 145.269 257.349 148.921 260.148 149.381C260.148 149.381 260.504 146.582 262.907 146.809C265.307 147.039 267.428 148.178 265.155 150.691C262.89 153.207 257.349 154.005 254.277 150.747C252.091 148.431 250.008 142.185 257.215 139.331C264.422 136.477 289.986 131.622 293.123 156.117Z" fill="url(#paint60_linear_109_74)"/>
<path d="M327.899 140.871C327.899 140.871 316.084 142.07 312.279 145.154C308.474 148.238 302.669 154.061 294.459 152.175C294.459 152.175 293.856 149.266 292.555 147.38C292.555 147.38 301.866 146.352 302.768 141.813C303.671 137.274 301.167 135.82 298.664 134.621C296.16 133.422 290.554 136.332 293.956 138.733C293.956 138.733 294.256 136.755 296.06 136.929C297.861 137.104 301.566 139.757 297.761 142.155C293.956 144.552 289.153 143.699 286.849 140.871C284.545 138.046 283.647 132.992 286.849 129.481C290.051 125.97 298.564 124.088 303.267 128.883C307.975 133.678 313.082 136.068 316.084 136.929C319.087 137.79 323.795 138.303 327.899 140.871Z" fill="url(#paint61_linear_109_74)"/>
<path d="M269.03 134.962C269.03 134.962 256.503 136.391 252.742 140.043C250.958 141.776 246.802 135.783 241.999 136.929C237.191 138.073 233.85 143.78 239.46 146.523C245.066 149.266 245.201 145.725 245.201 145.725C245.201 145.725 238.306 146.935 239.191 142.3C240.077 137.664 246.802 138.874 248.273 141.272C249.739 143.669 252.143 148.857 247.47 152.543C242.797 156.232 235.057 153.148 233.985 149.036C232.918 144.924 234.653 142.07 230.115 137.846C225.576 133.623 219.836 129.511 219.97 128.141C219.97 128.141 224.643 129.396 229.715 128.141C234.788 126.887 239.191 125.399 247.47 129.626C255.744 133.849 257.527 130.446 269.03 134.962Z" fill="url(#paint62_linear_109_74)"/>
<path d="M353.402 200.764C353.402 200.764 358.422 198.673 360.551 195.174C360.551 195.174 366.727 191.5 368.713 191.294C368.713 191.294 371.66 200.275 384.269 200.764C384.269 200.764 393.098 212.455 382.11 219.1C371.12 225.742 367.193 217.864 369.547 214.373C371.898 210.886 376.076 210.175 377.025 213.222C377.974 216.261 376.137 216.936 374.919 217.029C374.919 217.029 377.812 218.557 379.313 214.452C380.814 210.342 379.993 208.65 374.468 206.905C368.944 205.165 369.997 203.708 367.133 203.279C364.267 202.853 356.993 199.373 353.402 200.764Z" fill="url(#paint63_linear_109_74)"/>
<path d="M310.507 217.43C310.507 217.43 325.723 219.828 328.526 225.651C331.328 231.474 338.67 234.213 343.608 234.213C348.55 234.213 354.424 237.85 354.823 240.593C355.226 243.332 365.386 246.354 369.39 242.245C373.395 238.133 376.802 239.223 383.61 240.593C390.417 241.966 402.527 229.959 402.354 227.822C402.354 227.822 375.112 231.017 370.976 227.822C366.837 224.623 364.569 220.741 364.569 220.741C364.569 220.741 360.03 226.107 353.357 224.623C346.679 223.138 344.81 218.915 346.145 214.576C347.482 210.238 352.954 210.123 354.823 211.151C356.694 212.179 360.164 214.576 357.093 217.315C357.093 217.315 357.227 214.064 354.155 213.808C351.087 213.548 344.41 216.632 350.284 221.427C356.156 226.222 365.237 219.597 365.366 215.489C365.502 211.377 364.3 204.641 357.896 204.3C351.487 203.958 346.948 203.272 337.338 211.151C327.723 219.03 322.785 211.262 310.507 217.43Z" fill="url(#paint64_linear_109_74)"/>
</g>
<g clip-path="url(#clip9_109_74)">
<path d="M248.877 472.895C248.877 472.895 222.195 451.038 187.026 457.284C187.026 457.284 152.155 418.952 130.028 418.786C107.77 418.621 73.0383 422.95 86.3702 462.493C86.3702 462.493 108.041 488.611 126.366 465.026C144.691 441.44 109.381 431.496 106.692 445.138C106.692 445.138 102.917 461.328 119.893 451.384C119.893 451.384 119.087 459.937 111.545 459.479C103.994 459.013 92.6769 450.459 101.568 440.981C110.468 431.496 119.893 432.654 132.831 441.44C145.769 450.226 169.217 474.736 198.045 476.818C198.045 476.818 189.505 491.851 166.151 495.316C142.808 498.788 138.489 492.084 119.893 505.034C101.305 517.984 89.4448 510.581 89.4448 510.581C89.4448 510.581 88.744 519.367 83.4358 525.846C83.4358 525.846 116.932 542.96 140.11 515.203C140.11 515.203 184.844 515.669 208.557 494.857C232.277 474.045 248.877 472.895 248.877 472.895Z" fill="url(#paint65_linear_109_74)"/>
<path d="M-117 449.993C-117 449.993 -95.4341 424.092 -49.6218 437.967C-49.6218 437.967 -23.2119 418.08 11.2831 425.025C45.7781 431.954 45.2439 422.717 56.5611 418.779C67.8785 414.848 82.4368 409.767 101.839 418.779C101.839 418.779 83.5141 425.716 81.0878 438.666C81.0878 438.666 58.7159 432.886 41.4686 440.282C24.221 447.678 13.4468 452.308 -7.57605 448.144C-28.5989 443.98 -43.1486 458.321 -43.1486 458.321C-43.1486 458.321 -19.4366 463.409 -1.65477 480.982C16.1359 498.555 10.7489 513.82 23.1437 521.216C35.5382 528.619 59.259 521.682 60.8708 509.656C62.4915 497.63 62.7629 491.85 52.2516 489.422C41.74 486.995 26.0606 498.524 42.5459 506.417C42.5459 506.417 36.0815 490.806 50.6309 494.278C65.1892 497.75 54.266 518.555 42.9488 517.518C31.6402 516.481 22.7407 516.481 20.3142 507.461C17.8879 498.442 20.3142 476.72 42.1429 474.924C63.9717 473.12 87.3685 484.913 85.3976 505.379C83.4353 525.846 59.9336 547.349 35.2756 540.066C10.6173 532.783 3.33821 517.864 -7.57605 503.643C-18.4906 489.422 -35.8781 486.995 -52.854 479.712C-69.83 472.429 -69.1642 449.76 -117 449.993Z" fill="url(#paint66_linear_109_74)"/>
<path d="M187.874 479.712C187.874 479.712 156.359 476.683 140.373 458.9C140.373 458.9 129.87 483.004 108.243 479.712C86.6153 476.42 73.073 457.683 79.1347 445.025C79.1347 445.025 54.2663 438.606 34.4697 450.572C14.6557 462.545 -9.19646 448.317 -28.3972 457.51C-28.3972 457.51 2.12962 467.393 13.6397 489.942C13.6397 489.942 21.9262 467.393 50.0267 467.919C78.1184 468.438 92.6769 490.114 93.2814 502.088C93.2814 502.088 103.188 506.244 118.955 496.879C134.714 487.514 143.613 489.423 154.527 489.423C165.443 489.423 181.008 487.86 187.874 479.712Z" fill="url(#paint67_linear_109_74)"/>
<path d="M89.1731 409.993C89.1731 409.993 72.1969 407.212 66.2667 409.993C66.2667 409.993 61.8168 395.306 39.4452 395.998C39.4452 395.998 39.9356 388.482 28.1716 388.256C16.4076 388.023 16.9507 395.419 22.6005 396.351C22.6005 396.351 23.3188 390.684 28.1716 391.142C33.0156 391.608 37.299 393.916 32.7092 399.004C28.1366 404.1 16.9507 405.716 10.7489 399.117C6.33421 394.427 2.12963 381.777 16.679 375.997C31.2287 370.217 82.8397 360.386 89.1731 409.993Z" fill="url(#paint68_linear_109_74)"/>
<path d="M159.381 379.117C159.381 379.117 135.528 381.544 127.846 387.79C120.164 394.036 108.444 405.829 91.8708 402.01C91.8708 402.01 90.6533 396.118 88.0256 392.3C88.0256 392.3 106.823 390.218 108.646 381.026C110.467 371.833 105.413 368.887 100.359 366.459C95.3047 364.032 83.9872 369.924 90.8548 374.787C90.8548 374.787 91.4592 370.781 95.1032 371.134C98.7384 371.488 106.219 376.862 98.5369 381.717C90.8548 386.572 81.158 384.844 76.5066 379.117C71.8553 373.397 70.0423 363.16 76.5066 356.049C82.9713 348.939 100.158 345.129 109.653 354.839C119.157 364.55 129.467 369.391 135.528 371.134C141.59 372.878 151.095 373.915 159.381 379.117Z" fill="url(#paint69_linear_109_74)"/>
<path d="M40.5314 367.151C40.5314 367.151 15.2429 370.045 7.64821 377.44C4.04806 380.95 -4.34362 368.812 -14.0404 371.134C-23.7458 373.449 -30.4908 385.009 -19.1647 390.564C-7.84722 396.118 -7.5758 388.948 -7.5758 388.948C-7.5758 388.948 -21.4947 391.398 -19.7078 382.01C-17.9209 372.623 -4.34362 375.073 -1.37397 379.928C1.58679 384.784 6.43937 395.291 -2.99464 402.755C-12.4286 410.226 -28.0556 403.98 -30.2191 395.652C-32.374 387.324 -28.8701 381.544 -38.0327 372.991C-47.195 364.438 -58.7839 356.11 -58.5125 353.336C-58.5125 353.336 -49.0785 355.877 -38.8386 353.336C-28.5987 350.796 -19.7078 347.782 -2.99464 356.343C13.7099 364.896 17.3101 358.004 40.5314 367.151Z" fill="url(#paint70_linear_109_74)"/>
<path d="M210.869 500.413C210.869 500.413 221.003 496.177 225.301 489.091C225.301 489.091 237.77 481.652 241.779 481.234C241.779 481.234 247.729 499.423 273.185 500.413C273.185 500.413 291.009 524.09 268.826 537.546C246.638 550.999 238.71 535.044 243.462 527.974C248.209 520.911 256.644 519.472 258.56 525.643C260.475 531.797 256.767 533.164 254.308 533.352C254.308 533.352 260.149 536.448 263.179 528.134C266.209 519.811 264.552 516.383 253.397 512.849C242.246 509.326 244.37 506.375 238.59 505.506C232.804 504.644 218.119 497.596 210.869 500.413Z" fill="url(#paint71_linear_109_74)"/>
<path d="M124.268 534.165C124.268 534.165 154.989 539.021 160.647 550.813C166.305 562.606 181.125 568.153 191.095 568.153C201.072 568.153 212.931 575.52 213.737 581.074C214.551 586.622 235.061 592.742 243.146 584.421C251.231 576.093 258.111 578.3 271.854 581.074C285.597 583.854 310.045 559.54 309.695 555.21C309.695 555.21 254.697 561.682 246.349 555.21C237.992 548.731 233.412 540.87 233.412 540.87C233.412 540.87 224.249 551.738 210.778 548.731C197.296 545.725 193.522 537.172 196.218 528.385C198.916 519.599 209.963 519.366 213.737 521.448C217.513 523.53 224.521 528.385 218.32 533.932C218.32 533.932 218.591 527.348 212.388 526.829C206.195 526.303 192.715 532.549 204.574 542.26C216.428 551.971 234.761 538.555 235.022 530.234C235.296 521.906 232.869 508.265 219.94 507.573C207.001 506.882 197.838 505.491 178.437 521.448C159.026 537.405 149.057 521.673 124.268 534.165Z" fill="url(#paint72_linear_109_74)"/>
</g>
</g>
<defs>
<linearGradient id="paint0_linear_109_74" x1="720" y1="0" x2="720" y2="1024" gradientUnits="userSpaceOnUse">
<stop offset="0.333333" stop-color="#F0BD63"/>
<stop offset="1" stop-color="#FF9800" stop-opacity="0"/>
</linearGradient>
<linearGradient id="paint1_linear_109_74" x1="111.678" y1="716.799" x2="116.39" y2="833.055" gradientUnits="userSpaceOnUse">
<stop stop-color="white"/>
<stop offset="1" stop-color="white" stop-opacity="0"/>
</linearGradient>
<linearGradient id="paint2_linear_109_74" x1="25.6778" y1="24.7987" x2="30.3902" y2="141.055" gradientUnits="userSpaceOnUse">
<stop stop-color="white"/>
<stop offset="1" stop-color="white" stop-opacity="0"/>
</linearGradient>
<linearGradient id="paint3_linear_109_74" x1="1278.42" y1="97.0955" x2="1278.42" y2="195.401" gradientUnits="userSpaceOnUse">
<stop stop-color="white"/>
<stop offset="1" stop-color="white" stop-opacity="0"/>
</linearGradient>
<linearGradient id="paint4_linear_109_74" x1="1126.61" y1="92.6902" x2="1126.61" y2="204.551" gradientUnits="userSpaceOnUse">
<stop stop-color="white"/>
<stop offset="1" stop-color="white" stop-opacity="0"/>
</linearGradient>
<linearGradient id="paint5_linear_109_74" x1="1202.92" y1="118.566" x2="1202.92" y2="170.836" gradientUnits="userSpaceOnUse">
<stop stop-color="white"/>
<stop offset="1" stop-color="white" stop-opacity="0"/>
</linearGradient>
<linearGradient id="paint6_linear_109_74" x1="1175.08" y1="55.3782" x2="1175.08" y2="89.4002" gradientUnits="userSpaceOnUse">
<stop stop-color="white"/>
<stop offset="1" stop-color="white" stop-opacity="0"/>
</linearGradient>
<linearGradient id="paint7_linear_109_74" x1="1234.47" y1="36" x2="1234.47" y2="83.0639" gradientUnits="userSpaceOnUse">
<stop stop-color="white"/>
<stop offset="1" stop-color="white" stop-opacity="0"/>
</linearGradient>
<linearGradient id="paint8_linear_109_74" x1="1125.38" y1="37.4678" x2="1125.38" y2="85.988" gradientUnits="userSpaceOnUse">
<stop stop-color="white"/>
<stop offset="1" stop-color="white" stop-opacity="0"/>
</linearGradient>
<linearGradient id="paint9_linear_109_74" x1="1324.55" y1="166.948" x2="1372.23" y2="198.94" gradientUnits="userSpaceOnUse">
<stop stop-color="white"/>
<stop offset="1" stop-color="white" stop-opacity="0"/>
</linearGradient>
<linearGradient id="paint10_linear_109_74" x1="1306.49" y1="174.511" x2="1306.49" y2="247" gradientUnits="userSpaceOnUse">
<stop stop-color="white"/>
<stop offset="1" stop-color="white" stop-opacity="0"/>
</linearGradient>
<linearGradient id="paint11_linear_109_74" x1="1022.42" y1="269.095" x2="1022.42" y2="367.401" gradientUnits="userSpaceOnUse">
<stop stop-color="white"/>
<stop offset="1" stop-color="white" stop-opacity="0"/>
</linearGradient>
<linearGradient id="paint12_linear_109_74" x1="870.614" y1="264.69" x2="870.614" y2="376.551" gradientUnits="userSpaceOnUse">
<stop stop-color="white"/>
<stop offset="1" stop-color="white" stop-opacity="0"/>
</linearGradient>
<linearGradient id="paint13_linear_109_74" x1="946.917" y1="290.566" x2="946.917" y2="342.836" gradientUnits="userSpaceOnUse">
<stop stop-color="white"/>
<stop offset="1" stop-color="white" stop-opacity="0"/>
</linearGradient>
<linearGradient id="paint14_linear_109_74" x1="919.078" y1="227.378" x2="919.078" y2="261.4" gradientUnits="userSpaceOnUse">
<stop stop-color="white"/>
<stop offset="1" stop-color="white" stop-opacity="0"/>
</linearGradient>
<linearGradient id="paint15_linear_109_74" x1="978.468" y1="208" x2="978.468" y2="255.064" gradientUnits="userSpaceOnUse">
<stop stop-color="white"/>
<stop offset="1" stop-color="white" stop-opacity="0"/>
</linearGradient>
<linearGradient id="paint16_linear_109_74" x1="869.38" y1="209.468" x2="869.38" y2="257.988" gradientUnits="userSpaceOnUse">
<stop stop-color="white"/>
<stop offset="1" stop-color="white" stop-opacity="0"/>
</linearGradient>
<linearGradient id="paint17_linear_109_74" x1="1068.55" y1="338.948" x2="1116.23" y2="370.94" gradientUnits="userSpaceOnUse">
<stop stop-color="white"/>
<stop offset="1" stop-color="white" stop-opacity="0"/>
</linearGradient>
<linearGradient id="paint18_linear_109_74" x1="1050.49" y1="346.511" x2="1050.49" y2="419" gradientUnits="userSpaceOnUse">
<stop stop-color="white"/>
<stop offset="1" stop-color="white" stop-opacity="0"/>
</linearGradient>
<linearGradient id="paint19_linear_109_74" x1="648.419" y1="86.0955" x2="648.419" y2="184.401" gradientUnits="userSpaceOnUse">
<stop stop-color="white"/>
<stop offset="1" stop-color="white" stop-opacity="0"/>
</linearGradient>
<linearGradient id="paint20_linear_109_74" x1="496.614" y1="81.6902" x2="496.614" y2="193.551" gradientUnits="userSpaceOnUse">
<stop stop-color="white"/>
<stop offset="1" stop-color="white" stop-opacity="0"/>
</linearGradient>
<linearGradient id="paint21_linear_109_74" x1="572.917" y1="107.566" x2="572.917" y2="159.836" gradientUnits="userSpaceOnUse">
<stop stop-color="white"/>
<stop offset="1" stop-color="white" stop-opacity="0"/>
</linearGradient>
<linearGradient id="paint22_linear_109_74" x1="545.078" y1="44.3782" x2="545.078" y2="78.4002" gradientUnits="userSpaceOnUse">
<stop stop-color="white"/>
<stop offset="1" stop-color="white" stop-opacity="0"/>
</linearGradient>
<linearGradient id="paint23_linear_109_74" x1="604.468" y1="25" x2="604.468" y2="72.0639" gradientUnits="userSpaceOnUse">
<stop stop-color="white"/>
<stop offset="1" stop-color="white" stop-opacity="0"/>
</linearGradient>
<linearGradient id="paint24_linear_109_74" x1="495.38" y1="26.4678" x2="495.38" y2="74.988" gradientUnits="userSpaceOnUse">
<stop stop-color="white"/>
<stop offset="1" stop-color="white" stop-opacity="0"/>
</linearGradient>
<linearGradient id="paint25_linear_109_74" x1="694.549" y1="155.948" x2="742.233" y2="187.94" gradientUnits="userSpaceOnUse">
<stop stop-color="white"/>
<stop offset="1" stop-color="white" stop-opacity="0"/>
</linearGradient>
<linearGradient id="paint26_linear_109_74" x1="676.49" y1="163.511" x2="676.49" y2="236" gradientUnits="userSpaceOnUse">
<stop stop-color="white"/>
<stop offset="1" stop-color="white" stop-opacity="0"/>
</linearGradient>
<linearGradient id="paint27_linear_109_74" x1="619.419" y1="383.095" x2="619.419" y2="481.401" gradientUnits="userSpaceOnUse">
<stop stop-color="white"/>
<stop offset="1" stop-color="white" stop-opacity="0"/>
</linearGradient>
<linearGradient id="paint28_linear_109_74" x1="467.614" y1="378.69" x2="467.614" y2="490.551" gradientUnits="userSpaceOnUse">
<stop stop-color="white"/>
<stop offset="1" stop-color="white" stop-opacity="0"/>
</linearGradient>
<linearGradient id="paint29_linear_109_74" x1="543.917" y1="404.566" x2="543.917" y2="456.836" gradientUnits="userSpaceOnUse">
<stop stop-color="white"/>
<stop offset="1" stop-color="white" stop-opacity="0"/>
</linearGradient>
<linearGradient id="paint30_linear_109_74" x1="516.078" y1="341.378" x2="516.078" y2="375.4" gradientUnits="userSpaceOnUse">
<stop stop-color="white"/>
<stop offset="1" stop-color="white" stop-opacity="0"/>
</linearGradient>
<linearGradient id="paint31_linear_109_74" x1="575.468" y1="322" x2="575.468" y2="369.064" gradientUnits="userSpaceOnUse">
<stop stop-color="white"/>
<stop offset="1" stop-color="white" stop-opacity="0"/>
</linearGradient>
<linearGradient id="paint32_linear_109_74" x1="466.38" y1="323.468" x2="466.38" y2="371.988" gradientUnits="userSpaceOnUse">
<stop stop-color="white"/>
<stop offset="1" stop-color="white" stop-opacity="0"/>
</linearGradient>
<linearGradient id="paint33_linear_109_74" x1="665.549" y1="452.948" x2="713.233" y2="484.94" gradientUnits="userSpaceOnUse">
<stop stop-color="white"/>
<stop offset="1" stop-color="white" stop-opacity="0"/>
</linearGradient>
<linearGradient id="paint34_linear_109_74" x1="647.49" y1="460.511" x2="647.49" y2="533" gradientUnits="userSpaceOnUse">
<stop stop-color="white"/>
<stop offset="1" stop-color="white" stop-opacity="0"/>
</linearGradient>
<linearGradient id="paint35_linear_109_74" x1="1481.07" y1="438.675" x2="1481.07" y2="537.912" gradientUnits="userSpaceOnUse">
<stop stop-color="white"/>
<stop offset="1" stop-color="white" stop-opacity="0"/>
</linearGradient>
<linearGradient id="paint36_linear_109_74" x1="1327.64" y1="434.228" x2="1327.64" y2="547.148" gradientUnits="userSpaceOnUse">
<stop stop-color="white"/>
<stop offset="1" stop-color="white" stop-opacity="0"/>
</linearGradient>
<linearGradient id="paint37_linear_109_74" x1="1404.76" y1="460.349" x2="1404.76" y2="513.114" gradientUnits="userSpaceOnUse">
<stop stop-color="white"/>
<stop offset="1" stop-color="white" stop-opacity="0"/>
</linearGradient>
<linearGradient id="paint38_linear_109_74" x1="1376.62" y1="396.562" x2="1376.62" y2="430.906" gradientUnits="userSpaceOnUse">
<stop stop-color="white"/>
<stop offset="1" stop-color="white" stop-opacity="0"/>
</linearGradient>
<linearGradient id="paint39_linear_109_74" x1="1436.64" y1="377" x2="1436.64" y2="424.51" gradientUnits="userSpaceOnUse">
<stop stop-color="white"/>
<stop offset="1" stop-color="white" stop-opacity="0"/>
</linearGradient>
<linearGradient id="paint40_linear_109_74" x1="1326.39" y1="378.482" x2="1326.39" y2="427.462" gradientUnits="userSpaceOnUse">
<stop stop-color="white"/>
<stop offset="1" stop-color="white" stop-opacity="0"/>
</linearGradient>
<linearGradient id="paint41_linear_109_74" x1="1372.07" y1="672.675" x2="1372.07" y2="771.912" gradientUnits="userSpaceOnUse">
<stop stop-color="white"/>
<stop offset="1" stop-color="white" stop-opacity="0"/>
</linearGradient>
<linearGradient id="paint42_linear_109_74" x1="1218.64" y1="668.228" x2="1218.64" y2="781.148" gradientUnits="userSpaceOnUse">
<stop stop-color="white"/>
<stop offset="1" stop-color="white" stop-opacity="0"/>
</linearGradient>
<linearGradient id="paint43_linear_109_74" x1="1295.76" y1="694.349" x2="1295.76" y2="747.114" gradientUnits="userSpaceOnUse">
<stop stop-color="white"/>
<stop offset="1" stop-color="white" stop-opacity="0"/>
</linearGradient>
<linearGradient id="paint44_linear_109_74" x1="1267.62" y1="630.562" x2="1267.62" y2="664.906" gradientUnits="userSpaceOnUse">
<stop stop-color="white"/>
<stop offset="1" stop-color="white" stop-opacity="0"/>
</linearGradient>
<linearGradient id="paint45_linear_109_74" x1="1327.64" y1="611" x2="1327.64" y2="658.51" gradientUnits="userSpaceOnUse">
<stop stop-color="white"/>
<stop offset="1" stop-color="white" stop-opacity="0"/>
</linearGradient>
<linearGradient id="paint46_linear_109_74" x1="1217.39" y1="612.482" x2="1217.39" y2="661.462" gradientUnits="userSpaceOnUse">
<stop stop-color="white"/>
<stop offset="1" stop-color="white" stop-opacity="0"/>
</linearGradient>
<linearGradient id="paint47_linear_109_74" x1="1418.69" y1="743.189" x2="1466.85" y2="775.538" gradientUnits="userSpaceOnUse">
<stop stop-color="white"/>
<stop offset="1" stop-color="white" stop-opacity="0"/>
</linearGradient>
<linearGradient id="paint48_linear_109_74" x1="1400.44" y1="750.823" x2="1400.44" y2="824" gradientUnits="userSpaceOnUse">
<stop stop-color="white"/>
<stop offset="1" stop-color="white" stop-opacity="0"/>
</linearGradient>
<linearGradient id="paint49_linear_109_74" x1="775.065" y1="755.675" x2="775.065" y2="854.912" gradientUnits="userSpaceOnUse">
<stop stop-color="white"/>
<stop offset="1" stop-color="white" stop-opacity="0"/>
</linearGradient>
<linearGradient id="paint50_linear_109_74" x1="621.637" y1="751.228" x2="621.637" y2="864.148" gradientUnits="userSpaceOnUse">
<stop stop-color="white"/>
<stop offset="1" stop-color="white" stop-opacity="0"/>
</linearGradient>
<linearGradient id="paint51_linear_109_74" x1="698.756" y1="777.349" x2="698.756" y2="830.114" gradientUnits="userSpaceOnUse">
<stop stop-color="white"/>
<stop offset="1" stop-color="white" stop-opacity="0"/>
</linearGradient>
<linearGradient id="paint52_linear_109_74" x1="670.619" y1="713.562" x2="670.619" y2="747.906" gradientUnits="userSpaceOnUse">
<stop stop-color="white"/>
<stop offset="1" stop-color="white" stop-opacity="0"/>
</linearGradient>
<linearGradient id="paint53_linear_109_74" x1="730.644" y1="694" x2="730.644" y2="741.51" gradientUnits="userSpaceOnUse">
<stop stop-color="white"/>
<stop offset="1" stop-color="white" stop-opacity="0"/>
</linearGradient>
<linearGradient id="paint54_linear_109_74" x1="620.389" y1="695.482" x2="620.389" y2="744.462" gradientUnits="userSpaceOnUse">
<stop stop-color="white"/>
<stop offset="1" stop-color="white" stop-opacity="0"/>
</linearGradient>
<linearGradient id="paint55_linear_109_74" x1="821.688" y1="826.189" x2="869.847" y2="858.538" gradientUnits="userSpaceOnUse">
<stop stop-color="white"/>
<stop offset="1" stop-color="white" stop-opacity="0"/>
</linearGradient>
<linearGradient id="paint56_linear_109_74" x1="803.436" y1="833.823" x2="803.436" y2="907" gradientUnits="userSpaceOnUse">
<stop stop-color="white"/>
<stop offset="1" stop-color="white" stop-opacity="0"/>
</linearGradient>
<linearGradient id="paint57_linear_109_74" x1="331.248" y1="160.457" x2="331.248" y2="215.899" gradientUnits="userSpaceOnUse">
<stop stop-color="white"/>
<stop offset="1" stop-color="white" stop-opacity="0"/>
</linearGradient>
<linearGradient id="paint58_linear_109_74" x1="245.198" y1="157.972" x2="245.198" y2="221.059" gradientUnits="userSpaceOnUse">
<stop stop-color="white"/>
<stop offset="1" stop-color="white" stop-opacity="0"/>
</linearGradient>
<linearGradient id="paint59_linear_109_74" x1="288.45" y1="172.566" x2="288.45" y2="202.045" gradientUnits="userSpaceOnUse">
<stop stop-color="white"/>
<stop offset="1" stop-color="white" stop-opacity="0"/>
</linearGradient>
<linearGradient id="paint60_linear_109_74" x1="272.67" y1="136.929" x2="272.67" y2="156.117" gradientUnits="userSpaceOnUse">
<stop stop-color="white"/>
<stop offset="1" stop-color="white" stop-opacity="0"/>
</linearGradient>
<linearGradient id="paint61_linear_109_74" x1="306.335" y1="126" x2="306.335" y2="152.543" gradientUnits="userSpaceOnUse">
<stop stop-color="white"/>
<stop offset="1" stop-color="white" stop-opacity="0"/>
</linearGradient>
<linearGradient id="paint62_linear_109_74" x1="244.499" y1="126.828" x2="244.499" y2="154.192" gradientUnits="userSpaceOnUse">
<stop stop-color="white"/>
<stop offset="1" stop-color="white" stop-opacity="0"/>
</linearGradient>
<linearGradient id="paint63_linear_109_74" x1="357.397" y1="199.852" x2="384.341" y2="218.021" gradientUnits="userSpaceOnUse">
<stop stop-color="white"/>
<stop offset="1" stop-color="white" stop-opacity="0"/>
</linearGradient>
<linearGradient id="paint64_linear_109_74" x1="347.16" y1="204.117" x2="347.16" y2="245" gradientUnits="userSpaceOnUse">
<stop stop-color="white"/>
<stop offset="1" stop-color="white" stop-opacity="0"/>
</linearGradient>
<linearGradient id="paint65_linear_109_74" x1="166.143" y1="418.782" x2="166.143" y2="531.065" gradientUnits="userSpaceOnUse">
<stop stop-color="white"/>
<stop offset="1" stop-color="white" stop-opacity="0"/>
</linearGradient>
<linearGradient id="paint66_linear_109_74" x1="-7.58047" y1="413.75" x2="-7.58047" y2="541.515" gradientUnits="userSpaceOnUse">
<stop stop-color="white"/>
<stop offset="1" stop-color="white" stop-opacity="0"/>
</linearGradient>
<linearGradient id="paint67_linear_109_74" x1="79.7391" y1="443.306" x2="79.7391" y2="503.007" gradientUnits="userSpaceOnUse">
<stop stop-color="white"/>
<stop offset="1" stop-color="white" stop-opacity="0"/>
</linearGradient>
<linearGradient id="paint68_linear_109_74" x1="47.8802" y1="371.133" x2="47.8802" y2="409.993" gradientUnits="userSpaceOnUse">
<stop stop-color="white"/>
<stop offset="1" stop-color="white" stop-opacity="0"/>
</linearGradient>
<linearGradient id="paint69_linear_109_74" x1="115.846" y1="349" x2="115.846" y2="402.755" gradientUnits="userSpaceOnUse">
<stop stop-color="white"/>
<stop offset="1" stop-color="white" stop-opacity="0"/>
</linearGradient>
<linearGradient id="paint70_linear_109_74" x1="-8.9929" y1="350.676" x2="-8.9929" y2="406.095" gradientUnits="userSpaceOnUse">
<stop stop-color="white"/>
<stop offset="1" stop-color="white" stop-opacity="0"/>
</linearGradient>
<linearGradient id="paint71_linear_109_74" x1="218.933" y1="498.566" x2="273.437" y2="535.204" gradientUnits="userSpaceOnUse">
<stop stop-color="white"/>
<stop offset="1" stop-color="white" stop-opacity="0"/>
</linearGradient>
<linearGradient id="paint72_linear_109_74" x1="198.266" y1="507.204" x2="198.266" y2="590" gradientUnits="userSpaceOnUse">
<stop stop-color="white"/>
<stop offset="1" stop-color="white" stop-opacity="0"/>
</linearGradient>
<clipPath id="clip0_109_74">
<rect width="1440" height="1024" fill="white"/>
</clipPath>
<clipPath id="clip1_109_74">
<rect width="374" height="211" fill="white" transform="translate(1031 36)"/>
</clipPath>
<clipPath id="clip2_109_74">
<rect width="374" height="211" fill="white" transform="translate(775 208)"/>
</clipPath>
<clipPath id="clip3_109_74">
<rect width="374" height="211" fill="white" transform="translate(401 25)"/>
</clipPath>
<clipPath id="clip4_109_74">
<rect width="374" height="211" fill="white" transform="translate(372 322)"/>
</clipPath>
<clipPath id="clip5_109_74">
<rect width="378" height="213" fill="white" transform="translate(1231 377)"/>
</clipPath>
<clipPath id="clip6_109_74">
<rect width="378" height="213" fill="white" transform="translate(1122 611)"/>
</clipPath>
<clipPath id="clip7_109_74">
<rect width="378" height="213" fill="white" transform="translate(525 694)"/>
</clipPath>
<clipPath id="clip8_109_74">
<rect width="212" height="119" fill="white" transform="translate(191 126)"/>
</clipPath>
<clipPath id="clip9_109_74">
<rect width="428" height="241" fill="white" transform="translate(-117 349)"/>
</clipPath>
</defs>
</svg>
