<svg width="1440" height="1024" viewBox="0 0 1440 1024" fill="none" xmlns="http://www.w3.org/2000/svg">
<rect width="1440" height="1024" fill="url(#paint0_linear_109_74)"/>
<path d="M90 757.689C90 757.689 113.942 776.462 137.346 776.878C160.75 777.302 164.562 787.312 178.71 797.326C192.863 807.34 208.644 811.51 218.99 806.504C218.99 806.504 230.416 793.988 254.362 799.828C278.309 805.669 273.412 812.761 273.412 812.761C273.412 812.761 291.372 806.085 309.875 804.418C328.382 802.747 357.773 810.106 379.545 788.277C379.545 788.277 339.798 793.152 321.848 771.041C303.888 748.927 276.134 745.588 254.362 753.1C232.59 760.608 208.644 766.868 198.85 763.946C198.85 763.946 203.747 771.457 217.895 772.708C232.048 773.96 242.389 777.717 254.362 785.645C266.336 793.568 287.565 794.251 293.552 788.277C299.534 782.307 300.081 771.041 288.108 768.119C276.134 765.197 265.246 772.289 276.677 776.878C288.108 781.471 287.565 775.631 287.565 775.631C287.565 775.631 290.805 784.107 279.389 781.12C267.973 778.133 263.071 778.969 264.161 766.868C265.246 754.771 297.21 760.192 301.096 767.703C304.978 775.211 311.009 788.483 287.565 795.655C264.116 802.827 256.542 794.667 246.743 788.277C236.945 781.887 221.573 777.302 212.998 777.302C204.429 777.302 186.469 766.658 181.98 760.714C181.98 760.714 205.653 761.966 224.429 755.393C243.205 748.824 267.291 737.245 288.108 741.625C308.924 746.008 333.01 774.482 347.293 779.178C361.58 783.871 386.482 786.686 393.011 784.496C393.011 784.496 378.321 807.023 347.293 809.217C316.274 811.407 304.027 804.833 268.515 821.733C233.003 838.629 225.245 822.985 229.734 817.354C234.223 811.719 244.837 810.468 248.107 815.477C248.107 815.477 235.915 814.535 237.313 820.482C238.716 826.426 252.596 828.303 260.757 820.165C268.923 812.032 263.206 806.401 251.372 804.524C239.533 802.644 215.855 804.833 209.734 819.853C203.612 834.876 224.703 844.89 241.503 842.7C258.309 840.506 270.406 829.241 301.096 827.051C331.786 824.862 372.603 829.241 390.563 812.971C390.563 812.971 439.954 811.719 462 801.392C462 801.392 431.793 794.819 423.218 784.184C414.649 773.544 407.707 766.658 379.137 766.975C350.562 767.284 344.436 753.15 328.925 740.66C313.418 728.17 280.817 707.833 237.313 721.601C193.814 735.368 201.159 739.435 170.957 740.061C140.75 740.69 139.66 762.797 90 757.689Z" fill="url(#paint1_linear_109_74)"/>
<g clip-path="url(#clip0_109_74)">
<path d="M1192.72 176.472C1192.72 176.472 1169.4 157.336 1138.67 162.805C1138.67 162.805 1108.2 129.244 1088.86 129.099C1069.41 128.955 1039.06 132.745 1050.71 167.365C1050.71 167.365 1069.65 190.232 1085.66 169.583C1101.67 148.933 1070.82 140.227 1068.47 152.171C1068.47 152.171 1065.17 166.345 1080 157.639C1080 157.639 1079.3 165.128 1072.71 164.726C1066.11 164.318 1056.22 156.83 1063.99 148.531C1071.77 140.227 1080 141.24 1091.31 148.933C1102.62 156.626 1123.11 178.085 1148.3 179.907C1148.3 179.907 1140.83 193.068 1120.43 196.102C1100.03 199.142 1096.25 193.272 1080 204.611C1063.76 215.949 1053.4 209.467 1053.4 209.467C1053.4 209.467 1052.79 217.16 1048.15 222.832C1048.15 222.832 1077.42 237.816 1097.67 213.514C1097.67 213.514 1136.76 213.922 1157.48 195.701C1178.21 177.479 1192.72 176.472 1192.72 176.472Z" fill="url(#paint2_linear_109_74)"/>
<path d="M873 156.421C873 156.421 891.845 133.745 931.877 145.892C931.877 145.892 954.955 128.48 985.098 134.561C1015.24 140.628 1014.77 132.541 1024.66 129.093C1034.55 125.651 1047.27 121.202 1064.23 129.093C1064.23 129.093 1048.22 135.166 1046.1 146.505C1046.1 146.505 1026.55 141.444 1011.47 147.919C996.403 154.395 986.989 158.448 968.618 154.802C950.248 151.157 937.534 163.713 937.534 163.713C937.534 163.713 958.254 168.167 973.792 183.553C989.338 198.938 984.631 212.303 995.462 218.778C1006.29 225.26 1027.02 219.186 1028.43 208.657C1029.85 198.128 1030.08 193.068 1020.9 190.942C1011.71 188.817 998.011 198.911 1012.42 205.821C1012.42 205.821 1006.77 192.153 1019.48 195.194C1032.2 198.234 1022.66 216.449 1012.77 215.54C1002.89 214.632 995.11 214.632 992.989 206.736C990.869 198.839 992.989 179.822 1012.06 178.249C1031.14 176.669 1051.58 186.994 1049.86 204.913C1048.15 222.832 1027.61 241.658 1006.06 235.282C984.516 228.905 978.155 215.843 968.618 203.393C959.081 190.942 943.887 188.817 929.053 182.441C914.219 176.064 914.8 156.217 873 156.421Z" fill="url(#paint3_linear_109_74)"/>
<path d="M1139.41 182.441C1139.41 182.441 1111.87 179.789 1097.9 164.22C1097.9 164.22 1088.72 185.323 1069.82 182.441C1050.93 179.559 1039.09 163.154 1044.39 152.072C1044.39 152.072 1022.66 146.452 1005.36 156.928C988.045 167.411 967.202 154.954 950.424 163.002C950.424 163.002 977.099 171.655 987.157 191.397C987.157 191.397 994.398 171.655 1018.95 172.116C1043.5 172.57 1056.22 191.548 1056.75 202.031C1056.75 202.031 1065.41 205.67 1079.19 197.471C1092.96 189.271 1100.73 190.943 1110.27 190.943C1119.81 190.943 1133.41 189.574 1139.41 182.441Z" fill="url(#paint4_linear_109_74)"/>
<path d="M1053.16 121.4C1053.16 121.4 1038.33 118.966 1033.14 121.4C1033.14 121.4 1029.26 108.542 1009.71 109.147C1009.71 109.147 1010.14 102.567 999.856 102.369C989.576 102.165 990.05 108.641 994.987 109.457C994.987 109.457 995.615 104.495 999.856 104.896C1004.09 105.304 1007.83 107.325 1003.82 111.78C999.825 116.241 990.05 117.656 984.631 111.878C980.773 107.772 977.099 96.697 989.813 91.6367C1002.53 86.5762 1047.63 77.969 1053.16 121.4Z" fill="url(#paint5_linear_109_74)"/>
<path d="M1114.51 94.3676C1114.51 94.3676 1093.67 96.493 1086.95 101.961C1080.24 107.43 1070 117.755 1055.52 114.412C1055.52 114.412 1054.45 109.253 1052.16 105.91C1052.16 105.91 1068.58 104.087 1070.18 96.039C1071.77 87.9909 1067.35 85.4114 1062.93 83.2859C1058.52 81.1604 1048.63 86.3195 1054.63 90.5772C1054.63 90.5772 1055.16 87.0697 1058.34 87.379C1061.52 87.6882 1068.06 92.3934 1061.34 96.6444C1054.63 100.895 1046.16 99.3817 1042.09 94.3676C1038.03 89.3596 1036.44 80.3971 1042.09 74.1719C1047.74 67.9468 1062.76 64.6105 1071.06 73.1125C1079.36 81.6145 1088.37 85.8523 1093.67 87.379C1098.96 88.9056 1107.27 89.8137 1114.51 94.3676Z" fill="url(#paint6_linear_109_74)"/>
<path d="M1010.66 83.8914C1010.66 83.8914 988.558 86.4249 981.922 92.9001C978.776 95.9731 971.443 85.3457 962.969 87.3791C954.488 89.4059 948.594 99.5267 958.492 104.39C968.381 109.253 968.618 102.975 968.618 102.975C968.618 102.975 956.456 105.12 958.017 96.9011C959.578 88.6821 971.443 90.8273 974.038 95.0783C976.625 99.3292 980.865 108.529 972.621 115.063C964.378 121.604 950.722 116.136 948.832 108.845C946.949 101.553 950.011 96.493 942.004 89.0045C933.998 81.5158 923.871 74.2247 924.108 71.7964C924.108 71.7964 932.352 74.0207 941.3 71.7964C950.248 69.5722 958.017 66.9335 972.621 74.4287C987.218 81.9173 990.364 75.8829 1010.66 83.8914Z" fill="url(#paint7_linear_109_74)"/>
<path d="M1159.5 200.565C1159.5 200.565 1168.36 196.856 1172.11 190.653C1172.11 190.653 1183.01 184.139 1186.51 183.773C1186.51 183.773 1191.71 199.698 1213.96 200.565C1213.96 200.565 1229.53 221.295 1210.15 233.076C1190.76 244.854 1183.83 230.885 1187.98 224.695C1192.13 218.511 1199.5 217.252 1201.18 222.655C1202.85 228.043 1199.61 229.239 1197.46 229.404C1197.46 229.404 1202.56 232.114 1205.21 224.836C1207.86 217.548 1206.41 214.547 1196.67 211.453C1186.92 208.369 1188.78 205.785 1183.73 205.024C1178.67 204.269 1165.84 198.099 1159.5 200.565Z" fill="url(#paint8_linear_109_74)"/>
<path d="M1083.83 230.116C1083.83 230.116 1110.67 234.367 1115.62 244.691C1120.56 255.016 1133.51 259.873 1142.22 259.873C1150.94 259.873 1161.3 266.322 1162.01 271.185C1162.72 276.042 1180.64 281.401 1187.71 274.116C1194.77 266.825 1200.78 268.757 1212.79 271.185C1224.8 273.619 1246.17 252.331 1245.86 248.541C1245.86 248.541 1197.8 254.207 1190.51 248.541C1183.2 242.869 1179.2 235.986 1179.2 235.986C1179.2 235.986 1171.19 245.501 1159.42 242.869C1147.64 240.236 1144.34 232.748 1146.7 225.055C1149.06 217.363 1158.71 217.159 1162.01 218.981C1165.31 220.804 1171.43 225.055 1166.01 229.912C1166.01 229.912 1166.25 224.147 1160.83 223.693C1155.42 223.232 1143.64 228.701 1154 237.203C1164.36 245.705 1180.38 233.959 1180.61 226.674C1180.85 219.383 1178.73 207.439 1167.43 206.834C1156.12 206.228 1148.12 205.011 1131.16 218.981C1114.2 232.952 1105.49 219.179 1083.83 230.116Z" fill="url(#paint9_linear_109_74)"/>
</g>
<g clip-path="url(#clip1_109_74)">
<path d="M1290.13 471.501C1290.13 471.501 1266.57 452.183 1235.51 457.703C1235.51 457.703 1204.71 423.825 1185.17 423.678C1165.51 423.532 1134.84 427.359 1146.61 462.307C1146.61 462.307 1165.75 485.391 1181.94 464.546C1198.12 443.7 1166.94 434.912 1164.56 446.968C1164.56 446.968 1161.23 461.277 1176.22 452.489C1176.22 452.489 1175.51 460.048 1168.85 459.643C1162.18 459.231 1152.18 451.672 1160.03 443.295C1167.89 434.912 1176.22 435.935 1187.64 443.7C1199.07 451.466 1219.78 473.128 1245.24 474.968C1245.24 474.968 1237.7 488.254 1217.07 491.316C1196.46 494.385 1192.64 488.46 1176.22 499.905C1159.8 511.351 1149.33 504.808 1149.33 504.808C1149.33 504.808 1148.71 512.573 1144.02 518.3C1144.02 518.3 1173.6 533.425 1194.07 508.893C1194.07 508.893 1233.58 509.305 1254.52 490.911C1275.47 472.517 1290.13 471.501 1290.13 471.501Z" fill="url(#paint10_linear_109_74)"/>
<path d="M967 451.259C967 451.259 986.047 428.368 1026.51 440.631C1026.51 440.631 1049.83 423.054 1080.3 429.192C1110.76 435.316 1110.29 427.152 1120.29 423.672C1130.28 420.197 1143.14 415.707 1160.27 423.672C1160.27 423.672 1144.09 429.803 1141.95 441.249C1141.95 441.249 1122.19 436.14 1106.96 442.677C1091.72 449.213 1082.21 453.305 1063.64 449.625C1045.07 445.945 1032.22 458.62 1032.22 458.62C1032.22 458.62 1053.17 463.117 1068.87 478.648C1084.58 494.179 1079.82 507.671 1090.77 514.207C1101.72 520.75 1122.67 514.619 1124.09 503.991C1125.52 493.362 1125.76 488.254 1116.48 486.108C1107.2 483.962 1093.35 494.152 1107.91 501.127C1107.91 501.127 1102.2 487.33 1115.05 490.399C1127.91 493.468 1118.26 511.856 1108.26 510.939C1098.28 510.022 1090.42 510.022 1088.27 502.051C1086.13 494.079 1088.27 474.882 1107.55 473.294C1126.83 471.7 1147.49 482.122 1145.75 500.211C1144.02 518.299 1123.26 537.305 1101.49 530.868C1079.71 524.431 1073.28 511.245 1063.64 498.676C1054 486.108 1038.65 483.962 1023.65 477.525C1008.66 471.088 1009.25 451.054 967 451.259Z" fill="url(#paint11_linear_109_74)"/>
<path d="M1236.26 477.526C1236.26 477.526 1208.42 474.849 1194.31 459.132C1194.31 459.132 1185.03 480.435 1165.93 477.526C1146.83 474.616 1134.87 458.056 1140.22 446.869C1140.22 446.869 1118.26 441.196 1100.77 451.771C1083.28 462.353 1062.21 449.779 1045.25 457.903C1045.25 457.903 1072.21 466.638 1082.38 486.567C1082.38 486.567 1089.7 466.638 1114.51 467.103C1139.32 467.561 1152.18 486.719 1152.72 497.302C1152.72 497.302 1161.47 500.975 1175.39 492.698C1189.31 484.421 1197.17 486.108 1206.81 486.108C1216.45 486.108 1230.19 484.727 1236.26 477.526Z" fill="url(#paint12_linear_109_74)"/>
<path d="M1149.09 415.906C1149.09 415.906 1134.09 413.449 1128.86 415.906C1128.86 415.906 1124.93 402.926 1105.17 403.537C1105.17 403.537 1105.6 396.895 1095.21 396.695C1084.82 396.489 1085.3 403.026 1090.29 403.85C1090.29 403.85 1090.93 398.841 1095.21 399.246C1099.49 399.658 1103.27 401.697 1099.22 406.195C1095.18 410.698 1085.3 412.127 1079.82 406.294C1075.93 402.149 1072.21 390.969 1085.06 385.861C1097.91 380.752 1143.49 372.063 1149.09 415.906Z" fill="url(#paint13_linear_109_74)"/>
<path d="M1211.09 388.617C1211.09 388.617 1190.03 390.763 1183.24 396.283C1176.46 401.804 1166.11 412.226 1151.47 408.852C1151.47 408.852 1150.39 403.644 1148.07 400.269C1148.07 400.269 1164.68 398.429 1166.29 390.305C1167.89 382.18 1163.43 379.576 1158.97 377.431C1154.5 375.285 1144.51 380.493 1150.57 384.791C1150.57 384.791 1151.11 381.25 1154.32 381.563C1157.54 381.875 1164.14 386.625 1157.36 390.916C1150.57 395.207 1142.01 393.679 1137.9 388.617C1133.79 383.562 1132.19 374.515 1137.9 368.23C1143.61 361.946 1158.79 358.578 1167.17 367.161C1175.57 375.744 1184.67 380.022 1190.03 381.563C1195.38 383.104 1203.78 384.02 1211.09 388.617Z" fill="url(#paint14_linear_109_74)"/>
<path d="M1106.13 378.042C1106.13 378.042 1083.79 380.6 1077.09 387.136C1073.91 390.238 1066.5 379.51 1057.93 381.563C1049.36 383.609 1043.4 393.826 1053.41 398.735C1063.4 403.644 1063.64 397.306 1063.64 397.306C1063.64 397.306 1051.35 399.472 1052.93 391.175C1054.5 382.878 1066.5 385.044 1069.12 389.335C1071.73 393.626 1076.02 402.913 1067.69 409.509C1059.36 416.112 1045.55 410.592 1043.64 403.232C1041.74 395.872 1044.83 390.763 1036.74 383.204C1028.65 375.644 1018.42 368.284 1018.65 365.832C1018.65 365.832 1026.99 368.078 1036.03 365.832C1045.07 363.587 1052.93 360.923 1067.69 368.49C1082.44 376.049 1085.62 369.958 1106.13 378.042Z" fill="url(#paint15_linear_109_74)"/>
<path d="M1256.57 495.822C1256.57 495.822 1265.52 492.078 1269.31 485.815C1269.31 485.815 1280.33 479.24 1283.87 478.871C1283.87 478.871 1289.12 494.947 1311.6 495.822C1311.6 495.822 1327.34 516.748 1307.75 528.64C1288.16 540.53 1281.15 526.429 1285.35 520.18C1289.54 513.938 1296.99 512.667 1298.69 518.121C1300.38 523.56 1297.1 524.768 1294.93 524.933C1294.93 524.933 1300.09 527.67 1302.77 520.322C1305.44 512.966 1303.98 509.936 1294.13 506.813C1284.28 503.699 1286.15 501.091 1281.05 500.323C1275.94 499.561 1262.97 493.332 1256.57 495.822Z" fill="url(#paint16_linear_109_74)"/>
<path d="M1180.08 525.652C1180.08 525.652 1207.21 529.944 1212.21 540.366C1217.21 550.789 1230.3 555.691 1239.1 555.691C1247.91 555.691 1258.39 562.202 1259.1 567.111C1259.82 572.014 1277.93 577.424 1285.07 570.069C1292.21 562.709 1298.29 564.66 1310.43 567.111C1322.56 569.568 1344.16 548.079 1343.85 544.252C1343.85 544.252 1295.27 549.972 1287.9 544.252C1280.52 538.526 1276.48 531.578 1276.48 531.578C1276.48 531.578 1268.38 541.183 1256.49 538.526C1244.58 535.869 1241.25 528.309 1243.63 520.544C1246.01 512.778 1255.77 512.572 1259.1 514.413C1262.43 516.253 1268.62 520.544 1263.15 525.446C1263.15 525.446 1263.39 519.627 1257.91 519.169C1252.44 518.704 1240.53 524.224 1251.01 532.807C1261.48 541.389 1277.67 529.532 1277.9 522.178C1278.14 514.818 1276 502.761 1264.58 502.15C1253.15 501.539 1245.06 500.31 1227.92 514.413C1210.78 528.515 1201.98 514.612 1180.08 525.652Z" fill="url(#paint17_linear_109_74)"/>
</g>
<g clip-path="url(#clip2_109_74)">
<path d="M1250.13 826.501C1250.13 826.501 1226.57 807.183 1195.51 812.703C1195.51 812.703 1164.71 778.825 1145.17 778.678C1125.51 778.532 1094.84 782.359 1106.61 817.307C1106.61 817.307 1125.75 840.391 1141.94 819.545C1158.12 798.7 1126.94 789.912 1124.56 801.968C1124.56 801.968 1121.23 816.277 1136.22 807.489C1136.22 807.489 1135.51 815.048 1128.85 814.643C1122.18 814.231 1112.18 806.672 1120.03 798.295C1127.89 789.912 1136.22 790.935 1147.64 798.7C1159.07 806.466 1179.78 828.128 1205.24 829.968C1205.24 829.968 1197.7 843.254 1177.07 846.316C1156.46 849.385 1152.64 843.46 1136.22 854.905C1119.8 866.351 1109.33 859.808 1109.33 859.808C1109.33 859.808 1108.71 867.573 1104.02 873.3C1104.02 873.3 1133.6 888.425 1154.07 863.893C1154.07 863.893 1193.58 864.305 1214.52 845.911C1235.47 827.517 1250.13 826.501 1250.13 826.501Z" fill="url(#paint18_linear_109_74)"/>
<path d="M927 806.259C927 806.259 946.047 783.368 986.507 795.631C986.507 795.631 1009.83 778.054 1040.3 784.192C1070.76 790.316 1070.29 782.152 1080.29 778.672C1090.28 775.197 1103.14 770.707 1120.27 778.672C1120.27 778.672 1104.09 784.803 1101.95 796.249C1101.95 796.249 1082.19 791.14 1066.96 797.677C1051.72 804.213 1042.21 808.305 1023.64 804.625C1005.07 800.945 992.224 813.62 992.224 813.62C992.224 813.62 1013.17 818.117 1028.87 833.648C1044.58 849.179 1039.82 862.671 1050.77 869.207C1061.72 875.75 1082.67 869.619 1084.09 858.991C1085.52 848.362 1085.76 843.254 1076.48 841.108C1067.2 838.962 1053.35 849.152 1067.91 856.127C1067.91 856.127 1062.2 842.33 1075.05 845.399C1087.91 848.468 1078.26 866.856 1068.26 865.939C1058.28 865.022 1050.42 865.022 1048.27 857.051C1046.13 849.079 1048.27 829.882 1067.55 828.294C1086.83 826.7 1107.49 837.122 1105.75 855.211C1104.02 873.299 1083.26 892.305 1061.49 885.868C1039.71 879.431 1033.28 866.245 1023.64 853.676C1014 841.108 998.645 838.962 983.652 832.525C968.66 826.088 969.248 806.054 927 806.259Z" fill="url(#paint19_linear_109_74)"/>
<path d="M1196.26 832.526C1196.26 832.526 1168.42 829.849 1154.31 814.132C1154.31 814.132 1145.03 835.435 1125.93 832.526C1106.83 829.616 1094.87 813.056 1100.22 801.869C1100.22 801.869 1078.26 796.196 1060.77 806.771C1043.28 817.353 1022.21 804.778 1005.25 812.903C1005.25 812.903 1032.21 821.638 1042.38 841.567C1042.38 841.567 1049.7 821.638 1074.51 822.103C1099.32 822.561 1112.18 841.719 1112.72 852.302C1112.72 852.302 1121.47 855.975 1135.39 847.698C1149.31 839.421 1157.17 841.108 1166.81 841.108C1176.45 841.108 1190.19 839.727 1196.26 832.526Z" fill="url(#paint20_linear_109_74)"/>
<path d="M1109.09 770.906C1109.09 770.906 1094.09 768.449 1088.86 770.906C1088.86 770.906 1084.93 757.926 1065.17 758.537C1065.17 758.537 1065.6 751.895 1055.21 751.695C1044.82 751.489 1045.3 758.026 1050.29 758.85C1050.29 758.85 1050.93 753.841 1055.21 754.246C1059.49 754.658 1063.27 756.697 1059.22 761.195C1055.18 765.698 1045.3 767.127 1039.82 761.294C1035.93 757.149 1032.21 745.969 1045.06 740.861C1057.91 735.752 1103.49 727.063 1109.09 770.906Z" fill="url(#paint21_linear_109_74)"/>
<path d="M1171.09 743.617C1171.09 743.617 1150.03 745.763 1143.24 751.283C1136.46 756.804 1126.11 767.226 1111.47 763.852C1111.47 763.852 1110.39 758.644 1108.07 755.269C1108.07 755.269 1124.68 753.429 1126.29 745.305C1127.89 737.18 1123.43 734.576 1118.97 732.431C1114.5 730.285 1104.51 735.493 1110.57 739.791C1110.57 739.791 1111.11 736.25 1114.32 736.563C1117.54 736.875 1124.14 741.625 1117.36 745.916C1110.57 750.207 1102.01 748.679 1097.9 743.617C1093.79 738.562 1092.19 729.515 1097.9 723.23C1103.61 716.946 1118.79 713.578 1127.17 722.161C1135.57 730.744 1144.67 735.022 1150.03 736.563C1155.38 738.104 1163.78 739.02 1171.09 743.617Z" fill="url(#paint22_linear_109_74)"/>
<path d="M1066.13 733.042C1066.13 733.042 1043.79 735.6 1037.09 742.136C1033.91 745.238 1026.5 734.51 1017.93 736.563C1009.36 738.609 1003.4 748.826 1013.41 753.735C1023.4 758.644 1023.64 752.306 1023.64 752.306C1023.64 752.306 1011.35 754.472 1012.93 746.175C1014.5 737.878 1026.5 740.044 1029.12 744.335C1031.73 748.626 1036.02 757.913 1027.69 764.509C1019.36 771.112 1005.55 765.592 1003.64 758.232C1001.74 750.872 1004.83 745.763 996.742 738.204C988.65 730.644 978.415 723.284 978.655 720.832C978.655 720.832 986.987 723.078 996.03 720.832C1005.07 718.587 1012.93 715.923 1027.69 723.49C1042.44 731.049 1045.62 724.958 1066.13 733.042Z" fill="url(#paint23_linear_109_74)"/>
<path d="M1216.57 850.822C1216.57 850.822 1225.52 847.078 1229.31 840.815C1229.31 840.815 1240.33 834.24 1243.87 833.871C1243.87 833.871 1249.12 849.947 1271.6 850.822C1271.6 850.822 1287.34 871.748 1267.75 883.64C1248.16 895.53 1241.15 881.429 1245.35 875.18C1249.54 868.938 1256.99 867.667 1258.69 873.121C1260.38 878.56 1257.1 879.768 1254.93 879.933C1254.93 879.933 1260.09 882.67 1262.77 875.322C1265.44 867.966 1263.98 864.936 1254.13 861.813C1244.28 858.699 1246.15 856.091 1241.05 855.323C1235.94 854.561 1222.97 848.332 1216.57 850.822Z" fill="url(#paint24_linear_109_74)"/>
<path d="M1140.08 880.652C1140.08 880.652 1167.21 884.944 1172.21 895.366C1177.21 905.789 1190.3 910.691 1199.1 910.691C1207.91 910.691 1218.39 917.202 1219.1 922.111C1219.82 927.014 1237.93 932.424 1245.07 925.069C1252.21 917.709 1258.29 919.66 1270.43 922.111C1282.56 924.568 1304.16 903.079 1303.85 899.252C1303.85 899.252 1255.27 904.972 1247.9 899.252C1240.52 893.526 1236.48 886.578 1236.48 886.578C1236.48 886.578 1228.38 896.183 1216.49 893.526C1204.58 890.869 1201.25 883.309 1203.63 875.544C1206.01 867.778 1215.77 867.572 1219.1 869.413C1222.43 871.253 1228.62 875.544 1223.15 880.446C1223.15 880.446 1223.39 874.627 1217.91 874.169C1212.44 873.704 1200.53 879.224 1211.01 887.807C1221.48 896.389 1237.67 884.532 1237.9 877.178C1238.14 869.818 1236 857.761 1224.58 857.15C1213.15 856.539 1205.06 855.31 1187.92 869.413C1170.78 883.515 1161.98 869.612 1140.08 880.652Z" fill="url(#paint25_linear_109_74)"/>
</g>
<g clip-path="url(#clip3_109_74)">
<path d="M372.229 187.176C372.229 187.176 359.013 176.384 341.592 179.468C341.592 179.468 324.32 160.541 313.359 160.459C302.335 160.377 285.131 162.515 291.735 182.04C291.735 182.04 302.469 194.937 311.546 183.291C320.622 171.645 303.133 166.735 301.801 173.471C301.801 173.471 299.931 181.465 308.339 176.555C308.339 176.555 307.94 180.778 304.205 180.552C300.465 180.322 294.859 176.098 299.263 171.418C303.671 166.735 308.339 167.306 314.748 171.645C321.156 175.983 332.771 188.086 347.05 189.114C347.05 189.114 342.82 196.536 331.252 198.247C319.69 199.962 317.551 196.651 308.339 203.046C299.132 209.44 293.258 205.785 293.258 205.785C293.258 205.785 292.911 210.123 290.281 213.322C290.281 213.322 306.873 221.773 318.353 208.067C318.353 208.067 340.512 208.297 352.257 198.021C364.006 187.744 372.229 187.176 372.229 187.176Z" fill="url(#paint26_linear_109_74)"/>
<path d="M191 175.868C191 175.868 201.682 163.079 224.374 169.93C224.374 169.93 237.456 160.11 254.542 163.539C271.628 166.961 271.364 162.4 276.969 160.455C282.575 158.514 289.786 156.005 299.397 160.455C299.397 160.455 290.32 163.88 289.118 170.275C289.118 170.275 278.037 167.421 269.494 171.073C260.951 174.725 255.614 177.011 245.201 174.955C234.787 172.899 227.581 179.98 227.581 179.98C227.581 179.98 239.326 182.493 248.134 191.169C256.946 199.846 254.277 207.384 260.417 211.036C266.556 214.692 278.306 211.266 279.104 205.328C279.907 199.39 280.041 196.536 274.835 195.337C269.628 194.139 261.862 199.832 270.027 203.728C270.027 203.728 266.825 196.02 274.032 197.735C281.243 199.449 275.833 209.722 270.227 209.21C264.626 208.698 260.217 208.698 259.015 204.244C257.814 199.791 259.015 189.065 269.828 188.178C280.64 187.288 292.229 193.11 291.253 203.216C290.281 213.322 278.64 223.94 266.426 220.344C254.212 216.748 250.607 209.381 245.201 202.359C239.794 195.337 231.182 194.139 222.773 190.542C214.365 186.946 214.694 175.753 191 175.868Z" fill="url(#paint27_linear_109_74)"/>
<path d="M342.013 190.543C342.013 190.543 326.402 189.047 318.484 180.266C318.484 180.266 313.281 192.168 302.569 190.543C291.856 188.917 285.148 179.665 288.151 173.415C288.151 173.415 275.833 170.246 266.027 176.154C256.213 182.066 244.398 175.041 234.887 179.579C234.887 179.579 250.008 184.46 255.709 195.594C255.709 195.594 259.814 184.46 273.733 184.72C287.647 184.976 294.859 195.679 295.158 201.591C295.158 201.591 300.065 203.643 307.875 199.019C315.681 194.395 320.089 195.338 325.495 195.338C330.902 195.338 338.611 194.566 342.013 190.543Z" fill="url(#paint28_linear_109_74)"/>
<path d="M293.123 156.117C293.123 156.117 284.714 154.744 281.777 156.117C281.777 156.117 279.573 148.865 268.492 149.206C268.492 149.206 268.734 145.495 262.907 145.384C257.08 145.269 257.349 148.921 260.148 149.381C260.148 149.381 260.504 146.582 262.907 146.809C265.307 147.039 267.428 148.178 265.155 150.691C262.89 153.207 257.349 154.005 254.277 150.747C252.091 148.431 250.008 142.185 257.215 139.331C264.422 136.477 289.986 131.622 293.123 156.117Z" fill="url(#paint29_linear_109_74)"/>
<path d="M327.899 140.871C327.899 140.871 316.084 142.07 312.279 145.154C308.474 148.238 302.669 154.061 294.459 152.175C294.459 152.175 293.856 149.266 292.555 147.38C292.555 147.38 301.866 146.352 302.768 141.813C303.671 137.274 301.167 135.82 298.664 134.621C296.16 133.422 290.554 136.332 293.956 138.733C293.956 138.733 294.256 136.755 296.06 136.929C297.861 137.104 301.566 139.757 297.761 142.155C293.956 144.552 289.153 143.699 286.849 140.871C284.545 138.046 283.647 132.992 286.849 129.481C290.051 125.97 298.564 124.088 303.267 128.883C307.975 133.678 313.082 136.068 316.084 136.929C319.087 137.79 323.795 138.303 327.899 140.871Z" fill="url(#paint30_linear_109_74)"/>
<path d="M269.03 134.962C269.03 134.962 256.503 136.391 252.742 140.043C250.958 141.776 246.802 135.783 241.999 136.929C237.191 138.073 233.85 143.78 239.46 146.523C245.066 149.266 245.201 145.725 245.201 145.725C245.201 145.725 238.306 146.935 239.191 142.3C240.077 137.664 246.802 138.874 248.273 141.272C249.739 143.669 252.143 148.857 247.47 152.543C242.797 156.232 235.057 153.148 233.985 149.036C232.918 144.924 234.653 142.07 230.115 137.846C225.576 133.623 219.836 129.511 219.97 128.141C219.97 128.141 224.643 129.396 229.715 128.141C234.788 126.887 239.191 125.399 247.47 129.626C255.744 133.849 257.527 130.446 269.03 134.962Z" fill="url(#paint31_linear_109_74)"/>
<path d="M353.402 200.764C353.402 200.764 358.422 198.673 360.551 195.174C360.551 195.174 366.727 191.5 368.713 191.294C368.713 191.294 371.66 200.275 384.269 200.764C384.269 200.764 393.098 212.455 382.11 219.1C371.12 225.742 367.193 217.864 369.547 214.373C371.898 210.886 376.076 210.175 377.025 213.222C377.974 216.261 376.137 216.936 374.919 217.029C374.919 217.029 377.812 218.557 379.313 214.452C380.814 210.342 379.993 208.65 374.468 206.905C368.944 205.165 369.997 203.708 367.133 203.279C364.267 202.853 356.993 199.373 353.402 200.764Z" fill="url(#paint32_linear_109_74)"/>
<path d="M310.507 217.43C310.507 217.43 325.723 219.828 328.526 225.651C331.328 231.474 338.67 234.213 343.608 234.213C348.55 234.213 354.424 237.85 354.823 240.593C355.226 243.332 365.386 246.354 369.39 242.245C373.395 238.133 376.802 239.223 383.61 240.593C390.417 241.966 402.527 229.959 402.354 227.822C402.354 227.822 375.112 231.017 370.976 227.822C366.837 224.623 364.569 220.741 364.569 220.741C364.569 220.741 360.03 226.107 353.357 224.623C346.679 223.138 344.81 218.915 346.145 214.576C347.482 210.238 352.954 210.123 354.823 211.151C356.694 212.179 360.164 214.576 357.093 217.315C357.093 217.315 357.227 214.064 354.155 213.808C351.087 213.548 344.41 216.632 350.284 221.427C356.156 226.222 365.237 219.597 365.366 215.489C365.502 211.377 364.3 204.641 357.896 204.3C351.487 203.958 346.948 203.272 337.338 211.151C327.723 219.03 322.785 211.262 310.507 217.43Z" fill="url(#paint33_linear_109_74)"/>
</g>
<g clip-path="url(#clip4_109_74)">
<path d="M504.877 482.895C504.877 482.895 478.195 461.038 443.026 467.284C443.026 467.284 408.155 428.952 386.028 428.786C363.77 428.621 329.038 432.95 342.37 472.493C342.37 472.493 364.041 498.611 382.366 475.026C400.691 451.44 365.381 441.496 362.692 455.138C362.692 455.138 358.917 471.328 375.893 461.384C375.893 461.384 375.087 469.937 367.545 469.479C359.994 469.013 348.677 460.459 357.568 450.981C366.468 441.496 375.893 442.654 388.831 451.44C401.769 460.226 425.217 484.736 454.045 486.818C454.045 486.818 445.505 501.851 422.151 505.316C398.808 508.788 394.489 502.084 375.893 515.034C357.305 527.984 345.445 520.581 345.445 520.581C345.445 520.581 344.744 529.367 339.436 535.846C339.436 535.846 372.932 552.96 396.11 525.203C396.11 525.203 440.844 525.669 464.557 504.857C488.277 484.045 504.877 482.895 504.877 482.895Z" fill="url(#paint34_linear_109_74)"/>
<path d="M139 459.993C139 459.993 160.566 434.092 206.378 447.967C206.378 447.967 232.788 428.08 267.283 435.025C301.778 441.954 301.244 432.717 312.561 428.779C323.879 424.848 338.437 419.767 357.839 428.779C357.839 428.779 339.514 435.716 337.088 448.666C337.088 448.666 314.716 442.886 297.469 450.282C280.221 457.678 269.447 462.308 248.424 458.144C227.401 453.98 212.851 468.321 212.851 468.321C212.851 468.321 236.563 473.409 254.345 490.982C272.136 508.555 266.749 523.82 279.144 531.216C291.538 538.619 315.259 531.682 316.871 519.656C318.491 507.63 318.763 501.85 308.252 499.422C297.74 496.995 282.061 508.524 298.546 516.417C298.546 516.417 292.082 500.806 306.631 504.278C321.189 507.75 310.266 528.555 298.949 527.518C287.64 526.48 278.741 526.48 276.314 517.461C273.888 508.442 276.314 486.72 298.143 484.924C319.972 483.12 343.368 494.913 341.398 515.379C339.435 535.846 315.934 557.349 291.276 550.066C266.617 542.783 259.338 527.864 248.424 513.643C237.509 499.422 220.122 496.995 203.146 489.712C186.17 482.429 186.836 459.76 139 459.993Z" fill="url(#paint35_linear_109_74)"/>
<path d="M443.874 489.712C443.874 489.712 412.359 486.683 396.373 468.9C396.373 468.9 385.87 493.004 364.243 489.712C342.615 486.42 329.073 467.683 335.135 455.025C335.135 455.025 310.266 448.606 290.47 460.572C270.656 472.545 246.804 458.317 227.603 467.51C227.603 467.51 258.13 477.393 269.64 499.942C269.64 499.942 277.926 477.393 306.027 477.919C334.118 478.438 348.677 500.114 349.281 512.088C349.281 512.088 359.188 516.244 374.955 506.879C390.714 497.514 399.613 499.423 410.527 499.423C421.443 499.423 437.008 497.86 443.874 489.712Z" fill="url(#paint36_linear_109_74)"/>
<path d="M345.173 419.993C345.173 419.993 328.197 417.212 322.267 419.993C322.267 419.993 317.817 405.306 295.445 405.998C295.445 405.998 295.936 398.482 284.172 398.256C272.408 398.023 272.951 405.419 278.601 406.351C278.601 406.351 279.319 400.684 284.172 401.142C289.016 401.608 293.299 403.916 288.709 409.004C284.137 414.1 272.951 415.716 266.749 409.117C262.334 404.427 258.13 391.777 272.679 385.997C287.229 380.217 338.84 370.386 345.173 419.993Z" fill="url(#paint37_linear_109_74)"/>
<path d="M415.381 389.117C415.381 389.117 391.528 391.544 383.846 397.79C376.164 404.036 364.444 415.829 347.871 412.01C347.871 412.01 346.653 406.118 344.026 402.3C344.026 402.3 362.823 400.218 364.646 391.026C366.467 381.833 361.413 378.887 356.359 376.459C351.305 374.032 339.987 379.924 346.855 384.787C346.855 384.787 347.459 380.781 351.103 381.134C354.738 381.488 362.219 386.862 354.537 391.717C346.855 396.572 337.158 394.844 332.507 389.117C327.855 383.397 326.042 373.16 332.507 366.049C338.971 358.939 356.158 355.129 365.653 364.839C375.157 374.55 385.467 379.391 391.528 381.134C397.59 382.878 407.095 383.915 415.381 389.117Z" fill="url(#paint38_linear_109_74)"/>
<path d="M296.531 377.151C296.531 377.151 271.243 380.045 263.648 387.44C260.048 390.95 251.656 378.812 241.96 381.134C232.254 383.449 225.509 395.009 236.835 400.564C248.153 406.118 248.424 398.948 248.424 398.948C248.424 398.948 234.505 401.398 236.292 392.01C238.079 382.623 251.656 385.073 254.626 389.928C257.587 394.784 262.439 405.291 253.005 412.755C243.571 420.226 227.944 413.98 225.781 405.652C223.626 397.324 227.13 391.544 217.967 382.991C208.805 374.438 197.216 366.11 197.488 363.336C197.488 363.336 206.922 365.877 217.161 363.336C227.401 360.796 236.292 357.782 253.005 366.343C269.71 374.896 273.31 368.004 296.531 377.151Z" fill="url(#paint39_linear_109_74)"/>
<path d="M466.869 510.413C466.869 510.413 477.003 506.177 481.301 499.091C481.301 499.091 493.77 491.652 497.779 491.234C497.779 491.234 503.729 509.423 529.185 510.413C529.185 510.413 547.009 534.09 524.826 547.546C502.638 560.999 494.71 545.044 499.462 537.974C504.209 530.911 512.644 529.472 514.56 535.643C516.475 541.797 512.767 543.164 510.308 543.352C510.308 543.352 516.149 546.448 519.179 538.134C522.209 529.811 520.552 526.383 509.397 522.849C498.246 519.326 500.37 516.375 494.59 515.506C488.804 514.644 474.119 507.596 466.869 510.413Z" fill="url(#paint40_linear_109_74)"/>
<path d="M380.268 544.165C380.268 544.165 410.989 549.021 416.647 560.813C422.305 572.606 437.125 578.153 447.095 578.153C457.072 578.153 468.931 585.52 469.737 591.074C470.551 596.622 491.061 602.742 499.146 594.421C507.231 586.093 514.111 588.3 527.854 591.074C541.597 593.854 566.045 569.54 565.695 565.21C565.695 565.21 510.697 571.682 502.349 565.21C493.992 558.731 489.412 550.87 489.412 550.87C489.412 550.87 480.249 561.738 466.778 558.731C453.296 555.725 449.522 547.172 452.218 538.385C454.916 529.599 465.963 529.366 469.737 531.448C473.513 533.53 480.521 538.385 474.32 543.932C474.32 543.932 474.591 537.348 468.388 536.829C462.195 536.303 448.715 542.549 460.574 552.26C472.428 561.971 490.761 548.555 491.022 540.234C491.296 531.906 488.869 518.265 475.94 517.573C463.001 516.882 453.838 515.491 434.437 531.448C415.026 547.405 405.057 531.673 380.268 544.165Z" fill="url(#paint41_linear_109_74)"/>
</g>
<defs>
<linearGradient id="paint0_linear_109_74" x1="720" y1="0" x2="720" y2="1024" gradientUnits="userSpaceOnUse">
<stop offset="0.333333" stop-color="#F0BD63"/>
<stop offset="1" stop-color="#FF9800" stop-opacity="0"/>
</linearGradient>
<linearGradient id="paint1_linear_109_74" x1="267.678" y1="716.799" x2="272.39" y2="833.055" gradientUnits="userSpaceOnUse">
<stop stop-color="white"/>
<stop offset="1" stop-color="white" stop-opacity="0"/>
</linearGradient>
<linearGradient id="paint2_linear_109_74" x1="1120.42" y1="129.095" x2="1120.42" y2="227.401" gradientUnits="userSpaceOnUse">
<stop stop-color="white"/>
<stop offset="1" stop-color="white" stop-opacity="0"/>
</linearGradient>
<linearGradient id="paint3_linear_109_74" x1="968.614" y1="124.69" x2="968.614" y2="236.551" gradientUnits="userSpaceOnUse">
<stop stop-color="white"/>
<stop offset="1" stop-color="white" stop-opacity="0"/>
</linearGradient>
<linearGradient id="paint4_linear_109_74" x1="1044.92" y1="150.566" x2="1044.92" y2="202.836" gradientUnits="userSpaceOnUse">
<stop stop-color="white"/>
<stop offset="1" stop-color="white" stop-opacity="0"/>
</linearGradient>
<linearGradient id="paint5_linear_109_74" x1="1017.08" y1="87.3782" x2="1017.08" y2="121.4" gradientUnits="userSpaceOnUse">
<stop stop-color="white"/>
<stop offset="1" stop-color="white" stop-opacity="0"/>
</linearGradient>
<linearGradient id="paint6_linear_109_74" x1="1076.47" y1="68" x2="1076.47" y2="115.064" gradientUnits="userSpaceOnUse">
<stop stop-color="white"/>
<stop offset="1" stop-color="white" stop-opacity="0"/>
</linearGradient>
<linearGradient id="paint7_linear_109_74" x1="967.38" y1="69.4678" x2="967.38" y2="117.988" gradientUnits="userSpaceOnUse">
<stop stop-color="white"/>
<stop offset="1" stop-color="white" stop-opacity="0"/>
</linearGradient>
<linearGradient id="paint8_linear_109_74" x1="1166.55" y1="198.948" x2="1214.23" y2="230.94" gradientUnits="userSpaceOnUse">
<stop stop-color="white"/>
<stop offset="1" stop-color="white" stop-opacity="0"/>
</linearGradient>
<linearGradient id="paint9_linear_109_74" x1="1148.49" y1="206.511" x2="1148.49" y2="279" gradientUnits="userSpaceOnUse">
<stop stop-color="white"/>
<stop offset="1" stop-color="white" stop-opacity="0"/>
</linearGradient>
<linearGradient id="paint10_linear_109_74" x1="1217.07" y1="423.675" x2="1217.07" y2="522.912" gradientUnits="userSpaceOnUse">
<stop stop-color="white"/>
<stop offset="1" stop-color="white" stop-opacity="0"/>
</linearGradient>
<linearGradient id="paint11_linear_109_74" x1="1063.64" y1="419.228" x2="1063.64" y2="532.148" gradientUnits="userSpaceOnUse">
<stop stop-color="white"/>
<stop offset="1" stop-color="white" stop-opacity="0"/>
</linearGradient>
<linearGradient id="paint12_linear_109_74" x1="1140.76" y1="445.349" x2="1140.76" y2="498.114" gradientUnits="userSpaceOnUse">
<stop stop-color="white"/>
<stop offset="1" stop-color="white" stop-opacity="0"/>
</linearGradient>
<linearGradient id="paint13_linear_109_74" x1="1112.62" y1="381.562" x2="1112.62" y2="415.906" gradientUnits="userSpaceOnUse">
<stop stop-color="white"/>
<stop offset="1" stop-color="white" stop-opacity="0"/>
</linearGradient>
<linearGradient id="paint14_linear_109_74" x1="1172.64" y1="362" x2="1172.64" y2="409.51" gradientUnits="userSpaceOnUse">
<stop stop-color="white"/>
<stop offset="1" stop-color="white" stop-opacity="0"/>
</linearGradient>
<linearGradient id="paint15_linear_109_74" x1="1062.39" y1="363.482" x2="1062.39" y2="412.462" gradientUnits="userSpaceOnUse">
<stop stop-color="white"/>
<stop offset="1" stop-color="white" stop-opacity="0"/>
</linearGradient>
<linearGradient id="paint16_linear_109_74" x1="1263.69" y1="494.189" x2="1311.85" y2="526.538" gradientUnits="userSpaceOnUse">
<stop stop-color="white"/>
<stop offset="1" stop-color="white" stop-opacity="0"/>
</linearGradient>
<linearGradient id="paint17_linear_109_74" x1="1245.44" y1="501.823" x2="1245.44" y2="575" gradientUnits="userSpaceOnUse">
<stop stop-color="white"/>
<stop offset="1" stop-color="white" stop-opacity="0"/>
</linearGradient>
<linearGradient id="paint18_linear_109_74" x1="1177.07" y1="778.675" x2="1177.07" y2="877.912" gradientUnits="userSpaceOnUse">
<stop stop-color="white"/>
<stop offset="1" stop-color="white" stop-opacity="0"/>
</linearGradient>
<linearGradient id="paint19_linear_109_74" x1="1023.64" y1="774.228" x2="1023.64" y2="887.148" gradientUnits="userSpaceOnUse">
<stop stop-color="white"/>
<stop offset="1" stop-color="white" stop-opacity="0"/>
</linearGradient>
<linearGradient id="paint20_linear_109_74" x1="1100.76" y1="800.349" x2="1100.76" y2="853.114" gradientUnits="userSpaceOnUse">
<stop stop-color="white"/>
<stop offset="1" stop-color="white" stop-opacity="0"/>
</linearGradient>
<linearGradient id="paint21_linear_109_74" x1="1072.62" y1="736.562" x2="1072.62" y2="770.906" gradientUnits="userSpaceOnUse">
<stop stop-color="white"/>
<stop offset="1" stop-color="white" stop-opacity="0"/>
</linearGradient>
<linearGradient id="paint22_linear_109_74" x1="1132.64" y1="717" x2="1132.64" y2="764.51" gradientUnits="userSpaceOnUse">
<stop stop-color="white"/>
<stop offset="1" stop-color="white" stop-opacity="0"/>
</linearGradient>
<linearGradient id="paint23_linear_109_74" x1="1022.39" y1="718.482" x2="1022.39" y2="767.462" gradientUnits="userSpaceOnUse">
<stop stop-color="white"/>
<stop offset="1" stop-color="white" stop-opacity="0"/>
</linearGradient>
<linearGradient id="paint24_linear_109_74" x1="1223.69" y1="849.189" x2="1271.85" y2="881.538" gradientUnits="userSpaceOnUse">
<stop stop-color="white"/>
<stop offset="1" stop-color="white" stop-opacity="0"/>
</linearGradient>
<linearGradient id="paint25_linear_109_74" x1="1205.44" y1="856.823" x2="1205.44" y2="930" gradientUnits="userSpaceOnUse">
<stop stop-color="white"/>
<stop offset="1" stop-color="white" stop-opacity="0"/>
</linearGradient>
<linearGradient id="paint26_linear_109_74" x1="331.248" y1="160.457" x2="331.248" y2="215.899" gradientUnits="userSpaceOnUse">
<stop stop-color="white"/>
<stop offset="1" stop-color="white" stop-opacity="0"/>
</linearGradient>
<linearGradient id="paint27_linear_109_74" x1="245.198" y1="157.972" x2="245.198" y2="221.059" gradientUnits="userSpaceOnUse">
<stop stop-color="white"/>
<stop offset="1" stop-color="white" stop-opacity="0"/>
</linearGradient>
<linearGradient id="paint28_linear_109_74" x1="288.45" y1="172.566" x2="288.45" y2="202.045" gradientUnits="userSpaceOnUse">
<stop stop-color="white"/>
<stop offset="1" stop-color="white" stop-opacity="0"/>
</linearGradient>
<linearGradient id="paint29_linear_109_74" x1="272.67" y1="136.929" x2="272.67" y2="156.117" gradientUnits="userSpaceOnUse">
<stop stop-color="white"/>
<stop offset="1" stop-color="white" stop-opacity="0"/>
</linearGradient>
<linearGradient id="paint30_linear_109_74" x1="306.335" y1="126" x2="306.335" y2="152.543" gradientUnits="userSpaceOnUse">
<stop stop-color="white"/>
<stop offset="1" stop-color="white" stop-opacity="0"/>
</linearGradient>
<linearGradient id="paint31_linear_109_74" x1="244.499" y1="126.828" x2="244.499" y2="154.192" gradientUnits="userSpaceOnUse">
<stop stop-color="white"/>
<stop offset="1" stop-color="white" stop-opacity="0"/>
</linearGradient>
<linearGradient id="paint32_linear_109_74" x1="357.397" y1="199.852" x2="384.341" y2="218.021" gradientUnits="userSpaceOnUse">
<stop stop-color="white"/>
<stop offset="1" stop-color="white" stop-opacity="0"/>
</linearGradient>
<linearGradient id="paint33_linear_109_74" x1="347.16" y1="204.117" x2="347.16" y2="245" gradientUnits="userSpaceOnUse">
<stop stop-color="white"/>
<stop offset="1" stop-color="white" stop-opacity="0"/>
</linearGradient>
<linearGradient id="paint34_linear_109_74" x1="422.143" y1="428.782" x2="422.143" y2="541.065" gradientUnits="userSpaceOnUse">
<stop stop-color="white"/>
<stop offset="1" stop-color="white" stop-opacity="0"/>
</linearGradient>
<linearGradient id="paint35_linear_109_74" x1="248.42" y1="423.75" x2="248.42" y2="551.515" gradientUnits="userSpaceOnUse">
<stop stop-color="white"/>
<stop offset="1" stop-color="white" stop-opacity="0"/>
</linearGradient>
<linearGradient id="paint36_linear_109_74" x1="335.739" y1="453.306" x2="335.739" y2="513.007" gradientUnits="userSpaceOnUse">
<stop stop-color="white"/>
<stop offset="1" stop-color="white" stop-opacity="0"/>
</linearGradient>
<linearGradient id="paint37_linear_109_74" x1="303.88" y1="381.133" x2="303.88" y2="419.993" gradientUnits="userSpaceOnUse">
<stop stop-color="white"/>
<stop offset="1" stop-color="white" stop-opacity="0"/>
</linearGradient>
<linearGradient id="paint38_linear_109_74" x1="371.846" y1="359" x2="371.846" y2="412.755" gradientUnits="userSpaceOnUse">
<stop stop-color="white"/>
<stop offset="1" stop-color="white" stop-opacity="0"/>
</linearGradient>
<linearGradient id="paint39_linear_109_74" x1="247.007" y1="360.676" x2="247.007" y2="416.095" gradientUnits="userSpaceOnUse">
<stop stop-color="white"/>
<stop offset="1" stop-color="white" stop-opacity="0"/>
</linearGradient>
<linearGradient id="paint40_linear_109_74" x1="474.933" y1="508.566" x2="529.437" y2="545.204" gradientUnits="userSpaceOnUse">
<stop stop-color="white"/>
<stop offset="1" stop-color="white" stop-opacity="0"/>
</linearGradient>
<linearGradient id="paint41_linear_109_74" x1="454.266" y1="517.204" x2="454.266" y2="600" gradientUnits="userSpaceOnUse">
<stop stop-color="white"/>
<stop offset="1" stop-color="white" stop-opacity="0"/>
</linearGradient>
<clipPath id="clip0_109_74">
<rect width="374" height="211" fill="white" transform="translate(873 68)"/>
</clipPath>
<clipPath id="clip1_109_74">
<rect width="378" height="213" fill="white" transform="translate(967 362)"/>
</clipPath>
<clipPath id="clip2_109_74">
<rect width="378" height="213" fill="white" transform="translate(927 717)"/>
</clipPath>
<clipPath id="clip3_109_74">
<rect width="212" height="119" fill="white" transform="translate(191 126)"/>
</clipPath>
<clipPath id="clip4_109_74">
<rect width="428" height="241" fill="white" transform="translate(139 359)"/>
</clipPath>
</defs>
</svg>
