<svg width="92" height="92" viewBox="0 0 92 92" fill="none" xmlns="http://www.w3.org/2000/svg">
<g filter="url(#filter0_b_300_24)">
<circle cx="46" cy="46" r="46" fill="url(#paint0_linear_300_24)"/>
</g>
<path d="M69.0611 11H34.9316C31.988 11 29.5989 13.5103 29.5989 16.6034V42.3793H21.0665C20.4799 42.3793 20 42.8836 20 43.5V69.8362C20 73.2319 22.6344 76 25.866 76H69.0611C72.0047 76 74.3938 73.4897 74.3938 70.3965V16.6034C74.3938 13.5103 72.0047 11 69.0611 11ZM22.1331 69.8362V44.6207H29.5989V69.8362C29.5989 71.9991 27.9244 73.7586 25.866 73.7586C23.8076 73.7586 22.1331 71.9991 22.1331 69.8362ZM72.2607 70.3965C72.2607 72.2457 70.8209 73.7586 69.0611 73.7586H31.732V16.6034C31.732 14.7543 33.1718 13.2414 34.9316 13.2414H69.0611C70.8209 13.2414 72.2607 14.7543 72.2607 16.6034V70.3965Z" fill="#173475"/>
<path d="M41.6829 32.6742C44.3172 32.6742 46.8343 31.4862 48.5834 29.413C48.6687 29.3121 48.7327 29.2 48.7754 29.088C48.8607 28.875 48.8714 28.6285 48.818 28.4043C48.2848 26.0845 46.7809 24.2466 44.8292 23.2716C45.5224 22.4759 45.9597 21.4225 45.9597 20.2569C45.9597 17.7802 44.0399 15.763 41.6829 15.763C39.3258 15.763 37.406 17.7802 37.406 20.2569C37.406 21.4225 37.8433 22.4759 38.5366 23.2716C36.6061 24.2354 35.1129 26.0397 34.569 28.3259C34.4944 28.5725 34.505 28.8414 34.601 29.088C34.6543 29.2225 34.729 29.3457 34.8357 29.4578C36.5635 31.5087 39.0592 32.6742 41.6829 32.6742ZM39.5391 20.2569C39.5391 19.013 40.499 18.0044 41.6829 18.0044C42.8667 18.0044 43.8266 19.013 43.8266 20.2569C43.8266 21.5009 42.8667 22.5095 41.6935 22.5095H41.6829H41.6722C40.499 22.5095 39.5391 21.5009 39.5391 20.2569ZM41.6722 24.7509C41.6722 24.7509 41.6829 24.7621 41.6722 24.7509C41.6829 24.7509 41.6829 24.7509 41.6935 24.7509C43.9119 24.7509 45.8531 26.2078 46.589 28.3595C45.2771 29.6819 43.5173 30.4216 41.6829 30.4216C39.8484 30.4216 38.0886 29.6707 36.7874 28.3595C37.5233 26.219 39.4538 24.7621 41.6722 24.7509Z" fill="black"/>
<path d="M53.1056 21.3776H58.5876C59.1742 21.3776 59.6542 20.8733 59.6542 20.2569C59.6542 19.6405 59.1742 19.1362 58.5876 19.1362H53.1056C52.519 19.1362 52.0391 19.6405 52.0391 20.2569C52.0391 20.8733 52.5083 21.3776 53.1056 21.3776Z" fill="black"/>
<path d="M53.1056 27.7655H67.9626C68.5492 27.7655 69.0291 27.2612 69.0291 26.6448C69.0291 26.0285 68.5492 25.5241 67.9626 25.5241H53.1056C52.519 25.5241 52.0391 26.0285 52.0391 26.6448C52.0391 27.2612 52.5083 27.7655 53.1056 27.7655Z" fill="black"/>
<path d="M71.7301 38.0301H36.9686C36.3388 38.0301 35.8236 38.5657 35.8236 39.2203C35.8236 39.8749 36.3388 40.4105 36.9686 40.4105H71.7186C72.3483 40.4105 72.8636 39.8749 72.8636 39.2203C72.8636 38.5657 72.3598 38.0301 71.7301 38.0301Z" fill="#173475"/>
<path d="M68.1865 43.657H35.8062C35.2196 43.657 34.7396 44.1613 34.7396 44.7776C34.7396 45.394 35.2196 45.8983 35.8062 45.8983H68.1758C68.7624 45.8983 69.2423 45.394 69.2423 44.7776C69.2423 44.1613 68.7731 43.657 68.1865 43.657Z" fill="#173475"/>
<path d="M68.1865 50.8629H35.8062C35.2196 50.8629 34.7396 51.3673 34.7396 51.9836C34.7396 52.6 35.2196 53.1043 35.8062 53.1043H68.1758C68.7624 53.1043 69.2423 52.6 69.2423 51.9836C69.2423 51.3673 68.7731 50.8629 68.1865 50.8629Z" fill="black"/>
<path d="M68.1865 58.069H35.8062C35.2196 58.069 34.7396 58.5733 34.7396 59.1897C34.7396 59.8061 35.2196 60.3104 35.8062 60.3104H68.1758C68.7624 60.3104 69.2423 59.8061 69.2423 59.1897C69.2423 58.5733 68.7731 58.069 68.1865 58.069Z" fill="black"/>
<path d="M68.1865 65.275H35.8062C35.2196 65.275 34.7396 65.7793 34.7396 66.3957C34.7396 67.0121 35.2196 67.5164 35.8062 67.5164H68.1758C68.7624 67.5164 69.2423 67.0121 69.2423 66.3957C69.2423 65.7793 68.7731 65.275 68.1865 65.275Z" fill="black"/>
<defs>
<filter id="filter0_b_300_24" x="-4" y="-4" width="100" height="100" filterUnits="userSpaceOnUse" color-interpolation-filters="sRGB">
<feFlood flood-opacity="0" result="BackgroundImageFix"/>
<feGaussianBlur in="BackgroundImageFix" stdDeviation="2"/>
<feComposite in2="SourceAlpha" operator="in" result="effect1_backgroundBlur_300_24"/>
<feBlend mode="normal" in="SourceGraphic" in2="effect1_backgroundBlur_300_24" result="shape"/>
</filter>
<linearGradient id="paint0_linear_300_24" x1="46" y1="0" x2="46" y2="92" gradientUnits="userSpaceOnUse">
<stop stop-color="#FCCC77"/>
<stop offset="1" stop-color="#FCCC77" stop-opacity="0"/>
</linearGradient>
</defs>
</svg>
