<svg width="92" height="92" viewBox="0 0 92 92" fill="none" xmlns="http://www.w3.org/2000/svg">
<g filter="url(#filter0_b_300_23)">
<circle cx="46" cy="46" r="46" fill="url(#paint0_linear_300_23)"/>
</g>
<path d="M68.5987 14.2816C68.5987 12.4722 67.1716 11 65.4176 11H24.181C22.427 11 21 12.4722 21 14.2816V77.179C21 78.9884 22.427 80.4606 24.181 80.4606H55.5539C55.8327 80.4609 56.1064 80.3426 56.3038 80.1402L68.2881 67.7769C68.4848 67.573 68.5979 67.2915 68.5987 67.0034V14.2816ZM23.1207 77.179V14.2816C23.1207 13.6785 23.5964 13.1877 24.181 13.1877H65.4176C66.0023 13.1877 66.478 13.6785 66.478 14.2816V65.9095H55.5539C54.9684 65.9095 54.4936 66.3993 54.4936 67.0034V78.2728H24.181C23.5964 78.2728 23.1207 77.7821 23.1207 77.179ZM56.6143 76.7259V68.0973H64.9785L56.6143 76.7259Z" fill="#173475"/>
<path d="M28.277 21.5048H29.6761V27.8534C29.6761 28.4575 30.1508 28.9473 30.7364 28.9473C31.3221 28.9473 31.7968 28.4575 31.7968 27.8534V21.5048H33.1959C33.7816 21.5048 34.2563 21.015 34.2563 20.411C34.2563 19.8069 33.7816 19.3171 33.1959 19.3171H28.277C27.6914 19.3171 27.2167 19.8069 27.2167 20.411C27.2167 21.015 27.6914 21.5048 28.277 21.5048Z" fill="black"/>
<path d="M43.2263 27.8534C43.2263 27.2494 42.7516 26.7596 42.1659 26.7596H39.3276V25.2261H40.7267C41.3124 25.2261 41.7871 24.7364 41.7871 24.1323C41.7871 23.5282 41.3124 23.0384 40.7267 23.0384H39.3276V21.5048H42.1659C42.7516 21.5048 43.2263 21.015 43.2263 20.411C43.2263 19.8069 42.7516 19.3171 42.1659 19.3171H38.2673C37.6816 19.3171 37.2069 19.8069 37.2069 20.411V27.8534C37.2069 28.4575 37.6816 28.9473 38.2673 28.9473H42.1659C42.7516 28.9473 43.2263 28.4575 43.2263 27.8534Z" fill="black"/>
<path d="M56.9329 21.5048H58.332V27.8534C58.332 28.4575 58.8068 28.9473 59.3923 28.9473C59.9779 28.9473 60.4527 28.4575 60.4527 27.8534V21.5048H61.8519C62.4374 21.5048 62.9122 21.015 62.9122 20.411C62.9122 19.8069 62.4374 19.3171 61.8519 19.3171H56.9329C56.3473 19.3171 55.8726 19.8069 55.8726 20.411C55.8726 21.015 56.3473 21.5048 56.9329 21.5048Z" fill="black"/>
<path d="M50.7885 26.7596H47.6731C47.0876 26.7596 46.6128 27.2494 46.6128 27.8534C46.6128 28.4575 47.0876 28.9473 47.6731 28.9473H50.7885C52.3677 28.9473 53.6524 27.6219 53.6524 25.9929C53.6524 24.3638 52.3677 23.0384 50.7885 23.0384H49.4768C49.0669 23.0384 48.7335 22.6944 48.7335 22.2715C48.7335 21.8488 49.0669 21.5048 49.4768 21.5048H52.5921C53.1777 21.5048 53.6524 21.015 53.6524 20.411C53.6524 19.8069 53.1777 19.3171 52.5921 19.3171H49.4768C47.8976 19.3171 46.6128 20.6425 46.6128 22.2715C46.6128 23.9007 47.8976 25.2261 49.4768 25.2261H50.7885C51.1983 25.2261 51.5318 25.5701 51.5318 25.9929C51.5318 26.4156 51.1983 26.7596 50.7885 26.7596Z" fill="black"/>
<path d="M35.811 33.731H28.277C27.6914 33.731 27.2167 34.2208 27.2167 34.8249V42.5972C27.2167 43.2013 27.6914 43.691 28.277 43.691H35.811C36.3966 43.691 36.8713 43.2013 36.8713 42.5972V34.8249C36.8713 34.2208 36.3966 33.731 35.811 33.731ZM34.7506 41.5033H29.3374V35.9187H34.7506V41.5033Z" fill="black"/>
<path d="M35.811 47.7697H28.277C27.6914 47.7697 27.2167 48.2595 27.2167 48.8636V56.6357C27.2167 57.2398 27.6914 57.7296 28.277 57.7296H35.811C36.3966 57.7296 36.8713 57.2398 36.8713 56.6357V48.8636C36.8713 48.2595 36.3966 47.7697 35.811 47.7697ZM34.7506 55.5419H29.3374V49.9574H34.7506V55.5419Z" fill="black"/>
<path d="M35.811 61.8082H28.277C27.6914 61.8082 27.2167 62.298 27.2167 62.9021V70.6744C27.2167 71.2785 27.6914 71.7683 28.277 71.7683H35.811C36.3966 71.7683 36.8713 71.2785 36.8713 70.6744V62.9021C36.8713 62.298 36.3966 61.8082 35.811 61.8082ZM34.7506 69.5805H29.3374V63.996H34.7506V69.5805Z" fill="black"/>
<path d="M61.8519 37.6172H42.943C42.3574 37.6172 41.8827 38.107 41.8827 38.7111C41.8827 39.3152 42.3574 39.805 42.943 39.805H61.8519C62.4374 39.805 62.9122 39.3152 62.9122 38.7111C62.9122 38.107 62.4374 37.6172 61.8519 37.6172Z" fill="#173475"/>
<path d="M61.8519 51.6558H42.943C42.3574 51.6558 41.8827 52.1456 41.8827 52.7497C41.8827 53.3537 42.3574 53.8435 42.943 53.8435H61.8519C62.4374 53.8435 62.9122 53.3537 62.9122 52.7497C62.9122 52.1456 62.4374 51.6558 61.8519 51.6558Z" fill="#173475"/>
<path d="M50.1327 65.6943H42.943C42.3574 65.6943 41.8827 66.1841 41.8827 66.7881C41.8827 67.3922 42.3574 67.882 42.943 67.882H50.1327C50.7183 67.882 51.193 67.3922 51.193 66.7881C51.193 66.1841 50.7183 65.6943 50.1327 65.6943Z" fill="#173475"/>
<defs>
<filter id="filter0_b_300_23" x="-4" y="-4" width="100" height="100" filterUnits="userSpaceOnUse" color-interpolation-filters="sRGB">
<feFlood flood-opacity="0" result="BackgroundImageFix"/>
<feGaussianBlur in="BackgroundImageFix" stdDeviation="2"/>
<feComposite in2="SourceAlpha" operator="in" result="effect1_backgroundBlur_300_23"/>
<feBlend mode="normal" in="SourceGraphic" in2="effect1_backgroundBlur_300_23" result="shape"/>
</filter>
<linearGradient id="paint0_linear_300_23" x1="46" y1="0" x2="46" y2="92" gradientUnits="userSpaceOnUse">
<stop stop-color="#FCCC77"/>
<stop offset="1" stop-color="#FCCC77" stop-opacity="0"/>
</linearGradient>
</defs>
</svg>
