<svg width="92" height="92" viewBox="0 0 92 92" fill="none" xmlns="http://www.w3.org/2000/svg">
<g filter="url(#filter0_b_300_25)">
<circle cx="46" cy="46" r="46" fill="url(#paint0_linear_300_25)"/>
</g>
<path d="M34.5669 26.0052C35.585 25.0665 36.6884 24.2483 37.8773 23.5506C39.0662 22.8529 40.3137 22.2915 41.6198 21.8662C42.9259 21.441 44.2612 21.1616 45.6257 21.028C46.9901 20.8944 48.353 20.9096 49.7142 21.0736C50.6593 21.1891 51.5912 21.3741 52.5099 21.6288C53.4286 21.8834 54.3243 22.2049 55.1971 22.5932C56.0699 22.9816 56.9105 23.4327 57.7189 23.9466C58.5273 24.4604 59.295 25.0316 60.0219 25.6601C60.7487 26.2886 61.4272 26.9678 62.0571 27.6975C62.687 28.4273 63.2618 29.2 63.7815 30.0157C64.3012 30.8313 64.7602 31.6812 65.1585 32.5653C65.5568 33.4495 65.8903 34.3585 66.1589 35.2924C66.4275 36.2264 66.6284 37.1753 66.7615 38.1393C66.8947 39.1032 66.9587 40.0719 66.9536 41.0454C66.9485 42.0189 66.8743 42.9869 66.731 43.9493C66.5877 44.9117 66.3769 45.8584 66.0985 46.7893C65.8201 47.7202 65.477 48.6256 65.0694 49.5053C64.6618 50.385 64.1939 51.2298 63.6657 52.0396C63.1375 52.8495 62.5546 53.6158 61.917 54.3386C61.2794 55.0615 60.5939 55.7331 59.8605 56.3535C59.1785 56.9539 58.6542 57.6743 58.2876 58.5148C57.921 59.3552 57.747 60.2355 57.7657 61.1556V64.997C57.7646 65.5884 57.7072 66.174 57.5935 66.7539C57.4797 67.3337 57.3119 67.8967 57.0899 68.4428C56.8679 68.9888 56.5961 69.5076 56.2743 69.9989C55.9526 70.4903 55.5871 70.9449 55.178 71.3628C54.7688 71.7807 54.3238 72.1538 53.8429 72.4821C53.3619 72.8104 52.8544 73.0877 52.3201 73.3139C51.7859 73.5402 51.2352 73.711 50.6681 73.8264C50.1011 73.9419 49.5284 73.9997 48.9502 74H46.0491C45.4709 73.9997 44.8983 73.9419 44.3312 73.8264C43.7641 73.711 43.2134 73.5402 42.6792 73.3139C42.145 73.0877 41.6374 72.8104 41.1565 72.4821C40.6756 72.1538 40.2305 71.7807 39.8214 71.3628C39.4122 70.9449 39.0468 70.4903 38.725 69.9989C38.4033 69.5076 38.1314 68.9888 37.9094 68.4428C37.6875 67.8967 37.5196 67.3337 37.4059 66.7539C37.2922 66.1741 37.2348 65.5884 37.2336 64.997V61.1556C37.2392 60.2137 37.0495 59.3148 36.6645 58.4591C36.2795 57.6034 35.7354 56.8713 35.0323 56.2629C34.4969 55.8027 33.9872 55.3145 33.5029 54.7984C33.0187 54.2824 32.5628 53.7413 32.1353 53.1753C31.7077 52.6093 31.3109 52.0215 30.9449 51.412C30.5789 50.8025 30.2458 50.1748 29.9455 49.5288C29.6452 48.8828 29.3796 48.2223 29.1485 47.5472C28.9174 46.8721 28.7222 46.1863 28.5629 45.4898C28.4037 44.7933 28.2812 44.0901 28.1956 43.3802C28.11 42.6704 28.0617 41.9578 28.0507 41.2426C28.0397 40.5274 28.066 39.8137 28.1298 39.1014C28.1935 38.3891 28.2943 37.6823 28.4321 36.9811C28.5698 36.2798 28.7438 35.5881 28.954 34.9059C29.1642 34.2237 29.4095 33.5549 29.6897 32.8996C29.97 32.2443 30.2836 31.6061 30.6307 30.9852C30.9778 30.3642 31.3563 29.764 31.7663 29.1845C32.1762 28.605 32.6152 28.0495 33.0833 27.5181C33.5514 26.9867 34.046 26.4824 34.5669 26.0052V26.0052ZM64.7049 39.1486C64.609 38.1492 64.4314 37.1653 64.172 36.1968C63.9127 35.2283 63.5753 34.2891 63.16 33.3792C62.7446 32.4694 62.2572 31.6018 61.6977 30.7767C61.1383 29.9515 60.5147 29.1805 59.8272 28.4637C59.1396 27.7469 58.3979 27.0945 57.602 26.5066C56.8061 25.9187 55.9674 25.4036 55.0859 24.9615C54.2044 24.5193 53.2928 24.1564 52.351 23.8726C51.4092 23.5889 50.4508 23.3884 49.4757 23.2712C49.1752 23.2369 48.8791 23.2388 48.5803 23.2199V27.5789C48.8641 27.5789 49.1452 27.6072 49.4236 27.6639C49.702 27.7205 49.9722 27.8044 50.2345 27.9155C50.4967 28.0266 50.7458 28.1627 50.9818 28.324C51.2178 28.4853 51.4361 28.6686 51.6368 28.8738C51.8375 29.0791 52.0167 29.3024 52.1744 29.5438C52.332 29.7851 52.4652 30.0399 52.5738 30.3081C52.6824 30.5763 52.7644 30.8528 52.8198 31.1375C52.8752 31.4222 52.9028 31.7097 52.9028 32C52.9028 32.2903 52.8752 32.5778 52.8198 32.8625C52.7644 33.1472 52.6824 33.4236 52.5738 33.6918C52.4652 33.96 52.332 34.2148 52.1744 34.4562C52.0167 34.6976 51.8375 34.9209 51.6368 35.1261C51.4361 35.3314 51.2178 35.5147 50.9818 35.676C50.7458 35.8372 50.4967 35.9734 50.2345 36.0845C49.9722 36.1956 49.702 36.2795 49.4236 36.3361C49.1452 36.3927 48.8641 36.421 48.5803 36.421V43.0526H52.9028C52.9028 42.7623 52.9305 42.4748 52.9859 42.1901C53.0413 41.9054 53.1233 41.6289 53.2319 41.3607C53.3405 41.0926 53.4736 40.8378 53.6313 40.5964C53.789 40.355 53.9682 40.1317 54.1689 39.9265C54.3696 39.7212 54.5879 39.5379 54.8239 39.3766C55.0599 39.2154 55.309 39.0792 55.5712 38.9681C55.8334 38.857 56.1037 38.7731 56.3821 38.7165C56.6605 38.6599 56.9415 38.6316 57.2254 38.6316C57.5092 38.6316 57.7903 38.6599 58.0687 38.7165C58.347 38.7731 58.6173 38.857 58.8795 38.9681C59.1418 39.0792 59.3909 39.2154 59.6268 39.3766C59.8628 39.5379 60.0812 39.7212 60.2819 39.9265C60.4826 40.1317 60.6617 40.355 60.8194 40.5964C60.9771 40.8378 61.1103 41.0926 61.2189 41.3607C61.3275 41.6289 61.4095 41.9054 61.4648 42.1901C61.5202 42.4748 61.5479 42.7623 61.5479 43.0526H64.6537C64.8094 41.7532 64.8264 40.4518 64.7049 39.1486ZM58.4822 54.6503C59.9093 53.4408 61.1162 52.0337 62.1029 50.4291C63.0897 48.8245 63.807 47.1025 64.255 45.2631H60.4673C60.324 45.2632 60.1861 45.2352 60.0537 45.1791C59.9213 45.123 59.8044 45.0432 59.7031 44.9395C59.6017 44.8359 59.5236 44.7163 59.4688 44.5809C59.414 44.4455 59.3866 44.3045 59.3866 44.1579V43.0526C59.3866 42.7595 59.3318 42.4775 59.2221 42.2067C59.1124 41.9359 58.9563 41.6968 58.7536 41.4895C58.551 41.2823 58.3172 41.1225 58.0525 41.0104C57.7877 40.8982 57.512 40.8421 57.2254 40.8421C56.9388 40.8421 56.6631 40.8982 56.3983 41.0104C56.1335 41.1225 55.8998 41.2823 55.6971 41.4895C55.4945 41.6968 55.3383 41.9359 55.2286 42.2067C55.1189 42.4775 55.0641 42.7595 55.0641 43.0526V44.1579C55.0641 44.3045 55.0367 44.4455 54.9819 44.5809C54.9271 44.7163 54.849 44.8359 54.7477 44.9395C54.6463 45.0432 54.5295 45.123 54.397 45.1791C54.2646 45.2352 54.1268 45.2632 53.9835 45.2631H48.5803V48.5789C48.8641 48.5789 49.1452 48.6072 49.4236 48.6639C49.702 48.7205 49.9722 48.8044 50.2345 48.9155C50.4967 49.0265 50.7458 49.1627 50.9818 49.324C51.2178 49.4853 51.4361 49.6686 51.6368 49.8738C51.8375 50.0791 52.0167 50.3024 52.1744 50.5438C52.332 50.7851 52.4652 51.0399 52.5738 51.3081C52.6824 51.5763 52.7644 51.8528 52.8198 52.1375C52.8752 52.4222 52.9028 52.7097 52.9028 53C52.9028 53.2903 52.8752 53.5778 52.8198 53.8625C52.7644 54.1472 52.6824 54.4237 52.5738 54.6918C52.4652 54.96 52.332 55.2148 52.1744 55.4562C52.0167 55.6976 51.8375 55.9209 51.6368 56.1261C51.4361 56.3314 51.2178 56.5147 50.9818 56.6759C50.7458 56.8372 50.4967 56.9734 50.2345 57.0845C49.9722 57.1956 49.702 57.2795 49.4236 57.3361C49.1452 57.3927 48.8641 57.421 48.5803 57.421V60.7368H55.6257C55.6596 59.5615 55.9253 58.4438 56.4228 57.3837C56.9203 56.3236 57.6068 55.4125 58.4822 54.6503ZM46.0491 71.7895H48.9502C49.5253 71.7889 50.0908 71.7134 50.6468 71.5629C51.2027 71.4123 51.7307 71.1918 52.2308 70.9012C52.7308 70.6107 53.1863 70.2597 53.5974 69.8483C54.0084 69.4369 54.3614 68.9787 54.6562 68.4737H40.3431C40.638 68.9787 40.9909 69.4369 41.402 69.8483C41.813 70.2597 42.2686 70.6107 42.7686 70.9012C43.2686 71.1918 43.7966 71.4124 44.3526 71.5629C44.9085 71.7134 45.474 71.7889 46.0491 71.7895ZM39.3949 64.997C39.3961 65.4229 39.4362 65.845 39.5152 66.2631H55.4842C55.5632 65.845 55.6032 65.4229 55.6044 64.997V62.9474H39.3949V64.997ZM36.4221 54.5705C37.3139 55.3419 38.0165 56.264 38.53 57.337C39.0434 58.41 39.3243 59.5433 39.3728 60.7368H46.419V56.3158C46.419 56.1692 46.4464 56.0282 46.5012 55.8928C46.556 55.7573 46.6341 55.6378 46.7355 55.5342C46.8368 55.4305 46.9537 55.3506 47.0861 55.2946C47.2185 55.2385 47.3564 55.2105 47.4997 55.2105H48.5803C48.8669 55.2105 49.1426 55.1544 49.4074 55.0422C49.6722 54.9301 49.9059 54.7703 50.1085 54.5631C50.3112 54.3558 50.4674 54.1167 50.5771 53.8459C50.6867 53.5751 50.7416 53.2931 50.7416 53C50.7416 52.7068 50.6867 52.4249 50.5771 52.154C50.4674 51.8832 50.3112 51.6442 50.1085 51.4369C49.9059 51.2296 49.6722 51.0699 49.4074 50.9577C49.1426 50.8455 48.8669 50.7895 48.5803 50.7895H47.4997C47.3564 50.7895 47.2185 50.7615 47.0861 50.7054C46.9537 50.6493 46.8368 50.5695 46.7355 50.4658C46.6341 50.3622 46.556 50.2426 46.5012 50.1072C46.4464 49.9718 46.419 49.8308 46.419 49.6842V45.2631H41.0159C40.8726 45.2632 40.7347 45.2352 40.6023 45.1791C40.4699 45.123 40.353 45.0432 40.2517 44.9395C40.1503 44.8359 40.0722 44.7163 40.0174 44.5809C39.9626 44.4455 39.9352 44.3045 39.9352 44.1579V43.0526C39.9352 42.7595 39.8804 42.4775 39.7707 42.2067C39.661 41.9359 39.5049 41.6968 39.3022 41.4895C39.0996 41.2823 38.8658 41.1225 38.601 41.0104C38.3363 40.8982 38.0606 40.8421 37.774 40.8421C37.4874 40.8421 37.2117 40.8982 36.9469 41.0104C36.6821 41.1225 36.4484 41.2823 36.2457 41.4895C36.0431 41.6968 35.8869 41.9359 35.7772 42.2067C35.6675 42.4775 35.6127 42.7595 35.6127 43.0526V44.1579C35.6127 44.3045 35.5853 44.4455 35.5305 44.5809C35.4757 44.7163 35.3976 44.8359 35.2963 44.9395C35.1949 45.0432 35.0781 45.123 34.9456 45.1791C34.8132 45.2352 34.6754 45.2632 34.5321 45.2631H30.7478C31.1895 47.0818 31.895 48.7862 32.8644 50.3763C33.8339 51.9664 35.0197 53.3645 36.4221 54.5705ZM33.4514 43.0526C33.4514 42.7623 33.4791 42.4748 33.5345 42.1901C33.5899 41.9054 33.6718 41.6289 33.7805 41.3607C33.8891 41.0926 34.0222 40.8378 34.1799 40.5964C34.3376 40.355 34.5168 40.1317 34.7175 39.9265C34.9182 39.7212 35.1365 39.5379 35.3725 39.3766C35.6085 39.2154 35.8576 39.0792 36.1198 38.9681C36.382 38.857 36.6523 38.7731 36.9307 38.7165C37.2091 38.6599 37.4901 38.6316 37.774 38.6316C38.0578 38.6316 38.3389 38.6599 38.6173 38.7165C38.8956 38.7731 39.1659 38.857 39.4281 38.9681C39.6904 39.0792 39.9395 39.2154 40.1754 39.3766C40.4114 39.5379 40.6298 39.7212 40.8305 39.9265C41.0312 40.1317 41.2103 40.355 41.368 40.5964C41.5257 40.8378 41.6589 41.0926 41.7675 41.3607C41.8761 41.6289 41.9581 41.9054 42.0134 42.1901C42.0688 42.4748 42.0965 42.7623 42.0965 43.0526H46.419V35.3158C46.419 35.1692 46.4464 35.0282 46.5012 34.8928C46.556 34.7573 46.6341 34.6378 46.7355 34.5342C46.8368 34.4305 46.9537 34.3506 47.0861 34.2946C47.2185 34.2385 47.3564 34.2105 47.4997 34.2105H48.5803C48.8669 34.2105 49.1426 34.1544 49.4074 34.0422C49.6722 33.9301 49.9059 33.7703 50.1085 33.5631C50.3112 33.3558 50.4674 33.1167 50.5771 32.8459C50.6867 32.5751 50.7416 32.2931 50.7416 32C50.7416 31.7068 50.6867 31.4249 50.5771 31.154C50.4674 30.8832 50.3112 30.6442 50.1085 30.4369C49.9059 30.2296 49.6722 30.0699 49.4074 29.9577C49.1426 29.8455 48.8669 29.7895 48.5803 29.7895H47.4997C47.3564 29.7895 47.2185 29.7615 47.0861 29.7054C46.9537 29.6493 46.8368 29.5695 46.7355 29.4658C46.6341 29.3622 46.556 29.2426 46.5012 29.1072C46.4464 28.9718 46.419 28.8308 46.419 28.6842V23.2055C44.4872 23.3201 42.6285 23.7588 40.843 24.5217C39.0574 25.2846 37.4459 26.3285 36.0084 27.6534C34.9626 28.6068 34.0433 29.6743 33.2506 30.8557C32.4578 32.0372 31.8146 33.2984 31.321 34.6394C30.8273 35.9804 30.4975 37.3623 30.3315 38.7851C30.1655 40.208 30.1682 41.6305 30.3395 43.0526H33.4514Z" fill="black"/>
<path d="M19.4032 11C19.758 11 20.1094 11.0354 20.4573 11.1062C20.8053 11.177 21.1432 11.2818 21.4709 11.4207C21.7987 11.5595 22.1101 11.7298 22.4051 11.9314C22.7001 12.1329 22.973 12.362 23.2239 12.6186C23.4747 12.8752 23.6987 13.1543 23.8958 13.4561C24.0929 13.7578 24.2593 14.0762 24.3951 14.4115C24.5309 14.7467 24.6334 15.0923 24.7026 15.4482C24.7718 15.8041 24.8064 16.1635 24.8064 16.5263C24.8064 16.8892 24.7718 17.2486 24.7026 17.6044C24.6334 17.9603 24.5309 18.3059 24.3951 18.6411C24.2593 18.9764 24.0929 19.2949 23.8958 19.5966C23.6987 19.8983 23.4747 20.1774 23.2239 20.434C22.973 20.6906 22.7001 20.9197 22.4051 21.1213C22.1101 21.3229 21.7987 21.4931 21.4709 21.632C21.1432 21.7708 20.8053 21.8757 20.4573 21.9464C20.1094 22.0172 19.758 22.0526 19.4032 22.0526C19.0485 22.0526 18.6971 22.0172 18.3491 21.9464C18.0012 21.8757 17.6633 21.7708 17.3355 21.632C17.0078 21.4931 16.6964 21.3229 16.4014 21.1213C16.1064 20.9197 15.8335 20.6906 15.5826 20.434C15.3318 20.1774 15.1078 19.8983 14.9107 19.5966C14.7136 19.2949 14.5471 18.9764 14.4114 18.6411C14.2756 18.3059 14.1731 17.9603 14.1039 17.6044C14.0347 17.2486 14.0001 16.8892 14.0001 16.5263C14.0005 16.1636 14.0354 15.8043 14.1049 15.4486C14.1744 15.0929 14.2771 14.7475 14.413 14.4125C14.549 14.0774 14.7155 13.7591 14.9126 13.4576C15.1097 13.156 15.3337 12.877 15.5845 12.6205C15.8353 12.364 16.1081 12.135 16.4029 11.9333C16.6977 11.7317 17.0089 11.5614 17.3365 11.4224C17.6641 11.2834 18.0018 11.1783 18.3496 11.1073C18.6973 11.0362 19.0486 11.0004 19.4032 11ZM19.4032 19.8421C19.6161 19.8421 19.8269 19.8209 20.0357 19.7784C20.2445 19.7359 20.4472 19.673 20.6439 19.5897C20.8405 19.5064 21.0273 19.4043 21.2043 19.2833C21.3813 19.1623 21.5451 19.0249 21.6956 18.8709C21.8461 18.717 21.9805 18.5495 22.0988 18.3685C22.217 18.1874 22.3169 17.9964 22.3984 17.7952C22.4798 17.5941 22.5413 17.3867 22.5828 17.1732C22.6244 16.9597 22.6451 16.744 22.6451 16.5263C22.6451 16.3086 22.6244 16.093 22.5828 15.8794C22.5413 15.6659 22.4798 15.4586 22.3984 15.2574C22.3169 15.0563 22.217 14.8652 22.0988 14.6842C21.9805 14.5031 21.8461 14.3356 21.6956 14.1817C21.5451 14.0277 21.3813 13.8903 21.2043 13.7693C21.0273 13.6484 20.8405 13.5462 20.6439 13.4629C20.4472 13.3796 20.2445 13.3167 20.0357 13.2742C19.8269 13.2318 19.6161 13.2105 19.4032 13.2105C19.1904 13.2105 18.9795 13.2318 18.7708 13.2742C18.562 13.3167 18.3593 13.3796 18.1626 13.4629C17.966 13.5462 17.7791 13.6484 17.6021 13.7693C17.4251 13.8903 17.2614 14.0277 17.1109 14.1817C16.9603 14.3356 16.826 14.5031 16.7077 14.6842C16.5894 14.8652 16.4896 15.0563 16.4081 15.2574C16.3266 15.4586 16.2652 15.6659 16.2236 15.8794C16.1821 16.093 16.1613 16.3086 16.1613 16.5263C16.1616 16.744 16.1825 16.9595 16.2242 17.1729C16.2659 17.3864 16.3275 17.5936 16.409 17.7947C16.4906 17.9957 16.5905 18.1867 16.7088 18.3676C16.827 18.5486 16.9614 18.716 17.1119 18.8699C17.2624 19.0238 17.4261 19.1612 17.603 19.2822C17.7799 19.4032 17.9666 19.5053 18.1632 19.5887C18.3597 19.6721 18.5623 19.7352 18.771 19.7778C18.9797 19.8204 19.1904 19.8419 19.4032 19.8421Z" fill="#173475"/>
<path d="M30.9076 56.6495L29.5108 54.9612L25.1882 58.7024L26.585 60.3906L30.9076 56.6495Z" fill="#173475"/>
<path d="M70.8914 22.0464L69.4948 20.3579L64.0908 25.0334L65.4873 26.7219L70.8914 22.0464Z" fill="#173475"/>
<path d="M31.5962 25.6296L25.2103 20.1031L23.8135 21.7914L30.1994 27.318L31.5962 25.6296Z" fill="#173475"/>
<path d="M71.1858 59.8923L65.488 54.9627L64.0915 56.6512L69.7893 61.5808L71.1858 59.8923Z" fill="#173475"/>
<path d="M15.0807 59.6316H23.7258C23.8691 59.6315 24.0069 59.6596 24.1393 59.7156C24.2718 59.7717 24.3886 59.8516 24.49 59.9552C24.5913 60.0589 24.6694 60.1784 24.7242 60.3138C24.779 60.4493 24.8064 60.5903 24.8064 60.7368V69.579C24.8064 69.7255 24.779 69.8665 24.7242 70.002C24.6694 70.1374 24.5913 70.2569 24.49 70.3606C24.3886 70.4642 24.2718 70.5441 24.1394 70.6002C24.0069 70.6562 23.8691 70.6843 23.7258 70.6842H15.0807C14.9374 70.6843 14.7995 70.6562 14.6671 70.6002C14.5347 70.5441 14.4178 70.4642 14.3165 70.3606C14.2152 70.2569 14.1371 70.1374 14.0823 70.002C14.0274 69.8665 14 69.7255 14.0001 69.579V60.7368C14 60.5903 14.0274 60.4493 14.0822 60.3138C14.1371 60.1784 14.2151 60.0589 14.3165 59.9552C14.4178 59.8516 14.5347 59.7717 14.6671 59.7156C14.7995 59.6596 14.9374 59.6315 15.0807 59.6316ZM16.1613 68.4737H22.6451V61.8421H16.1613V68.4737Z" fill="#173475"/>
<path d="M74.114 60.195C74.1651 60.115 74.225 60.0426 74.2938 59.9778C74.3626 59.913 74.4381 59.8579 74.5203 59.8124C74.6026 59.7669 74.689 59.7324 74.7796 59.7089C74.8703 59.6854 74.9623 59.6737 75.0558 59.6737C75.1493 59.6737 75.2414 59.6854 75.332 59.7089C75.4226 59.7324 75.5091 59.7669 75.5913 59.8124C75.6735 59.8579 75.749 59.913 75.8178 59.9778C75.8866 60.0426 75.9465 60.115 75.9977 60.195L80.8605 69.0371C80.9068 69.1212 80.9417 69.21 80.9652 69.3034C80.9888 69.3968 81.0001 69.4918 80.9994 69.5882C80.9986 69.6847 80.9857 69.7794 80.9606 69.8725C80.9356 69.9655 80.8992 70.0536 80.8516 70.1369C80.804 70.2202 80.7467 70.2958 80.6797 70.3638C80.6127 70.4317 80.5383 70.4897 80.4564 70.5377C80.3746 70.5857 80.2881 70.6221 80.1969 70.647C80.1058 70.6718 80.013 70.6842 79.9187 70.6842H70.193C70.0986 70.6842 70.0059 70.6718 69.9147 70.647C69.8236 70.6222 69.7371 70.5858 69.6552 70.5378C69.5734 70.4897 69.499 70.4318 69.432 70.3639C69.365 70.2959 69.3077 70.2203 69.2601 70.137C69.2125 70.0537 69.1761 69.9656 69.1511 69.8726C69.126 69.7795 69.1131 69.6848 69.1123 69.5883C69.1115 69.4918 69.1229 69.3969 69.1464 69.3034C69.17 69.21 69.2048 69.1212 69.2511 69.0371L74.114 60.195ZM78.0708 68.4737L75.0558 62.9916L72.0408 68.4737H78.0708Z" fill="#173475"/>
<path d="M71.1105 14.3903L73.5272 14.0126L74.6179 11.6358C74.7069 11.4418 74.8398 11.2874 75.0166 11.1725C75.1935 11.0576 75.3866 11.0001 75.5961 11.0001C75.8056 11.0001 75.9988 11.0576 76.1756 11.1725C76.3525 11.2874 76.4854 11.4418 76.5744 11.6358L77.6651 14.0126L80.0817 14.3903C80.2819 14.4216 80.4595 14.5038 80.6144 14.6372C80.7694 14.7705 80.879 14.9354 80.9433 15.1318C81.0076 15.3281 81.0172 15.5273 80.9721 15.7292C80.9269 15.9311 80.8336 16.1062 80.6922 16.2544L78.9119 18.1206L79.334 20.7694C79.3674 20.9783 79.3441 21.1803 79.264 21.3754C79.1839 21.5706 79.0592 21.7292 78.8901 21.8511C78.7209 21.973 78.533 22.0396 78.3263 22.0511C78.1197 22.0626 77.9258 22.017 77.7447 21.9146L75.5961 20.7003L73.4475 21.9146C73.2664 22.017 73.0726 22.0626 72.8659 22.0511C72.6593 22.0396 72.4714 21.973 72.3022 21.8511C72.133 21.7291 72.0084 21.5706 71.9283 21.3754C71.8482 21.1803 71.8248 20.9783 71.8582 20.7694L72.2804 18.1206L70.5001 16.2544C70.3586 16.1062 70.2654 15.9311 70.2202 15.7292C70.175 15.5273 70.1846 15.3281 70.2489 15.1318C70.3132 14.9354 70.4229 14.7705 70.5778 14.6372C70.7328 14.5038 70.9104 14.4216 71.1105 14.3903H71.1105ZM74.2084 16.9765C74.4623 17.2427 74.56 17.5593 74.5012 17.9263L74.3493 18.8794L75.0732 18.4703C75.2359 18.3782 75.4102 18.3322 75.5961 18.3322C75.7821 18.3322 75.9564 18.3782 76.119 18.4703L76.843 18.8794L76.691 17.9263C76.6323 17.5593 76.7299 17.2427 76.9839 16.9765L77.6761 16.2512L76.7686 16.1087C76.3884 16.0496 76.1167 15.842 75.9534 15.4859L75.5961 14.7077L75.2389 15.4859C75.0756 15.842 74.8039 16.0496 74.4237 16.1087L73.5161 16.2512L74.2084 16.9765Z" fill="#173475"/>
<defs>
<filter id="filter0_b_300_25" x="-4" y="-4" width="100" height="100" filterUnits="userSpaceOnUse" color-interpolation-filters="sRGB">
<feFlood flood-opacity="0" result="BackgroundImageFix"/>
<feGaussianBlur in="BackgroundImageFix" stdDeviation="2"/>
<feComposite in2="SourceAlpha" operator="in" result="effect1_backgroundBlur_300_25"/>
<feBlend mode="normal" in="SourceGraphic" in2="effect1_backgroundBlur_300_25" result="shape"/>
</filter>
<linearGradient id="paint0_linear_300_25" x1="46" y1="0" x2="46" y2="92" gradientUnits="userSpaceOnUse">
<stop stop-color="#FCCC77"/>
<stop offset="1" stop-color="#FCCC77" stop-opacity="0"/>
</linearGradient>
</defs>
</svg>
