<svg width="92" height="92" viewBox="0 0 92 92" fill="none" xmlns="http://www.w3.org/2000/svg">
<g filter="url(#filter0_b_300_26)">
<circle cx="46" cy="46" r="46" fill="url(#paint0_linear_300_26)"/>
</g>
<path d="M80.6885 53.5426C80.026 53.5426 79.476 53.0174 79.476 52.3775C79.476 51.7376 80.026 51.2063 80.6885 51.2063C81.351 51.2063 81.901 51.7376 81.901 52.3775C81.901 53.0174 81.351 53.5426 80.6885 53.5426ZM67.0258 58.1186L62.732 59.7184C62.2882 59.821 62.0695 60.2496 62.0695 60.6722V66.5281C62.0695 67.5966 61.1882 68.3391 60.1944 68.3391H55.2381C54.5756 68.3391 54.1381 68.7678 54.1381 69.4016V73.875H38.6003V63.7631C38.6003 63.3345 38.3816 63.0206 38.0503 62.8033C28.9064 57.696 28.2439 48.864 30.4502 42.7969C35.6253 29.1776 53.4756 28.5376 60.9694 39.0721C63.6132 42.7969 64.6007 47.2642 63.6132 51.7376C63.5007 52.0575 63.6132 52.3775 63.832 52.5888L67.0258 58.1186ZM20.2 19.1744C20.2 18.5344 20.7563 18.0032 21.4126 18.0032C22.0751 18.0032 22.6251 18.5344 22.6251 19.1744C22.6251 19.8143 22.0751 20.3455 21.4126 20.3455C20.7563 20.4482 20.2 19.9169 20.2 19.1744ZM35.0753 13.2159C35.7378 13.2159 36.2878 13.7472 36.2878 14.3871C36.2878 15.021 35.7378 15.5582 35.0753 15.5582C34.419 15.5582 33.8628 15.021 33.8628 14.3871C33.8628 13.7472 34.419 13.2159 35.0753 13.2159ZM48.188 10.0224C48.8505 10.0224 49.4005 10.5536 49.4005 11.1935C49.4005 11.8335 48.8505 12.4673 48.188 12.4673C47.5255 12.4673 46.9755 11.9361 46.9755 11.3022C46.9755 10.6623 47.4192 10.0224 48.188 10.0224ZM57.7694 21.2994C58.4319 21.2994 58.9819 21.8366 58.9819 22.4705C58.9819 23.1104 58.4319 23.6417 57.7694 23.6417C57.1131 23.6417 56.5631 23.1104 56.5631 22.4705C56.5631 21.8366 57.0006 21.2994 57.7694 21.2994ZM76.6134 30.7713C77.276 30.7713 77.826 31.3026 77.826 31.9425C77.826 32.5824 77.276 33.1136 76.6134 33.1136C75.9509 33.1136 75.4009 32.5824 75.4009 31.9425C75.2884 31.3026 75.8384 30.7713 76.6134 30.7713ZM76.6134 42.4769C77.276 42.4769 77.826 43.0142 77.826 43.6481C77.826 44.288 77.276 44.8192 76.6134 44.8192C75.9509 44.8192 75.4009 44.288 75.4009 43.6481C75.2884 43.1168 75.8384 42.4769 76.6134 42.4769ZM80.6885 49.0753C79.1447 49.0753 77.9322 50.0352 77.3822 51.315H74.4072L71.2134 48.2241C70.9946 48.0128 70.7758 47.9102 70.4446 47.9102H66.257C66.257 46.8416 66.1445 45.7791 65.9258 44.8192H73.4196C73.8571 46.0991 75.1822 47.0529 76.7197 47.0529C78.5947 47.0529 80.1385 45.5618 80.1385 43.7567C80.1385 41.9457 78.5947 40.4545 76.7197 40.4545C75.1822 40.4545 73.9696 41.4144 73.4196 42.6942H65.3758C65.0445 41.5231 64.4945 40.4545 63.9445 39.392H70.5508C70.8821 39.392 71.1009 39.2834 71.3259 39.0721L75.4009 35.0273C75.8384 35.2447 76.2822 35.2447 76.7197 35.2447C78.5947 35.2447 80.1385 33.7535 80.1385 31.9425C80.1385 30.1374 78.5947 28.6463 76.7197 28.6463C74.8509 28.6463 73.3071 30.1374 73.3071 31.9425C73.3071 32.5824 73.5259 33.1136 73.7446 33.6449L70.1133 37.267H62.507C59.5382 33.3249 55.0193 30.56 49.6193 29.8175V23.6417H54.5756C55.0193 24.9215 56.3381 25.8754 57.8819 25.8754C59.7569 25.8754 61.3007 24.3903 61.3007 22.5792C61.3007 20.7681 59.7569 19.277 57.8819 19.277C56.3381 19.277 55.1256 20.2369 54.5756 21.5167H48.5192C47.8567 21.5167 47.4192 21.9393 47.4192 22.5792V29.6001C46.0942 29.6001 44.8817 29.6001 43.6692 29.8175V20.4482L47.638 14.4897C47.8567 14.4897 48.0755 14.5984 48.2942 14.5984C50.1693 14.5984 51.713 13.1072 51.713 11.3022C51.713 9.49112 50.1693 8 48.2942 8C46.4255 8 44.8817 9.49112 44.8817 11.3022C44.8817 12.1474 45.2129 12.896 45.7629 13.5359L41.6879 19.5969C41.5754 19.8143 41.4691 20.0256 41.4691 20.1282V30.2401C39.5941 30.7713 37.9441 31.5199 36.4003 32.4737V17.5806C37.7191 17.152 38.7128 15.8722 38.7128 14.3871C38.7128 12.576 37.1691 11.0849 35.294 11.0849C33.4252 11.0849 31.8815 12.576 31.8815 14.3871C31.8815 15.8722 32.8752 17.0433 34.194 17.5806V34.0735C32.7627 35.2447 31.5502 36.6271 30.5627 38.1183V26.8352C30.5627 26.5153 30.4502 26.304 30.2314 26.0927L24.7189 20.7681C24.9376 20.3455 25.0501 19.8143 25.0501 19.277C25.0501 17.4719 23.5063 15.9808 21.6376 15.9808C19.5438 15.8722 18 17.3633 18 19.1744C18 20.9854 19.5438 22.4705 21.4126 22.4705C21.9688 22.4705 22.5188 22.3679 22.9563 22.1506L28.1377 27.1552C28.1377 30.9826 28.1377 38.7521 28.1377 42.5856C25.7126 49.7152 27.2564 58.9698 36.2878 64.2944V74.9375C36.2878 75.5714 36.7316 76 37.3878 76H55.1256C55.7881 76 56.2319 75.5714 56.2319 74.9375V70.5728H60.0882C62.4007 70.5728 64.1632 68.7678 64.1632 66.6367V61.5295L68.9008 59.7184C69.5633 59.5071 69.7821 58.7585 69.4508 58.2273L65.8133 51.7376C65.9258 51.2063 65.9258 50.669 66.0383 50.1438H69.7821L72.9759 53.2287C73.1946 53.44 73.4196 53.5426 73.7446 53.5426H77.276C77.7135 54.8224 79.0385 55.7823 80.576 55.7823C82.451 55.7823 83.9948 54.2912 83.9948 52.4801C84.1011 50.5664 82.5635 49.0753 80.6885 49.0753Z" fill="#173475"/>
<path d="M53.3631 59.8211L52.8131 59.9297C52.3756 60.0384 52.0443 60.3584 51.9318 60.7809C51.8256 61.2096 51.6005 61.7408 51.3818 62.1694C51.163 62.4834 51.163 63.0206 51.3818 63.3346L51.7131 63.7632L51.3818 64.0831L50.9443 63.7632C50.613 63.5519 50.063 63.5519 49.7318 63.7632C49.288 63.9745 48.8505 64.1858 48.2942 64.2944C47.8567 64.3971 47.5255 64.717 47.4192 65.1456L47.3067 65.6769H46.863L46.7567 65.1456C46.6442 64.717 46.313 64.3971 45.8755 64.2944C45.3254 64.1858 44.8817 63.9745 44.4442 63.7632C44.1129 63.5519 43.5629 63.5519 43.2317 63.7632L42.7879 64.0831L42.4567 63.7632L42.7879 63.3346C43.0067 63.0206 43.0067 62.4834 42.7879 62.1694C42.5692 61.7408 42.3504 61.3182 42.2379 60.7809C42.1254 60.3584 41.7941 60.0384 41.3566 59.9297L40.8066 59.8211V59.3985L41.3566 59.2959C41.7941 59.1872 42.1254 58.8672 42.2379 58.4447C42.3504 57.9074 42.5692 57.4848 42.7879 57.0562C43.0067 56.7362 43.0067 56.2049 42.7879 55.885L42.4567 55.4624L42.7879 55.1425L43.2317 55.4624C43.5629 55.6737 44.1129 55.6737 44.4442 55.4624C44.8817 55.2511 45.3254 55.0338 45.8755 54.9312C46.313 54.8225 46.6442 54.5025 46.7567 54.08L46.863 53.5427H47.3067L47.4192 54.08C47.5255 54.5025 47.8567 54.8225 48.2942 54.9312C48.8505 55.0338 49.288 55.2511 49.7318 55.4624C50.063 55.6737 50.613 55.6737 50.9443 55.4624L51.3818 55.1425L51.7131 55.4624L51.3818 55.885C51.163 56.2049 51.163 56.7362 51.3818 57.0562C51.7131 57.4848 51.8256 57.9074 51.9318 58.4447C52.0443 58.8672 52.3756 59.1872 52.8131 59.2959L53.3631 59.3985V59.8211ZM54.5756 57.3761L53.8068 57.2735C53.6943 57.0562 53.5881 56.8449 53.4756 56.6336L53.9131 55.9937C54.2443 55.5711 54.1381 55.0338 53.8068 54.6112L52.1506 53.0175C51.8256 52.6915 51.163 52.5888 50.7193 52.9088L50.063 53.3374C49.838 53.2287 49.6193 53.1201 49.4005 53.0175L49.288 52.2689C49.1818 51.7376 48.738 51.4177 48.188 51.4177H45.8755C45.3254 51.4177 44.8817 51.7376 44.7692 52.2689L44.6629 53.0175C44.4442 53.1201 44.2192 53.2287 44.0004 53.3374L43.3379 52.9088C42.9004 52.5888 42.3504 52.6915 41.9066 53.0175L40.2566 54.6112C39.9254 54.9312 39.8129 55.5711 40.1441 55.9937L40.5879 56.6336C40.4754 56.8449 40.3629 57.0562 40.2566 57.2735L39.4816 57.3761C38.9316 57.4848 38.6003 57.9074 38.6003 58.4447V60.6723C38.6003 61.2096 38.9316 61.6322 39.4816 61.7408L40.2566 61.8495C40.3629 62.0608 40.4754 62.2721 40.5879 62.4834L40.1441 63.2319C39.8129 63.6545 39.9254 64.1858 40.2566 64.6144L41.9066 66.2081C42.2379 66.5281 42.9004 66.6368 43.3379 66.3168L44.0004 65.8882C44.2192 65.9969 44.4442 66.0995 44.6629 66.2081L44.7692 66.9507C44.8817 67.488 45.3254 67.8079 45.8755 67.8079H48.188C48.738 67.8079 49.1818 67.488 49.288 66.9507L49.4005 66.2081C49.6193 66.0995 49.838 65.9969 50.063 65.8882L50.7193 66.3168C51.163 66.6368 51.7131 66.5281 52.1506 66.2081L53.8068 64.6144C54.1381 64.2944 54.2443 63.6545 53.9131 63.2319L53.4756 62.592C53.5881 62.3807 53.6943 62.1694 53.8068 61.9521L54.5756 61.8495C55.1256 61.7408 55.4569 61.3182 55.4569 60.7809V58.5473C55.5694 57.9074 55.1256 57.4848 54.5756 57.3761Z" fill="black"/>
<path d="M47.088 61.2096C46.0942 61.2096 45.4317 60.467 45.4317 59.6158C45.4317 58.7586 46.2067 58.016 47.088 58.016C48.0755 58.016 48.738 58.7586 48.738 59.6158C48.738 60.467 47.9693 61.2096 47.088 61.2096ZM47.088 55.7823C44.8817 55.7823 43.2317 57.4848 43.2317 59.5071C43.2317 61.6321 44.9942 63.2319 47.088 63.2319C49.288 63.2319 50.9443 61.5295 50.9443 59.5071C50.9443 57.4848 49.288 55.7823 47.088 55.7823Z" fill="black"/>
<path d="M57.1131 43.4368L56.5631 43.5394C56.1194 43.6481 55.7881 43.9681 55.6819 44.3907C55.5694 44.8193 55.3506 45.3505 55.1256 45.7792C54.9069 46.0991 54.9069 46.6304 55.1256 46.9503L55.4569 47.3729L55.1256 47.6929L54.6881 47.3729C54.3569 47.1616 53.8068 47.1616 53.4756 47.3729C53.0318 47.5842 52.5943 47.8015 52.0443 47.9102C51.6006 48.0128 51.2693 48.3328 51.1631 48.7554L51.0506 49.2926H50.613L50.5005 48.7554C50.388 48.3328 50.063 48.0128 49.6193 47.9102C49.0693 47.8015 48.6318 47.5842 48.188 47.3729C47.8568 47.1616 47.3067 47.1616 46.9755 47.3729L46.538 47.6929L46.2067 47.3729L46.538 46.9503C46.7567 46.6304 46.7567 46.0991 46.538 45.7792C46.313 45.3505 46.0942 44.9279 45.9817 44.3907C45.8755 43.9681 45.5442 43.6481 45.1005 43.5394L44.5504 43.4368V43.0142L45.1005 42.9056C45.5442 42.7969 45.8755 42.4769 45.9817 42.0544C46.0942 41.5231 46.313 41.0945 46.538 40.6719C46.7567 40.3519 46.7567 39.8207 46.538 39.5007L46.2067 39.0721L46.538 38.7522L46.9755 39.0721C47.3067 39.2834 47.7442 39.2834 48.188 39.0721C48.6318 38.7522 49.0693 38.6495 49.6193 38.5409C50.063 38.4382 50.388 38.1183 50.5005 37.6897L50.613 37.1584H51.0506L51.1631 37.6897C51.2693 38.1183 51.6006 38.4382 52.0443 38.5409C52.5943 38.6495 53.0318 38.8608 53.4756 39.0721C53.8068 39.2834 54.3569 39.2834 54.6881 39.0721L55.1256 38.7522L55.4569 39.0721L55.1256 39.5007C54.9069 39.8207 54.9069 40.3519 55.1256 40.6719C55.3506 41.0945 55.5694 41.5231 55.6819 42.0544C55.7881 42.4769 56.1194 42.7969 56.5631 42.9056L57.1131 43.0142V43.4368ZM58.4319 41.0945L57.5507 40.8832C57.4444 40.6719 57.3319 40.4546 57.2194 40.2433L57.6632 39.6034C57.9944 39.1808 57.8819 38.6495 57.5507 38.2209L56.0069 36.6272C55.6819 36.3072 55.0194 36.1985 54.5756 36.5185L53.9131 36.9471C53.6943 36.8385 53.4756 36.7358 53.2568 36.6272L53.1443 35.8786C53.0318 35.3473 52.5943 35.0274 52.0443 35.0274H49.7318C49.1818 35.0274 48.738 35.3473 48.6318 35.8786L48.5193 36.6272C48.2943 36.7358 48.0755 36.8385 47.8568 36.9471L47.1942 36.5185C46.7567 36.1985 46.2067 36.3072 45.763 36.6272L44.1129 38.2209C43.7817 38.5409 43.6692 39.1808 44.0004 39.6034L44.4442 40.2433C44.3317 40.4546 44.2192 40.6719 44.1129 40.8832L43.3379 41.0945C42.7879 41.2032 42.4567 41.6257 42.4567 42.157V44.3907C42.4567 44.9279 42.7879 45.3505 43.3379 45.4592L44.1129 45.5618C44.2192 45.7792 44.3317 45.9904 44.4442 46.2017L44.0004 46.8416C43.6692 47.2642 43.7817 47.8015 44.1129 48.2241L45.763 49.8179C46.0942 50.1439 46.7567 50.2465 47.1942 49.9265L47.7442 49.3953C47.9693 49.5039 48.188 49.6066 48.4068 49.7152L48.5193 50.4578C48.6318 50.9951 49.0693 51.315 49.6193 51.315H51.9318C52.4818 51.315 52.9256 50.9951 53.0318 50.4578L53.1443 49.7152C53.3631 49.6066 53.5881 49.5039 53.8068 49.3953L54.4694 49.8179C54.9069 50.1439 55.4569 50.0352 55.9006 49.7152L57.5507 48.1215C57.8819 47.8015 57.9944 47.1616 57.6632 46.739L57.3319 46.2017C57.4444 45.9904 57.5507 45.7792 57.6632 45.5618L58.4319 45.4592C58.9819 45.3505 59.3132 44.9279 59.3132 44.3907V42.157C59.3132 41.6257 58.8757 41.2032 58.4319 41.0945Z" fill="black"/>
<path d="M50.8318 44.8192C49.838 44.8192 49.1817 44.0767 49.1817 43.2255C49.1817 42.3743 49.9505 41.6257 50.8318 41.6257C51.8255 41.6257 52.4818 42.3743 52.4818 43.2255C52.4818 44.0767 51.8255 44.8192 50.8318 44.8192ZM50.8318 39.5007C48.6317 39.5007 46.9755 41.2031 46.9755 43.2255C46.9755 45.3505 48.738 46.9503 50.8318 46.9503C52.9256 46.9503 54.6881 45.2418 54.6881 43.2255C54.8006 41.0945 53.0318 39.5007 50.8318 39.5007Z" fill="black"/>
<defs>
<filter id="filter0_b_300_26" x="-4" y="-4" width="100" height="100" filterUnits="userSpaceOnUse" color-interpolation-filters="sRGB">
<feFlood flood-opacity="0" result="BackgroundImageFix"/>
<feGaussianBlur in="BackgroundImageFix" stdDeviation="2"/>
<feComposite in2="SourceAlpha" operator="in" result="effect1_backgroundBlur_300_26"/>
<feBlend mode="normal" in="SourceGraphic" in2="effect1_backgroundBlur_300_26" result="shape"/>
</filter>
<linearGradient id="paint0_linear_300_26" x1="46" y1="0" x2="46" y2="92" gradientUnits="userSpaceOnUse">
<stop stop-color="#FCCC77"/>
<stop offset="1" stop-color="#FCCC77" stop-opacity="0"/>
</linearGradient>
</defs>
</svg>
