<svg width="94" height="85" viewBox="0 0 94 85" fill="none" xmlns="http://www.w3.org/2000/svg">
<g filter="url(#filter0_b_300_34)">
<ellipse cx="46.5" cy="42.5" rx="41.5" ry="42.5" fill="url(#paint0_linear_300_34)"/>
</g>
<path d="M0 32.1827L0 32.1828C-4.06032e-05 32.3471 0.177914 32.719 0.847485 32.719C2.75176 32.719 3.35831 31.0196 5.03223 31.0196C6.51966 31.0196 6.67332 32.719 8.79861 32.719C10.9239 32.719 11.4524 31.0196 12.9834 31.0196C14.5145 31.0196 14.8481 32.719 17.1682 32.719C17.8511 32.719 18.1848 31.7232 17.017 31.7232C15.5062 31.7232 15.015 30 12.9834 30C10.4725 30 10.891 31.6994 8.79861 31.6994C7.12464 31.6994 6.88569 30 5.03223 30C2.93982 30 2.1029 31.6994 0.847458 31.6994C0.000119412 31.6994 2.90112e-05 32.0653 0 32.1827Z" fill="#063DB7"/>
<path d="M4.02524 48.4524L4.02526 48.4525C4.08017 48.6272 4.35219 48.9887 4.90796 48.8618C6.48857 48.501 6.42392 46.5798 7.81334 46.2626C9.04795 45.9808 9.74361 47.758 11.5077 47.3553C13.2718 46.9526 13.1423 45.0462 14.4131 44.7561C15.6839 44.466 16.529 46.209 18.4548 45.7694C19.0216 45.64 18.9657 44.5184 17.9963 44.7397C16.7424 45.026 15.7585 43.2874 14.0722 43.6723C11.9881 44.148 12.9036 45.875 11.1668 46.2715C9.77736 46.5887 9.0109 44.8277 7.47247 45.1789C5.73569 45.5753 5.60913 47.5402 4.56707 47.7781C3.86375 47.9386 3.98602 48.3276 4.02524 48.4524Z" fill="#063DB7"/>
<path d="M9.76385 62.4571L9.76387 62.4571C9.84862 62.612 10.1427 62.9218 10.5275 62.7689C11.622 62.3341 11.0942 61.5943 12.0563 61.2121C12.9112 60.8724 13.876 61.4387 15.0975 60.9534C16.319 60.4682 16.7463 58.7462 17.6263 58.3966C18.5062 58.047 19.5745 58.5721 20.908 58.0424C21.3005 57.8865 20.9787 56.872 20.3075 57.1386C19.4392 57.4836 18.268 56.9719 17.1004 57.4358C15.6572 58.0091 15.7742 59.5149 14.5716 59.9926C13.6095 60.3748 12.5956 59.8281 11.5304 60.2513C10.3277 60.729 10.7232 61.5214 10.0016 61.8081C9.51461 62.0016 9.70331 62.3464 9.76385 62.4571Z" fill="#063DB7"/>
<path d="M6.82426 16.278L6.82424 16.2781C6.73769 16.4362 6.6442 16.8345 7.02903 16.9873C8.12351 17.4221 9.36679 16.9261 10.3289 17.3083C11.1838 17.6479 11.3774 19.3175 12.5989 19.8028C13.8205 20.288 15.0189 19.7742 15.8988 20.1238C16.7788 20.4733 17.0759 22.184 18.4094 22.7138C18.8019 22.8697 19.5179 21.9882 18.8467 21.7215C17.9784 21.3766 17.6033 19.6069 16.4356 19.1431C14.9925 18.5698 14.3384 19.2998 13.1357 18.8221C12.1736 18.4399 11.9309 16.7508 10.8657 16.3276C9.66306 15.8498 8.28738 16.2933 7.56581 16.0066C7.07881 15.8131 6.88608 16.1651 6.82426 16.278Z" fill="#063DB7"/>
<path d="M93.5354 32.1827V32.1828C93.5354 32.3471 93.3575 32.719 92.6879 32.719C90.7836 32.719 90.1771 31.0196 88.5032 31.0196C87.0157 31.0196 86.8621 32.719 84.7368 32.719C82.6115 32.719 82.083 31.0196 80.552 31.0196C79.0209 31.0196 78.6873 32.719 76.3672 32.719C75.6843 32.719 75.3506 31.7232 76.5184 31.7232C78.0292 31.7232 78.5204 30 80.552 30C83.0629 30 82.6444 31.6994 84.7368 31.6994C86.4108 31.6994 86.6497 30 88.5032 30C90.5956 30 91.4325 31.6994 92.6879 31.6994C93.5353 31.6994 93.5354 32.0653 93.5354 32.1827Z" fill="#063DB7"/>
<path d="M89.5102 48.4524L89.5101 48.4525C89.4552 48.6272 89.1832 48.9887 88.6274 48.8618C87.0468 48.501 87.1115 46.5798 85.7221 46.2626C84.4874 45.9808 83.7918 47.758 82.0277 47.3553C80.2636 46.9526 80.3931 45.0462 79.1223 44.7561C77.8515 44.466 77.0064 46.209 75.0806 45.7694C74.5138 45.64 74.5697 44.5184 75.5391 44.7397C76.793 45.026 77.7769 43.2874 79.4632 43.6723C81.5473 44.148 80.6318 45.875 82.3686 46.2715C83.758 46.5887 84.5245 44.8277 86.0629 45.1789C87.7997 45.5753 87.9263 47.5402 88.9683 47.7781C89.6717 47.9386 89.5494 48.3276 89.5102 48.4524Z" fill="#063DB7"/>
<path d="M83.7716 62.4571L83.7715 62.4571C83.6868 62.612 83.3927 62.9218 83.0079 62.7689C81.9134 62.3341 82.4412 61.5943 81.4791 61.2121C80.6242 60.8724 79.6594 61.4387 78.4379 60.9534C77.2164 60.4682 76.7891 58.7462 75.9091 58.3966C75.0292 58.047 73.9609 58.5721 72.6274 58.0424C72.2349 57.8865 72.5567 56.872 73.2279 57.1386C74.0962 57.4836 75.2674 56.9719 76.435 57.4358C77.8782 58.0091 77.7612 59.5149 78.9638 59.9926C79.9259 60.3748 80.9398 59.8281 82.005 60.2513C83.2077 60.729 82.8122 61.5214 83.5338 61.8081C84.0208 62.0016 83.8321 62.3464 83.7716 62.4571Z" fill="#063DB7"/>
<path d="M86.7111 16.278L86.7112 16.2781C86.7977 16.4362 86.8912 16.8345 86.5064 16.9873C85.4119 17.4221 84.1686 16.9261 83.2065 17.3083C82.3516 17.6479 82.158 19.3175 80.9365 19.8028C79.7149 20.288 78.5165 19.7742 77.6366 20.1238C76.7566 20.4733 76.4595 22.184 75.126 22.7138C74.7335 22.8697 74.0175 21.9882 74.6887 21.7215C75.557 21.3766 75.9321 19.6069 77.0998 19.1431C78.5429 18.5698 79.197 19.2998 80.3997 18.8221C81.3618 18.4399 81.6045 16.7508 82.6697 16.3276C83.8723 15.8498 85.248 16.2933 85.9696 16.0066C86.4566 15.8131 86.6493 16.1651 86.7111 16.278Z" fill="#063DB7"/>
<path fill-rule="evenodd" clip-rule="evenodd" d="M39.7111 24.2625L39.7106 26.2289L46.5585 26.2271L46.5554 37.4544C44.8459 37.5015 44.9123 39.5259 46.5548 39.5116L46.5488 61.4911L48.5059 61.4935L48.512 39.4759L53.1222 39.4746L53.1227 37.486L48.5311 37.4872L48.5342 26.2192L64.0079 26.2145C65.9408 26.121 65.9789 24.2259 64.0084 24.2323C64.0084 24.2323 49.1227 24.238 48.5347 24.242C48.5364 18.182 48.5368 16.6452 48.5385 10.5852C48.5948 9.13638 46.5724 8.98382 46.5628 10.6248L46.5591 24.2606L39.7111 24.2625Z" fill="#C78A2A"/>
<path fill-rule="evenodd" clip-rule="evenodd" d="M28.9555 68.3377C40.7151 68.3394 52.483 68.2671 64.2413 68.3258C65.3361 68.2404 66.1465 66.6245 66.1469 64.919C66.1474 63.192 65.6003 61.3746 64.0902 61.4892C52.3271 61.4972 40.7223 61.4685 28.9574 61.5137C27.7075 61.3759 27.0525 62.7237 27.0518 64.9299C27.0512 66.7692 27.7921 68.4916 28.9555 68.3377Z" fill="url(#paint1_linear_300_34)"/>
<path fill-rule="evenodd" clip-rule="evenodd" d="M35.9692 61.497L42.1421 61.4953C42.1437 55.5962 42.1033 53.5025 42.1455 47.6058C42.1627 45.2137 41.6841 45.9309 40.689 44.9639C39.8747 44.1726 39.7355 43.2736 39.7442 41.5702C39.7772 35.1346 39.6449 23.2696 39.7606 15.9329C38.9459 15.5084 36.7255 15.5547 35.9818 15.9551L35.9692 61.497Z" fill="url(#paint2_linear_300_34)"/>
<path fill-rule="evenodd" clip-rule="evenodd" d="M56.5524 37.4348L56.5515 39.4784L61.793 39.4837L61.7869 61.4898L63.6936 61.4886L63.6997 39.4831C65.1772 39.3665 65.1087 37.3601 63.7003 37.4379C63.7028 28.5577 63.7053 19.4938 63.7077 10.6136C63.7464 9.05475 61.7726 9.04863 61.801 10.6101L61.7936 37.4384L56.5524 37.4348Z" fill="#C78A2A"/>
<path fill-rule="evenodd" clip-rule="evenodd" d="M28.8936 61.4989L30.783 61.4928L30.7927 26.2385L35.9754 26.2371C35.9753 25.0083 35.9793 24.1732 35.9793 24.1732C35.9793 24.1732 32.333 24.192 30.7933 24.1924C30.795 18.1302 30.7954 16.556 30.7971 10.4938C30.7753 9.09452 28.9713 9.1116 28.9077 10.4945L28.9039 24.1929C27.2163 24.2797 27.5179 26.1008 28.9034 26.239L28.8936 61.4989Z" fill="#C78A2A"/>
<path fill-rule="evenodd" clip-rule="evenodd" d="M53.1161 61.4922L57.9172 61.4909L57.9013 53.7483C57.9076 53.2071 57.9964 52.9902 57.7152 52.6617C57.2889 52.1634 56.6359 52.1628 56.5637 51.3314L56.5715 33.7967C55.979 33.3117 53.6679 33.2518 53.1475 33.8202C53.1172 43.044 53.1423 52.267 53.1161 61.4922Z" fill="url(#paint3_linear_300_34)"/>
<path fill-rule="evenodd" clip-rule="evenodd" d="M64.0881 68.3409L62.0306 68.3381C62.0304 69.2653 61.9985 69.7134 62.9475 69.7038L63.1699 69.7038C64.0862 69.7582 64.0879 69.2076 64.0881 68.3409Z" fill="#C78A2A"/>
<path fill-rule="evenodd" clip-rule="evenodd" d="M31.1654 68.3467L29.1084 68.3474C29.1082 68.9683 29.1057 69.6979 30.0261 69.7167L30.2487 69.7166C31.222 69.681 31.1652 69.0147 31.1654 68.3467Z" fill="#C78A2A"/>
<defs>
<filter id="filter0_b_300_34" x="1" y="-4" width="91" height="93" filterUnits="userSpaceOnUse" color-interpolation-filters="sRGB">
<feFlood flood-opacity="0" result="BackgroundImageFix"/>
<feGaussianBlur in="BackgroundImageFix" stdDeviation="2"/>
<feComposite in2="SourceAlpha" operator="in" result="effect1_backgroundBlur_300_34"/>
<feBlend mode="normal" in="SourceGraphic" in2="effect1_backgroundBlur_300_34" result="shape"/>
</filter>
<linearGradient id="paint0_linear_300_34" x1="46.5" y1="0" x2="46.5" y2="85" gradientUnits="userSpaceOnUse">
<stop stop-color="#E1E0E0"/>
<stop offset="1" stop-color="#FFEBC8" stop-opacity="0"/>
</linearGradient>
<linearGradient id="paint1_linear_300_34" x1="46.5984" y1="68.3424" x2="46.5965" y2="61.494" gradientUnits="userSpaceOnUse">
<stop stop-color="#CF9460"/>
<stop offset="1" stop-color="#A46815"/>
</linearGradient>
<linearGradient id="paint2_linear_300_34" x1="42.1494" y1="35.1289" x2="31.5182" y2="35.126" gradientUnits="userSpaceOnUse">
<stop stop-color="#3E1206"/>
<stop offset="1" stop-color="#82220C"/>
</linearGradient>
<linearGradient id="paint3_linear_300_34" x1="57.9214" y1="46.4244" x2="51.7485" y2="46.4227" gradientUnits="userSpaceOnUse">
<stop stop-color="#791503"/>
<stop offset="1" stop-color="#B16435"/>
</linearGradient>
</defs>
</svg>
